Yantramanav-BlackItalic.ufo
<glyph name="asterisk" format="1">
  <advance width="827"/>
  <unicode hex="002A"/>
  <outline>
    <contour>
      <point x="299" y="919" type="line"/>
      <point x="23" y="1000" type="line"/>
      <point x="78" y="1169" type="line"/>
      <point x="347" y="1052" type="line"/>
      <point x="327" y="1367" type="line"/>
      <point x="507" y="1367" type="line"/>
      <point x="484" y="1046" type="line"/>
      <point x="746" y="1160" type="line"/>
      <point x="800" y="989" type="line"/>
      <point x="522" y="908" type="line"/>
      <point x="707" y="670" type="line"/>
      <point x="562" y="565" type="line"/>
      <point x="406" y="829" type="line"/>
      <point x="252" y="574" type="line"/>
      <point x="106" y="675" type="line"/>
    </contour>
  </outline>
</glyph>
<glyph name="comma" format="1">
  <advance width="487"/>
  <unicode hex="002C"/>
  <outline>
    <contour>
      <point x="376" y="-40" type="line"/>
      <point x="230" y="-326" type="line"/>
      <point x="50" y="-326" type="line"/>
      <point x="113" y="-32" type="line"/>
      <point x="113" y="196" type="line"/>
      <point x="376" y="196" type="line"/>
    </contour>
  </outline>
</glyph>
<glyph name="hyphen" format="1">
  <advance width="829"/>
  <unicode hex="002D"/>
  <outline>
    <contour>
      <point x="678" y="497" type="line"/>
      <point x="137" y="497" type="line"/>
      <point x="137" y="732" type="line"/>
      <point x="678" y="732" type="line"/>
    </contour>
  </outline>
</glyph>
<glyph name="five" format="1">
  <advance width="1067"/>
  <unicode hex="0035"/>
  <outline>
    <contour>
      <point x="104" y="574" type="line"/>
      <point x="180" y="1308" type="line"/>
      <point x="949" y="1308" type="line"/>
      <point x="949" y="1073" type="line"/>
      <point x="428" y="1073" type="line"/>
      <point x="394" y="800" type="line"/>
      <point x="428" y="826"/>
      <point x="531" y="858"/>
      <point x="592" y="860" type="qcurve" smooth="yes"/>
      <point x="785" y="864"/>
      <point x="992" y="632"/>
      <point x="992" y="420" type="qcurve" smooth="yes"/>
      <point x="992" y="236"/>
      <point x="756" y="-21"/>
      <point x="536" y="-21" type="qcurve" smooth="yes"/>
      <point x="349" y="-21"/>
      <point x="74" y="186"/>
      <point x="78" y="356" type="qcurve"/>
      <point x="80" y="362" type="line"/>
      <point x="377" y="380" type="line"/>
      <point x="377" y="301"/>
      <point x="464" y="213"/>
      <point x="536" y="213" type="qcurve" smooth="yes"/>
      <point x="619" y="213"/>
      <point x="689" y="329"/>
      <point x="689" y="418" type="qcurve" smooth="yes"/>
      <point x="689" y="526"/>
      <point x="611" y="650"/>
      <point x="527" y="650" type="qcurve" smooth="yes"/>
      <point x="466" y="650"/>
      <point x="392" y="598"/>
      <point x="377" y="559" type="qcurve"/>
    </contour>
  </outline>
</glyph>
<glyph name="A" format="1">
  <advance width="1227"/>
  <unicode hex="0041"/>
  <outline>
    <contour>
      <point x="771" y="245" type="line"/>
      <point x="353" y="245" type="line"/>
      <point x="237" y="0" type="line"/>
      <point x="-103" y="0" type="line"/>
      <point x="591" y="1310" type="line"/>
      <point x="881" y="1310" type="line"/>
      <point x="1123" y="0" type="line"/>
      <point x="803" y="0" type="line"/>
    </contour>
    <contour>
      <point x="468" y="489" type="line"/>
      <point x="740" y="489" type="line"/>
      <point x="682" y="941" type="line"/>
    </contour>
  </outline>
</glyph>
<glyph name="B" format="1">
  <advance width="1162"/>
  <unicode hex="0042"/>
  <outline>
    <contour>
      <point x="2" y="0" type="line"/>
      <point x="229" y="1310" type="line"/>
      <point x="645" y="1310" type="line" smooth="yes"/>
      <point x="892" y="1309"/>
      <point x="1135" y="1123"/>
      <point x="1124" y="956" type="qcurve" smooth="yes"/>
      <point x="1117" y="852" name="inserted"/>
      <point x="1004" y="706"/>
      <point x="897" y="662" type="qcurve"/>
      <point x="974" y="635"/>
      <point x="1059" y="494"/>
      <point x="1053" y="395" type="qcurve" smooth="yes"/>
      <point x="1040" y="205"/>
      <point x="766" y="0"/>
      <point x="527" y="0" type="qcurve" smooth="yes"/>
    </contour>
    <contour>
      <point x="407" y="557" type="line"/>
      <point x="352" y="243" type="line"/>
      <point x="536" y="242" type="line" smooth="yes"/>
      <point x="623" y="242"/>
      <point x="738" y="328"/>
      <point x="749" y="399" type="qcurve" smooth="yes"/>
      <point x="761" y="474" name="inserted"/>
      <point x="704" y="553"/>
      <point x="634" y="556" type="qcurve" smooth="yes"/>
    </contour>
    <contour>
      <point x="442" y="764" type="line"/>
      <point x="587" y="763" type="line" smooth="yes"/>
      <point x="687" y="765" name="inserted"/>
      <point x="800" y="842"/>
      <point x="812" y="917" type="qcurve" smooth="yes"/>
      <point x="823" y="991" name="inserted"/>
      <point x="746" y="1065"/>
      <point x="659" y="1066" type="qcurve" smooth="yes"/>
      <point x="495" y="1067" type="line"/>
    </contour>
  </outline>
</glyph>
<glyph name="C" format="1">
  <advance width="1183"/>
  <unicode hex="0043"/>
  <outline>
    <contour>
      <point x="1100" y="444" type="line"/>
      <point x="1088" y="307"/>
      <point x="931" y="92"/>
      <point x="802" y="35" type="qcurve" smooth="yes" name="inserted"/>
      <point x="738" y="6" name="inserted"/>
      <point x="599" y="-21"/>
      <point x="525" y="-20" type="qcurve" smooth="yes"/>
      <point x="320" y="-16"/>
      <point x="84" y="240"/>
      <point x="73" y="459" type="qcurve" smooth="yes"/>
      <point x="65" y="605"/>
      <point x="145" y="948"/>
      <point x="235" y="1076" type="qcurve" smooth="yes" name="inserted"/>
      <point x="326" y="1203"/>
      <point x="572" y="1330"/>
      <point x="717" y="1327" type="qcurve" smooth="yes"/>
      <point x="932" y="1324"/>
      <point x="1181" y="1073"/>
      <point x="1192" y="854" type="qcurve"/>
      <point x="885" y="855" type="line"/>
      <point x="887" y="974"/>
      <point x="797" y="1077"/>
      <point x="699" y="1081" type="qcurve" smooth="yes"/>
      <point x="578" y="1085" name="inserted"/>
      <point x="430" y="896"/>
      <point x="403" y="703" type="qcurve" smooth="yes"/>
      <point x="391" y="615" name="inserted"/>
      <point x="379" y="491"/>
      <point x="379" y="453" type="qcurve"/>
      <point x="377" y="343" name="inserted"/>
      <point x="459" y="229"/>
      <point x="543" y="226" type="qcurve" smooth="yes"/>
      <point x="652" y="222"/>
      <point x="781" y="336"/>
      <point x="799" y="441" type="qcurve"/>
    </contour>
  </outline>
</glyph>
<glyph name="D" format="1">
  <advance width="1165"/>
  <unicode hex="0044"/>
  <outline>
    <contour>
      <point x="2" y="0" type="line"/>
      <point x="229" y="1310" type="line"/>
      <point x="614" y="1310" type="line" smooth="yes"/>
      <point x="784" y="1310"/>
      <point x="1038" y="1130"/>
      <point x="1091" y="976" type="qcurve" smooth="yes"/>
      <point x="1114" y="908" name="inserted"/>
      <point x="1128" y="761"/>
      <point x="1119" y="682" type="qcurve" smooth="yes"/>
      <point x="1112" y="627" type="line" smooth="yes"/>
      <point x="1088" y="451"/>
      <point x="903" y="165"/>
      <point x="757" y="83" type="qcurve" smooth="yes" name="inserted"/>
      <point x="684" y="43" name="inserted"/>
      <point x="527" y="1"/>
      <point x="442" y="0" type="qcurve" smooth="yes"/>
    </contour>
    <contour>
      <point x="495" y="1067" type="line"/>
      <point x="352" y="243" type="line"/>
      <point x="442" y="242" type="line" smooth="yes"/>
      <point x="600" y="242"/>
      <point x="792" y="487"/>
      <point x="810" y="739" type="qcurve" smooth="yes"/>
      <point x="812" y="769" type="line" smooth="yes"/>
      <point x="818" y="913"/>
      <point x="716" y="1062"/>
      <point x="613" y="1066" type="qcurve" smooth="yes"/>
    </contour>
  </outline>
</glyph>
<glyph name="E" format="1">
  <advance width="1010"/>
  <unicode hex="0045"/>
  <outline>
    <contour>
      <point x="888" y="555" type="line"/>
      <point x="407" y="555" type="line"/>
      <point x="352" y="243" type="line"/>
      <point x="922" y="243" type="line"/>
      <point x="879" y="0" type="line"/>
      <point x="2" y="0" type="line"/>
      <point x="229" y="1310" type="line"/>
      <point x="1108" y="1310" type="line"/>
      <point x="1066" y="1067" type="line"/>
      <point x="495" y="1067" type="line"/>
      <point x="446" y="790" type="line"/>
      <point x="929" y="790" type="line"/>
    </contour>
  </outline>
</glyph>
<glyph name="F" format="1">
  <advance width="986"/>
  <unicode hex="0046"/>
  <outline>
    <contour>
      <point x="895" y="522" type="line"/>
      <point x="401" y="522" type="line"/>
      <point x="310" y="0" type="line"/>
      <point x="2" y="0" type="line"/>
      <point x="229" y="1310" type="line"/>
      <point x="1081" y="1310" type="line"/>
      <point x="1039" y="1067" type="line"/>
      <point x="495" y="1067" type="line"/>
      <point x="443" y="765" type="line"/>
      <point x="937" y="765" type="line"/>
    </contour>
  </outline>
</glyph>
<glyph name="G" format="1">
  <advance width="1228"/>
  <unicode hex="0047"/>
  <outline>
    <contour>
      <point x="1088" y="159" type="line"/>
      <point x="1014" y="73"/>
      <point x="732" y="-22"/>
      <point x="560" y="-19" type="qcurve" smooth="yes"/>
      <point x="395" y="-17"/>
      <point x="168" y="145"/>
      <point x="120" y="290" type="qcurve" smooth="yes" name="inserted"/>
      <point x="95" y="362" name="inserted"/>
      <point x="82" y="525"/>
      <point x="94" y="616" type="qcurve" smooth="yes"/>
      <point x="101" y="670" type="line" smooth="yes"/>
      <point x="142" y="975"/>
      <point x="489" y="1332"/>
      <point x="740" y="1327" type="qcurve" smooth="yes"/>
      <point x="959" y="1324"/>
      <point x="1195" y="1095"/>
      <point x="1209" y="879" type="qcurve"/>
      <point x="914" y="880" type="line"/>
      <point x="907" y="985"/>
      <point x="816" y="1083"/>
      <point x="733" y="1085" type="qcurve" smooth="yes"/>
      <point x="608" y="1090"/>
      <point x="446" y="885"/>
      <point x="417" y="696" type="qcurve" smooth="yes"/>
      <point x="404" y="615" name="inserted"/>
      <point x="395" y="489"/>
      <point x="399" y="444" type="qcurve" smooth="yes"/>
      <point x="405" y="335" name="inserted"/>
      <point x="503" y="225"/>
      <point x="594" y="224" type="qcurve" smooth="yes"/>
      <point x="649" y="223" name="inserted"/>
      <point x="745" y="250"/>
      <point x="787" y="277" type="qcurve"/>
      <point x="827" y="481" type="line"/>
      <point x="614" y="481" type="line"/>
      <point x="652" y="698" type="line"/>
      <point x="1173" y="698" type="line"/>
    </contour>
  </outline>
</glyph>
<glyph name="H" format="1">
  <advance width="1265"/>
  <unicode hex="0048"/>
  <outline>
    <contour>
      <point x="1066" y="0" type="line"/>
      <point x="760" y="0" type="line"/>
      <point x="854" y="547" type="line"/>
      <point x="405" y="547" type="line"/>
      <point x="310" y="0" type="line"/>
      <point x="2" y="0" type="line"/>
      <point x="229" y="1310" type="line"/>
      <point x="537" y="1310" type="line"/>
      <point x="446" y="790" type="line"/>
      <point x="896" y="790" type="line"/>
      <point x="986" y="1310" type="line"/>
      <point x="1293" y="1310" type="line"/>
    </contour>
  </outline>
</glyph>
<glyph name="J" format="1">
  <advance width="1013"/>
  <unicode hex="004A"/>
  <outline>
    <contour>
      <point x="738" y="1308" type="line"/>
      <point x="1046" y="1308" type="line"/>
      <point x="893" y="409" type="line" smooth="yes"/>
      <point x="865" y="212"/>
      <point x="585" y="-25"/>
      <point x="396" y="-21" type="qcurve" smooth="yes"/>
      <point x="206" y="-17"/>
      <point x="-2" y="199"/>
      <point x="4" y="395" type="qcurve"/>
      <point x="314" y="394" type="line"/>
      <point x="314" y="332" type="line" smooth="yes"/>
      <point x="316" y="278" name="inserted"/>
      <point x="368" y="223"/>
      <point x="418" y="222" type="qcurve" smooth="yes"/>
      <point x="485" y="221" name="inserted"/>
      <point x="570" y="319"/>
      <point x="587" y="419" type="qcurve" smooth="yes"/>
    </contour>
  </outline>
</glyph>
<glyph name="K" format="1">
  <advance width="1153"/>
  <unicode hex="004B"/>
  <outline>
    <contour>
      <point x="528" y="484" type="line"/>
      <point x="368" y="334" type="line"/>
      <point x="310" y="0" type="line"/>
      <point x="2" y="0" type="line"/>
      <point x="229" y="1310" type="line"/>
      <point x="537" y="1310" type="line"/>
      <point x="439" y="750" type="line"/>
      <point x="567" y="905" type="line"/>
      <point x="907" y="1310" type="line"/>
      <point x="1307" y="1310" type="line"/>
      <point x="763" y="717" type="line"/>
      <point x="1065" y="0" type="line"/>
      <point x="713" y="0" type="line"/>
    </contour>
  </outline>
</glyph>
<glyph name="L" format="1">
  <advance width="978"/>
  <unicode hex="004C"/>
  <outline>
    <contour>
      <point x="352" y="243" type="line"/>
      <point x="886" y="243" type="line"/>
      <point x="843" y="0" type="line"/>
      <point x="2" y="0" type="line"/>
      <point x="229" y="1310" type="line"/>
      <point x="537" y="1310" type="line"/>
    </contour>
  </outline>
</glyph>
<glyph name="M" format="1">
  <advance width="1576"/>
  <unicode hex="004D"/>
  <outline>
    <contour>
      <point x="628" y="1310" type="line"/>
      <point x="753" y="401" type="line"/>
      <point x="1193" y="1310" type="line"/>
      <point x="1603" y="1310" type="line"/>
      <point x="1376" y="0" type="line"/>
      <point x="1067" y="0" type="line"/>
      <point x="1122" y="321" type="line"/>
      <point x="1256" y="914" type="line"/>
      <point x="797" y="0" type="line"/>
      <point x="592" y="0" type="line"/>
      <point x="444" y="948" type="line"/>
      <point x="361" y="291" type="line"/>
      <point x="310" y="0" type="line"/>
      <point x="2" y="0" type="line"/>
      <point x="229" y="1310" type="line"/>
    </contour>
  </outline>
</glyph>
<glyph name="N" format="1">
  <advance width="1265"/>
  <unicode hex="004E"/>
  <outline>
    <contour>
      <point x="1065" y="0" type="line"/>
      <point x="767" y="0" type="line"/>
      <point x="454" y="827" type="line"/>
      <point x="310" y="0" type="line"/>
      <point x="2" y="0" type="line"/>
      <point x="229" y="1310" type="line"/>
      <point x="529" y="1310" type="line"/>
      <point x="842" y="483" type="line"/>
      <point x="985" y="1310" type="line"/>
      <point x="1292" y="1310" type="line"/>
    </contour>
  </outline>
</glyph>
<glyph name="O" format="1">
  <advance width="1244"/>
  <unicode hex="004F"/>
  <outline>
    <contour>
      <point x="543" y="-20" type="qcurve" smooth="yes"/>
      <point x="338" y="-16"/>
      <point x="92" y="245"/>
      <point x="76" y="464" type="qcurve" smooth="yes"/>
      <point x="67" y="572"/>
      <point x="119" y="865"/>
      <point x="185" y="988" type="qcurve" smooth="yes" name="inserted"/>
      <point x="219" y="1050" name="inserted"/>
      <point x="302" y="1152"/>
      <point x="352" y="1193" type="qcurve" smooth="yes"/>
      <point x="436" y="1262" name="inserted"/>
      <point x="628" y="1329"/>
      <point x="737" y="1326" type="qcurve" smooth="yes"/>
      <point x="871" y="1324"/>
      <point x="1072" y="1206"/>
      <point x="1132" y="1095" type="qcurve" smooth="yes" name="inserted"/>
      <point x="1162" y="1040" name="inserted"/>
      <point x="1197" y="914"/>
      <point x="1202" y="843" type="qcurve" smooth="yes"/>
      <point x="1210" y="743"/>
      <point x="1171" y="488"/>
      <point x="1119" y="373" type="qcurve" smooth="yes" name="inserted"/>
      <point x="1067" y="257"/>
      <point x="904" y="81"/>
      <point x="792" y="29" type="qcurve" smooth="yes" name="inserted"/>
      <point x="737" y="3" name="inserted"/>
      <point x="612" y="-21"/>
    </contour>
    <contour>
      <point x="894" y="846" type="qcurve" smooth="yes"/>
      <point x="889" y="958" name="inserted"/>
      <point x="802" y="1075"/>
      <point x="719" y="1080" type="qcurve" smooth="yes"/>
      <point x="591" y="1086"/>
      <point x="424" y="871"/>
      <point x="397" y="661" type="qcurve" smooth="yes"/>
      <point x="388" y="596" name="inserted"/>
      <point x="382" y="496"/>
      <point x="384" y="461" type="qcurve" smooth="yes"/>
      <point x="389" y="346" name="inserted"/>
      <point x="477" y="229"/>
      <point x="561" y="226" type="qcurve" smooth="yes"/>
      <point x="671" y="220"/>
      <point x="829" y="389"/>
      <point x="864" y="549" type="qcurve" smooth="yes" name="inserted"/>
      <point x="882" y="630" name="inserted"/>
      <point x="896" y="778"/>
    </contour>
  </outline>
</glyph>
<glyph name="P" format="1">
  <advance width="1173"/>
  <unicode hex="0050"/>
  <outline>
    <contour>
      <point x="387" y="445" type="line"/>
      <point x="310" y="0" type="line"/>
      <point x="2" y="0" type="line"/>
      <point x="229" y="1310" type="line"/>
      <point x="699" y="1310" type="line" smooth="yes"/>
      <point x="918" y="1310"/>
      <point x="1169" y="1067"/>
      <point x="1154" y="873" type="qcurve" smooth="yes"/>
      <point x="1143" y="741"/>
      <point x="995" y="546"/>
      <point x="874" y="495" type="qcurve" smooth="yes" name="inserted"/>
      <point x="814" y="469" name="inserted"/>
      <point x="678" y="444"/>
      <point x="603" y="444" type="qcurve" smooth="yes"/>
    </contour>
    <contour>
      <point x="429" y="689" type="line"/>
      <point x="615" y="687" type="line" smooth="yes"/>
      <point x="732" y="689"/>
      <point x="856" y="836"/>
      <point x="843" y="943" type="qcurve" smooth="yes"/>
      <point x="836" y="998"/>
      <point x="767" y="1062"/>
      <point x="710" y="1066" type="qcurve"/>
      <point x="495" y="1067" type="line"/>
    </contour>
  </outline>
</glyph>
<glyph name="Q" format="1">
  <advance width="1244"/>
  <unicode hex="0051"/>
  <outline>
    <contour>
      <point x="1193" y="603" type="line" smooth="yes"/>
      <point x="1167" y="415"/>
      <point x="1004" y="144"/>
      <point x="878" y="63" type="qcurve"/>
      <point x="1054" y="-111" type="line"/>
      <point x="850" y="-266" type="line"/>
      <point x="617" y="-40" type="line"/>
      <point x="592" y="-42" name="inserted"/>
      <point x="554" y="-44"/>
      <point x="542" y="-44" type="qcurve" smooth="yes"/>
      <point x="410" y="-43"/>
      <point x="205" y="76"/>
      <point x="146" y="188" type="qcurve" smooth="yes" name="inserted"/>
      <point x="116" y="243" name="inserted"/>
      <point x="81" y="371"/>
      <point x="77" y="443" type="qcurve" smooth="yes"/>
      <point x="69" y="549"/>
      <point x="114" y="818"/>
      <point x="172" y="935" type="qcurve" smooth="yes"/>
      <point x="258" y="1110"/>
      <point x="554" y="1305"/>
      <point x="738" y="1302" type="qcurve" smooth="yes"/>
      <point x="871" y="1299"/>
      <point x="1073" y="1181"/>
      <point x="1134" y="1068" type="qcurve" smooth="yes" name="inserted"/>
      <point x="1164" y="1012" name="inserted"/>
      <point x="1199" y="885"/>
      <point x="1204" y="814" type="qcurve" smooth="yes"/>
      <point x="1207" y="775" name="inserted"/>
      <point x="1205" y="695"/>
      <point x="1200" y="655" type="qcurve" smooth="yes"/>
    </contour>
    <contour>
      <point x="896" y="821" type="qcurve" smooth="yes"/>
      <point x="888" y="939"/>
      <point x="801" y="1051"/>
      <point x="720" y="1055" type="qcurve" smooth="yes"/>
      <point x="590" y="1060"/>
      <point x="426" y="846"/>
      <point x="398" y="635" type="qcurve" smooth="yes"/>
      <point x="389" y="572" name="inserted"/>
      <point x="383" y="472"/>
      <point x="385" y="435" type="qcurve" smooth="yes"/>
      <point x="390" y="321" name="inserted"/>
      <point x="478" y="204"/>
      <point x="562" y="201" type="qcurve" smooth="yes"/>
      <point x="683" y="195"/>
      <point x="848" y="397"/>
      <point x="878" y="596" type="qcurve" smooth="yes"/>
      <point x="889" y="666" name="inserted"/>
      <point x="897" y="778"/>
    </contour>
  </outline>
</glyph>
<glyph name="R" format="1">
  <advance width="1175"/>
  <unicode hex="0052"/>
  <outline>
    <contour>
      <point x="562" y="463" type="line"/>
      <point x="391" y="463" type="line"/>
      <point x="310" y="0" type="line"/>
      <point x="2" y="0" type="line"/>
      <point x="229" y="1310" type="line"/>
      <point x="691" y="1310" type="line" smooth="yes"/>
      <point x="914" y="1310"/>
      <point x="1154" y="1102"/>
      <point x="1141" y="922" type="qcurve" smooth="yes"/>
      <point x="1131" y="779"/>
      <point x="987" y="593"/>
      <point x="858" y="539" type="qcurve"/>
      <point x="1034" y="15" type="line"/>
      <point x="1034" y="0" type="line"/>
      <point x="706" y="0" type="line"/>
    </contour>
    <contour>
      <point x="432" y="707" type="line"/>
      <point x="612" y="705" type="line" smooth="yes"/>
      <point x="686" y="705"/>
      <point x="795" y="777"/>
      <point x="818" y="839" type="qcurve" smooth="yes" name="inserted"/>
      <point x="830" y="871" name="inserted"/>
      <point x="837" y="931"/>
      <point x="832" y="960" type="qcurve" smooth="yes"/>
      <point x="823" y="1010" name="inserted"/>
      <point x="759" y="1063"/>
      <point x="704" y="1066" type="qcurve" smooth="yes"/>
      <point x="495" y="1067" type="line"/>
    </contour>
  </outline>
</glyph>
<glyph name="S" format="1">
  <advance width="1129"/>
  <unicode hex="0053"/>
  <outline>
    <contour>
      <point x="722" y="352" type="qcurve" smooth="yes"/>
      <point x="732" y="403" name="inserted"/>
      <point x="677" y="482"/>
      <point x="612" y="510" type="qcurve" smooth="yes"/>
      <point x="464" y="571" type="line" smooth="yes"/>
      <point x="309" y="641" name="inserted"/>
      <point x="162" y="831"/>
      <point x="169" y="951" type="qcurve" smooth="yes"/>
      <point x="176" y="1061"/>
      <point x="314" y="1233"/>
      <point x="437" y="1280" type="qcurve" smooth="yes" name="inserted"/>
      <point x="498" y="1304" name="inserted"/>
      <point x="631" y="1327"/>
      <point x="704" y="1326" type="qcurve" smooth="yes"/>
      <point x="898" y="1323"/>
      <point x="1135" y="1103"/>
      <point x="1133" y="919" type="qcurve"/>
      <point x="827" y="919" type="line"/>
      <point x="830" y="994"/>
      <point x="761" y="1085"/>
      <point x="681" y="1087" type="qcurve" smooth="yes"/>
      <point x="604" y="1089"/>
      <point x="485" y="1013"/>
      <point x="474" y="949" type="qcurve" smooth="yes"/>
      <point x="457" y="859"/>
      <point x="759" y="744"/>
      <point x="827" y="703" type="qcurve" smooth="yes"/>
      <point x="935" y="638" name="inserted"/>
      <point x="1035" y="465"/>
      <point x="1029" y="355" type="qcurve" smooth="yes"/>
      <point x="1021" y="242"/>
      <point x="890" y="71"/>
      <point x="774" y="24" type="qcurve" smooth="yes" name="inserted"/>
      <point x="715" y="1" name="inserted"/>
      <point x="585" y="-22"/>
      <point x="512" y="-21" type="qcurve" smooth="yes"/>
      <point x="406" y="-19"/>
      <point x="224" y="44"/>
      <point x="159" y="104" type="qcurve" smooth="yes"/>
      <point x="94" y="165" name="inserted"/>
      <point x="31" y="325"/>
      <point x="33" y="424" type="qcurve"/>
      <point x="342" y="423" type="line"/>
      <point x="337" y="322"/>
      <point x="425" y="218"/>
      <point x="529" y="218" type="qcurve" smooth="yes"/>
      <point x="607" y="218"/>
      <point x="710" y="289"/>
    </contour>
  </outline>
</glyph>
<glyph name="T" format="1">
  <advance width="1136"/>
  <unicode hex="0054"/>
  <outline>
    <contour>
      <point x="1186" y="1067" type="line"/>
      <point x="805" y="1067" type="line"/>
      <point x="620" y="0" type="line"/>
      <point x="311" y="0" type="line"/>
      <point x="497" y="1067" type="line"/>
      <point x="122" y="1067" type="line"/>
      <point x="165" y="1310" type="line"/>
      <point x="1229" y="1310" type="line"/>
    </contour>
  </outline>
</glyph>
<glyph name="U" format="1">
  <advance width="1197.0"/>
  <unicode hex="0055"/>
  <outline>
    <contour>
      <point x="1231" y="1308" type="line"/>
      <point x="1085" y="453" type="line" smooth="yes"/>
      <point x="1054" y="231"/>
      <point x="751" y="-25"/>
      <point x="520" y="-21" type="qcurve" smooth="yes"/>
      <point x="377" y="-18"/>
      <point x="167" y="100"/>
      <point x="117" y="207" type="qcurve" smooth="yes" name="inserted"/>
      <point x="92" y="261" name="inserted"/>
      <point x="75" y="384"/>
      <point x="83" y="452" type="qcurve"/>
      <point x="229" y="1308" type="line"/>
      <point x="538" y="1308" type="line"/>
      <point x="393" y="451" type="line" smooth="yes"/>
      <point x="391" y="429" name="inserted"/>
      <point x="390" y="386"/>
      <point x="392" y="366" type="qcurve" smooth="yes"/>
      <point x="396" y="299"/>
      <point x="471" y="226"/>
      <point x="539" y="223" type="qcurve" smooth="yes"/>
      <point x="638" y="220" name="inserted"/>
      <point x="757" y="334"/>
      <point x="778" y="452" type="qcurve" smooth="yes"/>
      <point x="923" y="1308" type="line"/>
    </contour>
  </outline>
</glyph>
<glyph name="W" format="1">
  <advance width="1563"/>
  <unicode hex="0057"/>
  <outline>
    <contour>
      <point x="1070" y="492" type="line"/>
      <point x="1344" y="1310" type="line"/>
      <point x="1655" y="1310" type="line"/>
      <point x="1180" y="0" type="line"/>
      <point x="861" y="0" type="line"/>
      <point x="808" y="743" type="line"/>
      <point x="526" y="0" type="line"/>
      <point x="207" y="0" type="line"/>
      <point x="141" y="1310" type="line"/>
      <point x="441" y="1310" type="line"/>
      <point x="459" y="496" type="line"/>
      <point x="760" y="1310" type="line"/>
      <point x="1022" y="1310" type="line"/>
    </contour>
  </outline>
</glyph>
<glyph name="X" format="1">
  <advance width="1150"/>
  <unicode hex="0058"/>
  <outline>
    <contour>
      <point x="616" y="877" type="line"/>
      <point x="891" y="1310" type="line"/>
      <point x="1256" y="1310" type="line"/>
      <point x="790" y="648" type="line"/>
      <point x="1047" y="0" type="line"/>
      <point x="706" y="0" type="line"/>
      <point x="562" y="442" type="line"/>
      <point x="279" y="0" type="line"/>
      <point x="-89" y="0" type="line"/>
      <point x="388" y="673" type="line"/>
      <point x="140" y="1310" type="line"/>
      <point x="477" y="1310" type="line"/>
    </contour>
  </outline>
</glyph>
<glyph name="Z" format="1">
  <advance width="1100"/>
  <unicode hex="005A"/>
  <outline>
    <contour>
      <point x="393" y="245" type="line"/>
      <point x="997" y="243" type="line"/>
      <point x="955" y="0" type="line"/>
      <point x="-37" y="0" type="line"/>
      <point x="-5" y="180" type="line"/>
      <point x="750" y="1065" type="line"/>
      <point x="144" y="1067" type="line"/>
      <point x="187" y="1310" type="line"/>
      <point x="1176" y="1310" type="line"/>
      <point x="1146" y="1135" type="line"/>
    </contour>
  </outline>
</glyph>
<glyph name="a" format="1">
  <advance width="958"/>
  <unicode hex="0061"/>
  <outline>
    <contour>
      <point x="537" y="-2" type="line"/>
      <point x="531" y="16" name="inserted"/>
      <point x="525" y="60"/>
      <point x="525" y="86" type="qcurve"/>
      <point x="475" y="31" name="inserted"/>
      <point x="356" y="-22"/>
      <point x="286" y="-20" type="qcurve" smooth="yes"/>
      <point x="159" y="-18"/>
      <point x="-8" y="147"/>
      <point x="-3" y="265" type="qcurve" smooth="yes"/>
      <point x="2" y="424"/>
      <point x="257" y="594"/>
      <point x="479" y="594" type="qcurve" smooth="yes"/>
      <point x="578" y="592" type="line"/>
      <point x="589" y="647" type="line"/>
      <point x="592" y="695" type="line"/>
      <point x="590" y="736" name="inserted"/>
      <point x="549" y="778"/>
      <point x="510" y="779" type="qcurve" smooth="yes"/>
      <point x="462" y="780" name="inserted"/>
      <point x="402" y="727"/>
      <point x="391" y="672" type="qcurve"/>
      <point x="94" y="671" type="line"/>
      <point x="98" y="769"/>
      <point x="217" y="914"/>
      <point x="319" y="953" type="qcurve" smooth="yes" name="inserted"/>
      <point x="370" y="973" name="inserted"/>
      <point x="479" y="991"/>
      <point x="536" y="990" type="qcurve" smooth="yes"/>
      <point x="647" y="987"/>
      <point x="814" y="900"/>
      <point x="855" y="822" type="qcurve" smooth="yes" name="inserted"/>
      <point x="876" y="783" name="inserted"/>
      <point x="891" y="693"/>
      <point x="887" y="642" type="qcurve"/>
      <point x="814" y="184" type="line"/>
      <point x="809" y="128" type="line" smooth="yes"/>
      <point x="807" y="95" name="inserted"/>
      <point x="816" y="38"/>
      <point x="826" y="15" type="qcurve"/>
      <point x="825" y="-2" type="line"/>
    </contour>
    <contour>
      <point x="368" y="194" type="qcurve" smooth="yes"/>
      <point x="414" y="192" name="inserted"/>
      <point x="493" y="232"/>
      <point x="527" y="274" type="qcurve"/>
      <point x="557" y="431" type="line"/>
      <point x="481" y="432" type="line" smooth="yes"/>
      <point x="410" y="430"/>
      <point x="307" y="350"/>
      <point x="298" y="281" type="qcurve" smooth="yes"/>
      <point x="293" y="244"/>
      <point x="330" y="196"/>
    </contour>
  </outline>
</glyph>
<glyph name="b" format="1">
  <advance width="1015"/>
  <unicode hex="0062"/>
  <outline>
    <contour>
      <point x="950" y="483" type="line" smooth="yes"/>
      <point x="922" y="246"/>
      <point x="698" y="-26"/>
      <point x="517" y="-21" type="qcurve" smooth="yes"/>
      <point x="445" y="-19" name="inserted"/>
      <point x="334" y="41"/>
      <point x="295" y="100" type="qcurve"/>
      <point x="258" y="-2" type="line"/>
      <point x="-10" y="-2" type="line"/>
      <point x="230" y="1380" type="line"/>
      <point x="527" y="1380" type="line"/>
      <point x="430" y="892" type="line"/>
      <point x="479" y="942" name="inserted"/>
      <point x="589" y="991"/>
      <point x="649" y="990" type="qcurve" smooth="yes"/>
      <point x="792" y="988"/>
      <point x="952" y="787"/>
      <point x="957" y="614" type="qcurve" smooth="yes"/>
      <point x="957" y="586" name="inserted"/>
      <point x="955" y="529"/>
      <point x="952" y="502" type="qcurve" smooth="yes"/>
    </contour>
    <contour>
      <point x="655" y="501" type="line" smooth="yes"/>
      <point x="659" y="528" name="inserted"/>
      <point x="663" y="581"/>
      <point x="663" y="605" type="qcurve" smooth="yes"/>
      <point x="663" y="678" name="inserted"/>
      <point x="612" y="753"/>
      <point x="560" y="757" type="qcurve" smooth="yes"/>
      <point x="514" y="758" name="inserted"/>
      <point x="437" y="719"/>
      <point x="406" y="678" type="qcurve"/>
      <point x="336" y="289" type="line"/>
      <point x="350" y="252" name="inserted"/>
      <point x="411" y="214"/>
      <point x="458" y="213" type="qcurve" smooth="yes"/>
      <point x="531" y="211" name="inserted"/>
      <point x="622" y="305"/>
      <point x="641" y="402" type="qcurve" smooth="yes"/>
      <point x="653" y="482" type="line"/>
    </contour>
  </outline>
</glyph>
<glyph name="c" format="1">
  <advance width="938"/>
  <unicode hex="0063"/>
  <outline>
    <contour>
      <point x="439" y="213" type="qcurve" smooth="yes"/>
      <point x="503" y="211"/>
      <point x="575" y="286"/>
      <point x="585" y="345" type="qcurve"/>
      <point x="862" y="346" type="line"/>
      <point x="857" y="239"/>
      <point x="741" y="70"/>
      <point x="642" y="24" type="qcurve" smooth="yes" name="inserted"/>
      <point x="593" y="0" name="inserted"/>
      <point x="487" y="-21"/>
      <point x="431" y="-20" type="qcurve" smooth="yes"/>
      <point x="237" y="-16"/>
      <point x="26" y="256"/>
      <point x="46" y="472" type="qcurve" smooth="yes"/>
      <point x="49" y="494" type="line" smooth="yes"/>
      <point x="65" y="641"/>
      <point x="198" y="869"/>
      <point x="306" y="931" type="qcurve" smooth="yes" name="inserted"/>
      <point x="361" y="962" name="inserted"/>
      <point x="482" y="992"/>
      <point x="549" y="990" type="qcurve" smooth="yes"/>
      <point x="719" y="986"/>
      <point x="916" y="776"/>
      <point x="913" y="598" type="qcurve"/>
      <point x="635" y="599" type="line"/>
      <point x="638" y="677" name="inserted"/>
      <point x="582" y="755"/>
      <point x="525" y="757" type="qcurve" smooth="yes"/>
      <point x="446" y="759" name="inserted"/>
      <point x="356" y="628"/>
      <point x="345" y="493" type="qcurve" smooth="yes"/>
      <point x="337" y="401" type="line"/>
      <point x="336" y="367" type="line"/>
      <point x="336" y="291" name="inserted"/>
      <point x="387" y="214"/>
    </contour>
  </outline>
</glyph>
<glyph name="d" format="1">
  <advance width="1014"/>
  <unicode hex="0064"/>
  <outline>
    <contour>
      <point x="37" y="487" type="line" smooth="yes"/>
      <point x="65" y="717"/>
      <point x="290" y="994"/>
      <point x="471" y="990" type="qcurve" smooth="yes"/>
      <point x="533" y="988" name="inserted"/>
      <point x="636" y="936"/>
      <point x="677" y="885" type="qcurve"/>
      <point x="771" y="1380" type="line"/>
      <point x="1068" y="1380" type="line"/>
      <point x="829" y="-2" type="line"/>
      <point x="565" y="-2" type="line"/>
      <point x="578" y="103" type="line"/>
      <point x="523" y="39" name="inserted"/>
      <point x="402" y="-23"/>
      <point x="336" y="-21" type="qcurve" smooth="yes"/>
      <point x="195" y="-19"/>
      <point x="36" y="185"/>
      <point x="31" y="357" type="qcurve" smooth="yes"/>
      <point x="30" y="385" name="inserted"/>
      <point x="31" y="441"/>
      <point x="34" y="468" type="qcurve" smooth="yes"/>
    </contour>
    <contour>
      <point x="332" y="467" type="qcurve" smooth="yes"/>
      <point x="329" y="438" name="inserted"/>
      <point x="325" y="388"/>
      <point x="326" y="366" type="qcurve" smooth="yes"/>
      <point x="326" y="291" name="inserted"/>
      <point x="376" y="215"/>
      <point x="427" y="214" type="qcurve" smooth="yes"/>
      <point x="470" y="213" name="inserted"/>
      <point x="548" y="254"/>
      <point x="582" y="298" type="qcurve"/>
      <point x="649" y="671" type="line"/>
      <point x="634" y="712" name="inserted"/>
      <point x="575" y="755"/>
      <point x="530" y="757" type="qcurve" smooth="yes"/>
      <point x="447" y="758"/>
      <point x="346" y="612"/>
    </contour>
  </outline>
</glyph>
<glyph name="e" format="1">
  <advance width="983"/>
  <unicode hex="0065"/>
  <outline>
    <contour>
      <point x="473" y="-20" type="line" smooth="yes"/>
      <point x="342" y="-19"/>
      <point x="138" y="102"/>
      <point x="86" y="211" type="qcurve" smooth="yes" name="inserted"/>
      <point x="59" y="265" name="inserted"/>
      <point x="39" y="385"/>
      <point x="44" y="450" type="qcurve" smooth="yes"/>
      <point x="47" y="475" type="line" smooth="yes"/>
      <point x="71" y="715"/>
      <point x="356" y="995"/>
      <point x="563" y="990" type="qcurve" smooth="yes"/>
      <point x="689" y="988"/>
      <point x="867" y="865"/>
      <point x="908" y="756" type="qcurve" smooth="yes" name="inserted"/>
      <point x="929" y="702" name="inserted"/>
      <point x="942" y="580"/>
      <point x="935" y="513" type="qcurve" smooth="yes"/>
      <point x="918" y="390" type="line"/>
      <point x="338" y="390" type="line"/>
      <point x="340" y="313"/>
      <point x="423" y="218"/>
      <point x="502" y="215" type="qcurve" smooth="yes"/>
      <point x="567" y="213" name="inserted"/>
      <point x="682" y="263"/>
      <point x="734" y="314" type="qcurve"/>
      <point x="858" y="149" type="line"/>
      <point x="803" y="71"/>
      <point x="606" y="-18"/>
      <point x="489" y="-20" type="qcurve" smooth="yes"/>
    </contour>
    <contour>
      <point x="545" y="757" type="qcurve" smooth="yes"/>
      <point x="482" y="759"/>
      <point x="389" y="676"/>
      <point x="355" y="579" type="qcurve"/>
      <point x="651" y="579" type="line"/>
      <point x="656" y="605" type="line" smooth="yes"/>
      <point x="659" y="620" name="inserted"/>
      <point x="660" y="650"/>
      <point x="658" y="664" type="qcurve" smooth="yes"/>
      <point x="650" y="709" name="inserted"/>
      <point x="594" y="755"/>
    </contour>
  </outline>
</glyph>
<glyph name="f" format="1">
  <advance width="657.0"/>
  <unicode hex="0066"/>
  <outline>
    <contour>
      <point x="53" y="0" type="line"/>
      <point x="185" y="763" type="line"/>
      <point x="49" y="763" type="line"/>
      <point x="85" y="974" type="line"/>
      <point x="221" y="975" type="line"/>
      <point x="233" y="1060" type="line" smooth="yes"/>
      <point x="244" y="1138" name="inserted"/>
      <point x="306" y="1262"/>
      <point x="357" y="1308" type="qcurve" smooth="yes"/>
      <point x="412" y="1356" name="inserted"/>
      <point x="554" y="1404"/>
      <point x="641" y="1403" type="qcurve" smooth="yes"/>
      <point x="663" y="1403" name="inserted"/>
      <point x="737" y="1393"/>
      <point x="788" y="1383" type="qcurve"/>
      <point x="765" y="1159" type="line"/>
      <point x="744" y="1165" name="inserted"/>
      <point x="709" y="1170"/>
      <point x="695" y="1170" type="qcurve" smooth="yes"/>
      <point x="629" y="1170"/>
      <point x="544" y="1110"/>
      <point x="532" y="1053" type="qcurve" smooth="yes"/>
      <point x="518" y="974" type="line"/>
      <point x="703" y="974" type="line"/>
      <point x="667" y="763" type="line"/>
      <point x="482" y="763" type="line"/>
      <point x="350" y="0" type="line"/>
    </contour>
  </outline>
</glyph>
<glyph name="g" format="1">
  <advance width="1038"/>
  <unicode hex="0067"/>
  <outline>
    <contour>
      <point x="39" y="446" type="qcurve" smooth="yes"/>
      <point x="56" y="593"/>
      <point x="183" y="830"/>
      <point x="278" y="891" type="qcurve" smooth="yes" name="inserted"/>
      <point x="326" y="921" name="inserted"/>
      <point x="434" y="951"/>
      <point x="494" y="950" type="qcurve" smooth="yes"/>
      <point x="567" y="948" name="inserted"/>
      <point x="678" y="896"/>
      <point x="716" y="845" type="qcurve"/>
      <point x="747" y="932" type="line"/>
      <point x="1021" y="931" type="line"/>
      <point x="861" y="-5" type="line" smooth="yes"/>
      <point x="834" y="-203"/>
      <point x="541" y="-431"/>
      <point x="322" y="-426" type="qcurve" smooth="yes"/>
      <point x="225" y="-424"/>
      <point x="43" y="-350"/>
      <point x="-22" y="-276" type="qcurve"/>
      <point x="119" y="-101" type="line"/>
      <point x="158" y="-151" name="inserted"/>
      <point x="260" y="-201"/>
      <point x="322" y="-203" type="qcurve" smooth="yes"/>
      <point x="421" y="-205" name="inserted"/>
      <point x="546" y="-100"/>
      <point x="572" y="7" type="qcurve" smooth="yes"/>
      <point x="580" y="37" type="line"/>
      <point x="529" y="-13" name="inserted"/>
      <point x="418" y="-62"/>
      <point x="357" y="-61" type="qcurve" smooth="yes"/>
      <point x="264" y="-60"/>
      <point x="122" y="33"/>
      <point x="81" y="120" type="qcurve" smooth="yes" name="inserted"/>
      <point x="61" y="164" name="inserted"/>
      <point x="38" y="261"/>
      <point x="35" y="315" type="qcurve" smooth="yes"/>
      <point x="33" y="342" name="inserted"/>
      <point x="35" y="407"/>
    </contour>
    <contour>
      <point x="331" y="350" type="qcurve" smooth="yes"/>
      <point x="331" y="267"/>
      <point x="391" y="175"/>
      <point x="447" y="173" type="qcurve" smooth="yes"/>
      <point x="489" y="172" name="inserted"/>
      <point x="565" y="204"/>
      <point x="599" y="238" type="qcurve"/>
      <point x="676" y="651" type="line"/>
      <point x="658" y="683" name="inserted"/>
      <point x="598" y="715"/>
      <point x="555" y="716" type="qcurve" smooth="yes"/>
      <point x="469" y="718"/>
      <point x="352" y="568"/>
      <point x="337" y="445" type="qcurve" smooth="yes"/>
      <point x="334" y="417" name="inserted"/>
      <point x="331" y="369"/>
    </contour>
  </outline>
</glyph>
<glyph name="h" format="1">
  <advance width="1018"/>
  <unicode hex="0068"/>
  <outline>
    <contour>
      <point x="417" y="868" type="line"/>
      <point x="471" y="931" name="inserted"/>
      <point x="597" y="994"/>
      <point x="668" y="993" type="qcurve" smooth="yes"/>
      <point x="815" y="989"/>
      <point x="956" y="782"/>
      <point x="936" y="605" type="qcurve"/>
      <point x="835" y="0" type="line"/>
      <point x="539" y="0" type="line"/>
      <point x="641" y="608" type="line" smooth="yes"/>
      <point x="643" y="624" name="inserted"/>
      <point x="644" y="653"/>
      <point x="643" y="666" type="qcurve" smooth="yes"/>
      <point x="639" y="711" name="inserted"/>
      <point x="590" y="756"/>
      <point x="544" y="758" type="qcurve" smooth="yes"/>
      <point x="504" y="759" name="inserted"/>
      <point x="432" y="729"/>
      <point x="401" y="699" type="qcurve"/>
      <point x="277" y="0" type="line"/>
      <point x="-19" y="0" type="line"/>
      <point x="221" y="1382" type="line"/>
      <point x="518" y="1382" type="line"/>
    </contour>
  </outline>
</glyph>
<glyph name="i" format="1">
  <advance width="500"/>
  <unicode hex="0069"/>
  <outline>
    <contour>
      <point x="301" y="0" type="line"/>
      <point x="4" y="0" type="line"/>
      <point x="173" y="974" type="line"/>
      <point x="470" y="974" type="line"/>
    </contour>
    <contour>
      <point x="199" y="1220" type="qcurve" smooth="yes"/>
      <point x="197" y="1285"/>
      <point x="293" y="1373"/>
      <point x="362" y="1373" type="qcurve" smooth="yes"/>
      <point x="431" y="1373"/>
      <point x="524" y="1294"/>
      <point x="526" y="1230" type="qcurve" smooth="yes"/>
      <point x="527" y="1164"/>
      <point x="432" y="1076"/>
      <point x="363" y="1076" type="qcurve" smooth="yes"/>
      <point x="295" y="1076"/>
      <point x="201" y="1155"/>
    </contour>
  </outline>
</glyph>
<glyph name="j" format="1">
  <advance width="491"/>
  <unicode hex="006A"/>
  <outline>
    <contour>
      <point x="475" y="930" type="line"/>
      <point x="305" y="-75" type="line" smooth="yes"/>
      <point x="284" y="-248"/>
      <point x="64" y="-442"/>
      <point x="-105" y="-440" type="qcurve" smooth="yes"/>
      <point x="-139" y="-439" name="inserted"/>
      <point x="-213" y="-431"/>
      <point x="-254" y="-423" type="qcurve"/>
      <point x="-230" y="-193" type="line"/>
      <point x="-205" y="-198" name="inserted"/>
      <point x="-164" y="-203"/>
      <point x="-148" y="-203" type="qcurve" smooth="yes"/>
      <point x="-82" y="-204" name="inserted"/>
      <point x="-5" y="-135"/>
      <point x="7" y="-65" type="qcurve" smooth="yes"/>
      <point x="178" y="930" type="line"/>
    </contour>
    <contour>
      <point x="201" y="1175" type="qcurve" smooth="yes"/>
      <point x="199" y="1242"/>
      <point x="296" y="1328"/>
      <point x="364" y="1328" type="qcurve" smooth="yes"/>
      <point x="432" y="1330"/>
      <point x="526" y="1250"/>
      <point x="527" y="1186" type="qcurve" smooth="yes" name="inserted"/>
      <point x="529" y="1122"/>
      <point x="437" y="1034"/>
      <point x="365" y="1032" type="qcurve" smooth="yes"/>
      <point x="296" y="1032"/>
      <point x="203" y="1112"/>
    </contour>
  </outline>
</glyph>
<glyph name="k" format="1">
  <advance width="986"/>
  <unicode hex="006B"/>
  <outline>
    <contour>
      <point x="440" y="359" type="line"/>
      <point x="332" y="266" type="line"/>
      <point x="286" y="0" type="line"/>
      <point x="-10" y="0" type="line"/>
      <point x="230" y="1383" type="line"/>
      <point x="527" y="1383" type="line"/>
      <point x="390" y="645" type="line"/>
      <point x="426" y="689" type="line"/>
      <point x="695" y="974" type="line"/>
      <point x="1070" y="974" type="line"/>
      <point x="656" y="560" type="line"/>
      <point x="907" y="0" type="line"/>
      <point x="582" y="0" type="line"/>
    </contour>
  </outline>
</glyph>
<glyph name="m" format="1">
  <advance width="1549"/>
  <unicode hex="006D"/>
  <outline>
    <contour>
      <point x="435" y="975" type="line"/>
      <point x="415" y="858" type="line"/>
      <point x="473" y="927" name="inserted"/>
      <point x="616" y="994"/>
      <point x="699" y="992" type="qcurve" smooth="yes"/>
      <point x="788" y="990"/>
      <point x="901" y="911"/>
      <point x="920" y="845" type="qcurve"/>
      <point x="984" y="920" name="inserted"/>
      <point x="1132" y="994"/>
      <point x="1216" y="992" type="qcurve" smooth="yes"/>
      <point x="1351" y="989"/>
      <point x="1481" y="792"/>
      <point x="1463" y="613" type="qcurve"/>
      <point x="1362" y="0" type="line"/>
      <point x="1065" y="0" type="line"/>
      <point x="1168" y="614" type="line"/>
      <point x="1172" y="667" type="line"/>
      <point x="1172" y="711" name="inserted"/>
      <point x="1130" y="757"/>
      <point x="1088" y="759" type="qcurve" smooth="yes"/>
      <point x="1049" y="759" name="inserted"/>
      <point x="976" y="719"/>
      <point x="942" y="679" type="qcurve"/>
      <point x="824" y="0" type="line"/>
      <point x="527" y="0" type="line"/>
      <point x="630" y="612" type="line"/>
      <point x="634" y="666" type="line"/>
      <point x="634" y="712" name="inserted"/>
      <point x="592" y="759"/>
      <point x="550" y="759" type="qcurve" smooth="yes"/>
      <point x="512" y="759" name="inserted"/>
      <point x="440" y="719"/>
      <point x="406" y="679" type="qcurve"/>
      <point x="286" y="0" type="line"/>
      <point x="-10" y="0" type="line"/>
      <point x="159" y="974" type="line"/>
    </contour>
  </outline>
</glyph>
<glyph name="n" format="1">
  <advance width="1017.0"/>
  <unicode hex="006E"/>
  <outline>
    <contour>
      <point x="428" y="975" type="line"/>
      <point x="407" y="858" type="line"/>
      <point x="465" y="927" name="inserted"/>
      <point x="606" y="995"/>
      <point x="689" y="993" type="qcurve" smooth="yes"/>
      <point x="824" y="990"/>
      <point x="956" y="795"/>
      <point x="938" y="613" type="qcurve"/>
      <point x="835" y="0" type="line"/>
      <point x="538" y="0" type="line"/>
      <point x="642" y="615" type="line"/>
      <point x="644" y="630" name="inserted"/>
      <point x="644" y="659"/>
      <point x="644" y="672" type="qcurve" smooth="yes"/>
      <point x="640" y="715" name="inserted"/>
      <point x="590" y="758"/>
      <point x="543" y="758" type="qcurve" smooth="yes"/>
      <point x="504" y="759" name="inserted"/>
      <point x="432" y="724"/>
      <point x="400" y="689" type="qcurve"/>
      <point x="278" y="0" type="line"/>
      <point x="-18" y="0" type="line"/>
      <point x="151" y="974" type="line"/>
    </contour>
  </outline>
</glyph>
<glyph name="o" format="1">
  <advance width="1013"/>
  <unicode hex="006F"/>
  <outline>
    <contour>
      <point x="556" y="990" type="qcurve" smooth="yes"/>
      <point x="687" y="988"/>
      <point x="878" y="861"/>
      <point x="922" y="748" type="qcurve" smooth="yes" name="inserted"/>
      <point x="944" y="691" name="inserted"/>
      <point x="960" y="565"/>
      <point x="954" y="496" type="qcurve" smooth="yes"/>
      <point x="952" y="476" type="line" smooth="yes"/>
      <point x="927" y="252"/>
      <point x="644" y="-24"/>
      <point x="437" y="-20" type="qcurve" smooth="yes"/>
      <point x="307" y="-18"/>
      <point x="118" y="107"/>
      <point x="72" y="219" type="qcurve" smooth="yes" name="inserted"/>
      <point x="50" y="276" name="inserted"/>
      <point x="33" y="401"/>
      <point x="40" y="470" type="qcurve" smooth="yes"/>
      <point x="62" y="709"/>
      <point x="346" y="993"/>
    </contour>
    <contour>
      <point x="336" y="470" type="qcurve" smooth="yes"/>
      <point x="333" y="416" type="line" smooth="yes"/>
      <point x="327" y="316" name="inserted"/>
      <point x="388" y="214"/>
      <point x="455" y="212" type="qcurve" smooth="yes"/>
      <point x="543" y="209" name="inserted"/>
      <point x="644" y="351"/>
      <point x="658" y="496" type="qcurve"/>
      <point x="662" y="578" type="line" smooth="yes"/>
      <point x="663" y="659"/>
      <point x="599" y="755"/>
      <point x="537" y="757" type="qcurve" smooth="yes"/>
      <point x="455" y="759"/>
      <point x="350" y="620"/>
    </contour>
  </outline>
</glyph>
<glyph name="p" format="1">
  <advance width="1015"/>
  <unicode hex="0070"/>
  <outline>
    <contour>
      <point x="950" y="444" type="qcurve" smooth="yes"/>
      <point x="932" y="291"/>
      <point x="809" y="53"/>
      <point x="719" y="-5" type="qcurve" smooth="yes" name="inserted"/>
      <point x="673" y="-34" name="inserted"/>
      <point x="572" y="-62"/>
      <point x="517" y="-60" type="qcurve" smooth="yes"/>
      <point x="453" y="-59" name="inserted"/>
      <point x="349" y="-8"/>
      <point x="310" y="40" type="qcurve"/>
      <point x="221" y="-416" type="line"/>
      <point x="-75" y="-416" type="line"/>
      <point x="159" y="932" type="line"/>
      <point x="433" y="933" type="line"/>
      <point x="418" y="840" type="line"/>
      <point x="467" y="897" name="inserted"/>
      <point x="582" y="952"/>
      <point x="649" y="950" type="qcurve" smooth="yes"/>
      <point x="791" y="948"/>
      <point x="950" y="749"/>
      <point x="956" y="576" type="qcurve" smooth="yes"/>
      <point x="957" y="548" name="inserted"/>
      <point x="954" y="482"/>
    </contour>
    <contour>
      <point x="662" y="565" type="qcurve" smooth="yes"/>
      <point x="660" y="639" name="inserted"/>
      <point x="610" y="715"/>
      <point x="562" y="716" type="qcurve" smooth="yes"/>
      <point x="515" y="719" name="inserted"/>
      <point x="437" y="681"/>
      <point x="406" y="640" type="qcurve"/>
      <point x="337" y="254" type="line"/>
      <point x="351" y="214" name="inserted"/>
      <point x="413" y="174"/>
      <point x="461" y="174" type="qcurve" smooth="yes"/>
      <point x="540" y="172" name="inserted"/>
      <point x="636" y="308"/>
      <point x="654" y="444" type="qcurve" smooth="yes"/>
      <point x="658" y="488" name="inserted"/>
      <point x="662" y="548"/>
    </contour>
  </outline>
</glyph>
<glyph name="q" format="1">
  <advance width="1013"/>
  <unicode hex="0071"/>
  <outline>
    <contour>
      <point x="37" y="450" type="qcurve" smooth="yes"/>
      <point x="55" y="599"/>
      <point x="174" y="838"/>
      <point x="264" y="895" type="qcurve" smooth="yes" name="inserted"/>
      <point x="309" y="924" name="inserted"/>
      <point x="412" y="952"/>
      <point x="470" y="950" type="qcurve" smooth="yes"/>
      <point x="543" y="948" name="inserted"/>
      <point x="653" y="886"/>
      <point x="691" y="826" type="qcurve"/>
      <point x="737" y="933" type="line"/>
      <point x="997" y="932" type="line"/>
      <point x="763" y="-416" type="line"/>
      <point x="466" y="-416" type="line"/>
      <point x="557" y="41" type="line"/>
      <point x="508" y="-11" name="inserted"/>
      <point x="397" y="-61"/>
      <point x="335" y="-60" type="qcurve" smooth="yes"/>
      <point x="197" y="-58"/>
      <point x="37" y="146"/>
      <point x="32" y="320" type="qcurve" smooth="yes"/>
      <point x="31" y="346" name="inserted"/>
      <point x="33" y="411"/>
    </contour>
    <contour>
      <point x="327" y="356" type="line" smooth="yes"/>
      <point x="320" y="276"/>
      <point x="371" y="176"/>
      <point x="427" y="174" type="qcurve" smooth="yes"/>
      <point x="472" y="173" name="inserted"/>
      <point x="549" y="212"/>
      <point x="581" y="253" type="qcurve"/>
      <point x="651" y="641" type="line"/>
      <point x="637" y="678" name="inserted"/>
      <point x="577" y="716"/>
      <point x="531" y="718" type="qcurve" smooth="yes"/>
      <point x="450" y="719" name="inserted"/>
      <point x="351" y="585"/>
      <point x="334" y="450" type="qcurve" smooth="yes"/>
    </contour>
  </outline>
</glyph>
<glyph name="s" format="1">
  <advance width="925"/>
  <unicode hex="0073"/>
  <outline>
    <contour>
      <point x="537" y="277" type="qcurve" smooth="yes"/>
      <point x="543" y="307" name="inserted"/>
      <point x="497" y="351"/>
      <point x="446" y="366" type="qcurve" smooth="yes"/>
      <point x="382" y="382" type="line" smooth="yes"/>
      <point x="225" y="424"/>
      <point x="79" y="573"/>
      <point x="84" y="676" type="qcurve" smooth="yes"/>
      <point x="88" y="816"/>
      <point x="329" y="992"/>
      <point x="501" y="990" type="qcurve" smooth="yes"/>
      <point x="673" y="988"/>
      <point x="887" y="817"/>
      <point x="888" y="672" type="qcurve"/>
      <point x="593" y="673" type="line"/>
      <point x="595" y="731" name="inserted"/>
      <point x="544" y="788"/>
      <point x="491" y="788" type="qcurve" smooth="yes"/>
      <point x="446" y="788"/>
      <point x="369" y="735"/>
      <point x="362" y="691" type="qcurve" smooth="yes"/>
      <point x="354" y="655" name="inserted"/>
      <point x="419" y="605"/>
      <point x="491" y="591" type="qcurve" smooth="yes"/>
      <point x="616" y="561"/>
      <point x="752" y="483"/>
      <point x="788" y="425" type="qcurve" smooth="yes" name="inserted"/>
      <point x="806" y="397" name="inserted"/>
      <point x="823" y="327"/>
      <point x="822" y="287" type="qcurve" smooth="yes"/>
      <point x="819" y="199"/>
      <point x="709" y="60"/>
      <point x="605" y="19" type="qcurve" smooth="yes" name="inserted"/>
      <point x="553" y="-2" name="inserted"/>
      <point x="441" y="-21"/>
      <point x="380" y="-20" type="qcurve" smooth="yes"/>
      <point x="275" y="-19"/>
      <point x="94" y="67"/>
      <point x="43" y="142" type="qcurve" smooth="yes" name="inserted"/>
      <point x="17" y="179" name="inserted"/>
      <point x="-9" y="264"/>
      <point x="-10" y="312" type="qcurve"/>
      <point x="266" y="310" type="line"/>
      <point x="266" y="245" name="inserted"/>
      <point x="331" y="182"/>
      <point x="395" y="182" type="qcurve" smooth="yes"/>
      <point x="450" y="182"/>
      <point x="527" y="232"/>
    </contour>
  </outline>
</glyph>
<glyph name="t" format="1">
  <advance width="623"/>
  <unicode hex="0074"/>
  <outline>
    <contour>
      <point x="544" y="1214" type="line"/>
      <point x="501" y="972" type="line"/>
      <point x="657" y="972" type="line"/>
      <point x="620" y="761" type="line"/>
      <point x="464" y="761" type="line"/>
      <point x="389" y="314" type="line" smooth="yes"/>
      <point x="383" y="268"/>
      <point x="407" y="221"/>
      <point x="455" y="220" type="qcurve" smooth="yes"/>
      <point x="465" y="219" name="inserted"/>
      <point x="504" y="221"/>
      <point x="533" y="224" type="qcurve"/>
      <point x="511" y="4" type="line"/>
      <point x="474" y="-8" name="inserted"/>
      <point x="394" y="-19"/>
      <point x="352" y="-18" type="qcurve" smooth="yes"/>
      <point x="214" y="-16"/>
      <point x="77" y="142"/>
      <point x="90" y="278" type="qcurve"/>
      <point x="169" y="761" type="line"/>
      <point x="49" y="761" type="line"/>
      <point x="85" y="972" type="line"/>
      <point x="205" y="972" type="line"/>
      <point x="248" y="1214" type="line"/>
    </contour>
  </outline>
</glyph>
<glyph name="u" format="1">
  <advance width="1017.0"/>
  <unicode hex="0075"/>
  <outline>
    <contour>
      <point x="590" y="104" type="line"/>
      <point x="536" y="40" name="inserted"/>
      <point x="405" y="-23"/>
      <point x="328" y="-21" type="qcurve" smooth="yes"/>
      <point x="185" y="-19"/>
      <point x="40" y="177"/>
      <point x="56" y="342" type="qcurve"/>
      <point x="161" y="972" type="line"/>
      <point x="457" y="972" type="line"/>
      <point x="350" y="338" type="line"/>
      <point x="349" y="325" name="inserted"/>
      <point x="349" y="301"/>
      <point x="350" y="290" type="qcurve" smooth="yes"/>
      <point x="353" y="253" name="inserted"/>
      <point x="397" y="215"/>
      <point x="437" y="214" type="qcurve" smooth="yes"/>
      <point x="484" y="212" name="inserted"/>
      <point x="564" y="249"/>
      <point x="597" y="288" type="qcurve"/>
      <point x="717" y="972" type="line"/>
      <point x="1015" y="972" type="line"/>
      <point x="846" y="-2" type="line"/>
      <point x="571" y="-2" type="line"/>
    </contour>
  </outline>
</glyph>
<glyph name="v" format="1">
  <advance width="932"/>
  <unicode hex="0076"/>
  <outline>
    <contour>
      <point x="428" y="365" type="line"/>
      <point x="672" y="974" type="line"/>
      <point x="992" y="974" type="line"/>
      <point x="531" y="0" type="line"/>
      <point x="230" y="0" type="line"/>
      <point x="74" y="974" type="line"/>
      <point x="378" y="974" type="line"/>
    </contour>
  </outline>
</glyph>
<glyph name="w" format="1">
  <advance width="1307"/>
  <unicode hex="0077"/>
  <outline>
    <contour>
      <point x="870" y="401" type="line"/>
      <point x="1066" y="974" type="line"/>
      <point x="1355" y="974" type="line"/>
      <point x="964" y="0" type="line"/>
      <point x="715" y="0" type="line"/>
      <point x="659" y="574" type="line"/>
      <point x="402" y="0" type="line"/>
      <point x="151" y="0" type="line"/>
      <point x="97" y="974" type="line"/>
      <point x="375" y="974" type="line"/>
      <point x="366" y="394" type="line"/>
      <point x="616" y="974" type="line"/>
      <point x="822" y="974" type="line"/>
    </contour>
  </outline>
</glyph>
<glyph name="x" format="1">
  <advance width="929"/>
  <unicode hex="0078"/>
  <outline>
    <contour>
      <point x="484" y="707" type="line"/>
      <point x="663" y="974" type="line"/>
      <point x="984" y="974" type="line"/>
      <point x="652" y="486" type="line"/>
      <point x="830" y="0" type="line"/>
      <point x="535" y="0" type="line"/>
      <point x="432" y="286" type="line"/>
      <point x="242" y="0" type="line"/>
      <point x="-82" y="0" type="line"/>
      <point x="267" y="513" type="line"/>
      <point x="97" y="974" type="line"/>
      <point x="395" y="974" type="line"/>
    </contour>
  </outline>
</glyph>
<glyph name="y" format="1">
  <advance width="935"/>
  <unicode hex="0079"/>
  <outline>
    <contour>
      <point x="436" y="384" type="line"/>
      <point x="688" y="930" type="line"/>
      <point x="1014" y="930" type="line"/>
      <point x="444" y="-190" type="line" smooth="yes"/>
      <point x="380" y="-322"/>
      <point x="213" y="-440"/>
      <point x="98" y="-440" type="qcurve" smooth="yes"/>
      <point x="72" y="-440" name="inserted"/>
      <point x="7" y="-430"/>
      <point x="-32" y="-420" type="qcurve"/>
      <point x="-10" y="-203" type="line"/>
      <point x="24" y="-203" type="line" smooth="yes"/>
      <point x="79" y="-203"/>
      <point x="162" y="-168"/>
      <point x="190" y="-118" type="qcurve" smooth="yes"/>
      <point x="232" y="-37" type="line"/>
      <point x="77" y="930" type="line"/>
      <point x="383" y="930" type="line"/>
    </contour>
  </outline>
</glyph>
<glyph name="z" format="1">
  <advance width="929"/>
  <unicode hex="007A"/>
  <outline>
    <contour>
      <point x="382" y="236" type="line"/>
      <point x="808" y="234" type="line"/>
      <point x="768" y="0" type="line"/>
      <point x="-37" y="0" type="line"/>
      <point x="-5" y="182" type="line"/>
      <point x="507" y="738" type="line"/>
      <point x="110" y="740" type="line"/>
      <point x="150" y="974" type="line"/>
      <point x="927" y="974" type="line"/>
      <point x="896" y="797" type="line"/>
    </contour>
  </outline>
</glyph>
<glyph name="braceleft" format="1">
  <advance width="858"/>
  <unicode hex="007B"/>
  <outline>
    <contour>
      <point x="636" y="-324" type="line"/>
      <point x="460" y="-275"/>
      <point x="312" y="-59"/>
      <point x="312" y="95" type="qcurve"/>
      <point x="312" y="278" type="line"/>
      <point x="312" y="361"/>
      <point x="240" y="454"/>
      <point x="166" y="454" type="qcurve"/>
      <point x="166" y="659" type="line"/>
      <point x="240" y="659"/>
      <point x="312" y="751"/>
      <point x="312" y="836" type="qcurve"/>
      <point x="312" y="1019" type="line"/>
      <point x="312" y="1173"/>
      <point x="460" y="1388"/>
      <point x="636" y="1437" type="qcurve"/>
      <point x="692" y="1279" type="line"/>
      <point x="627" y="1253"/>
      <point x="575" y="1120"/>
      <point x="575" y="1019" type="qcurve"/>
      <point x="575" y="836" type="line"/>
      <point x="575" y="742"/>
      <point x="492" y="598"/>
      <point x="408" y="557" type="qcurve"/>
      <point x="492" y="515"/>
      <point x="575" y="370"/>
      <point x="575" y="278" type="qcurve"/>
      <point x="575" y="95" type="line"/>
      <point x="575" y="-5"/>
      <point x="627" y="-139"/>
      <point x="692" y="-165" type="qcurve"/>
    </contour>
  </outline>
</glyph>
<glyph name="divide" format="1">
  <advance width="1049"/>
  <unicode hex="00F7"/>
  <outline>
    <contour>
      <point x="993" y="523" type="line"/>
      <point x="53" y="523" type="line"/>
      <point x="53" y="742" type="line"/>
      <point x="993" y="742" type="line"/>
    </contour>
    <contour>
      <point x="677" y="881" type="line"/>
      <point x="372" y="881" type="line"/>
      <point x="372" y="1101" type="line"/>
      <point x="677" y="1101" type="line"/>
    </contour>
    <contour>
      <point x="677" y="158" type="line"/>
      <point x="372" y="158" type="line"/>
      <point x="372" y="379" type="line"/>
      <point x="677" y="379" type="line"/>
    </contour>
  </outline>
</glyph>
<glyph name="uni02BC" format="1">
  <advance width="640"/>
  <unicode hex="02BC"/>
  <outline>
    <contour>
      <point x="779" y="1466" type="line"/>
      <point x="541" y="1008" type="line"/>
      <point x="313" y="1008" type="line"/>
      <point x="490" y="1497" type="line"/>
      <point x="769" y="1497" type="line"/>
    </contour>
  </outline>
</glyph>
<glyph name="invertedcandrabindu" format="1">
  <advance width="0"/>
  <unicode hex="0900"/>
  <outline>
    <component base="candrabindudeva" xScale="-1" yScale="-1" xOffset="-907" yOffset="3294"/>
    <contour>
      <point x="-149" y="1279" type="move" name="_top"/>
    </contour>
  </outline>
</glyph>
<glyph name="anusvaradeva" format="1">
  <advance width="0"/>
  <unicode hex="0902"/>
  <outline>
    <contour>
      <point x="44" y="1440" type="line"/>
      <point x="-219" y="1440" type="line"/>
      <point x="-176" y="1686" type="line"/>
      <point x="87" y="1686" type="line"/>
    </contour>
    <contour>
      <point x="-250" y="1287" type="move" name="_top"/>
    </contour>
  </outline>
</glyph>
<glyph name="adeva" format="1">
  <advance width="1500"/>
  <unicode hex="0905"/>
  <outline>
    <contour>
      <point x="297" y="573" type="qcurve"/>
      <point x="338" y="807" type="line"/>
      <point x="500" y="807"/>
      <point x="644" y="902"/>
      <point x="655" y="965" type="qcurve" smooth="yes"/>
      <point x="663" y="1010"/>
      <point x="611" y="1077"/>
      <point x="558" y="1077" type="qcurve" smooth="yes"/>
      <point x="512" y="1077"/>
      <point x="410" y="1044"/>
      <point x="346" y="1019" type="qcurve"/>
      <point x="341" y="1239" type="line"/>
      <point x="415" y="1274"/>
      <point x="556" y="1307"/>
      <point x="660" y="1307" type="qcurve" smooth="yes"/>
      <point x="816" y="1307"/>
      <point x="983" y="1130"/>
      <point x="959" y="987" type="qcurve" smooth="yes"/>
      <point x="928" y="803"/>
      <point x="584" y="573"/>
    </contour>
    <contour>
      <point x="562" y="786" type="line"/>
      <point x="708" y="786"/>
      <point x="932" y="612"/>
      <point x="901" y="433" type="qcurve" smooth="yes"/>
      <point x="871" y="251"/>
      <point x="622" y="47"/>
      <point x="459" y="47" type="qcurve" smooth="yes"/>
      <point x="343" y="47"/>
      <point x="173" y="90"/>
      <point x="98" y="137" type="qcurve"/>
      <point x="180" y="366" type="line"/>
      <point x="254" y="332"/>
      <point x="370" y="297"/>
      <point x="436" y="297" type="qcurve" smooth="yes"/>
      <point x="500" y="297"/>
      <point x="593" y="379"/>
      <point x="604" y="445" type="qcurve" smooth="yes"/>
      <point x="614" y="502"/>
      <point x="561" y="585"/>
      <point x="472" y="591" type="qcurve"/>
    </contour>
    <contour>
      <point x="1208" y="1103" type="line"/>
      <point x="1507" y="1103" type="line"/>
      <point x="1320" y="0" type="line"/>
      <point x="1020" y="0" type="line"/>
    </contour>
    <contour>
      <point x="1712" y="1076" type="line"/>
      <point x="1050" y="1076" type="line"/>
      <point x="1086" y="1293" type="line"/>
      <point x="1748" y="1293" type="line"/>
    </contour>
    <contour>
      <point x="706" y="697" type="line"/>
      <point x="1174" y="697" type="line"/>
      <point x="1134" y="461" type="line"/>
      <point x="693" y="461" type="line"/>
    </contour>
  </outline>
</glyph>
<glyph name="ideva" format="1">
  <advance width="1088"/>
  <unicode hex="0907"/>
  <outline>
    <contour>
      <point x="1300" y="1076" type="line"/>
      <point x="153" y="1076" type="line"/>
      <point x="189" y="1293" type="line"/>
      <point x="1337" y="1293" type="line"/>
    </contour>
    <contour>
      <point x="545" y="-262" type="line"/>
      <point x="350" y="57" type="line"/>
      <point x="479" y="-1" type="line"/>
      <point x="387" y="-1" type="line" smooth="yes"/>
      <point x="263" y="-1"/>
      <point x="128" y="86"/>
      <point x="141" y="163" type="qcurve" smooth="yes"/>
      <point x="152" y="229"/>
      <point x="258" y="325"/>
      <point x="343" y="325" type="qcurve" smooth="yes"/>
      <point x="431" y="325"/>
      <point x="569" y="229"/>
      <point x="621" y="167" type="qcurve"/>
      <point x="613" y="125" type="line"/>
      <point x="788" y="-154" type="line"/>
    </contour>
    <contour>
      <point x="615" y="961" type="qcurve" smooth="yes"/>
      <point x="826" y="961" type="line"/>
      <point x="768" y="909" type="line"/>
      <point x="800" y="1095" type="line"/>
      <point x="1093" y="1095" type="line"/>
      <point x="1033" y="742" type="line"/>
      <point x="591" y="742" type="line" smooth="yes"/>
      <point x="535" y="742"/>
      <point x="481" y="698"/>
      <point x="476" y="672" type="qcurve" smooth="yes"/>
      <point x="468" y="624"/>
      <point x="540" y="574"/>
      <point x="567" y="566" type="qcurve"/>
      <point x="388" y="566" type="line"/>
      <point x="467" y="613"/>
      <point x="663" y="657"/>
      <point x="752" y="657" type="qcurve" smooth="yes"/>
      <point x="915" y="657"/>
      <point x="1082" y="474"/>
      <point x="1060" y="346" type="qcurve" smooth="yes"/>
      <point x="1034" y="193"/>
      <point x="777" y="13"/>
      <point x="564" y="13" type="qcurve" smooth="yes"/>
      <point x="487" y="13"/>
      <point x="376" y="104"/>
      <point x="309" y="148" type="qcurve"/>
      <point x="364" y="263" type="line"/>
      <point x="416" y="249"/>
      <point x="494" y="233"/>
      <point x="573" y="233" type="qcurve" smooth="yes"/>
      <point x="652" y="233"/>
      <point x="754" y="301"/>
      <point x="760" y="346" type="qcurve" smooth="yes"/>
      <point x="767" y="382"/>
      <point x="730" y="423"/>
      <point x="688" y="425" type="qcurve" smooth="yes"/>
      <point x="623" y="428"/>
      <point x="518" y="399"/>
      <point x="458" y="360" type="qcurve"/>
      <point x="427" y="360" type="line"/>
      <point x="323" y="402"/>
      <point x="180" y="591"/>
      <point x="200" y="710" type="qcurve" smooth="yes"/>
      <point x="218" y="813"/>
      <point x="419" y="961"/>
    </contour>
  </outline>
</glyph>
<glyph name="udeva" format="1">
  <advance width="989"/>
  <unicode hex="0909"/>
  <outline>
    <contour>
      <point x="153" y="1076" type="line"/>
      <point x="189" y="1293" type="line"/>
      <point x="1237" y="1293" type="line"/>
      <point x="1201" y="1076" type="line"/>
    </contour>
    <contour>
      <point x="300" y="561" type="line"/>
      <point x="341" y="795" type="line"/>
      <point x="380" y="795" type="line" smooth="yes"/>
      <point x="550" y="795"/>
      <point x="655" y="881"/>
      <point x="667" y="949" type="qcurve" smooth="yes"/>
      <point x="677" y="1005"/>
      <point x="612" y="1076"/>
      <point x="533" y="1076" type="qcurve" smooth="yes"/>
      <point x="340" y="1076" type="line"/>
      <point x="350" y="1260" type="line"/>
      <point x="599" y="1260" type="line" smooth="yes"/>
      <point x="802" y="1260"/>
      <point x="988" y="1084"/>
      <point x="962" y="931" type="qcurve" smooth="yes"/>
      <point x="938" y="783"/>
      <point x="636" y="561"/>
      <point x="345" y="561" type="qcurve" smooth="yes"/>
    </contour>
    <contour>
      <point x="570" y="804" type="line"/>
      <point x="755" y="804"/>
      <point x="984" y="571"/>
      <point x="955" y="402" type="qcurve" smooth="yes"/>
      <point x="925" y="220"/>
      <point x="657" y="19"/>
      <point x="456" y="19" type="qcurve" smooth="yes"/>
      <point x="340" y="19"/>
      <point x="164" y="61"/>
      <point x="79" y="116" type="qcurve"/>
      <point x="153" y="351" type="line"/>
      <point x="225" y="303"/>
      <point x="361" y="266"/>
      <point x="427" y="266" type="qcurve" smooth="yes"/>
      <point x="529" y="266"/>
      <point x="647" y="349"/>
      <point x="658" y="413" type="qcurve" smooth="yes"/>
      <point x="669" y="478"/>
      <point x="586" y="579"/>
      <point x="474" y="579" type="qcurve"/>
    </contour>
    <contour>
      <point x="632" y="1287" type="move" name="top"/>
    </contour>
  </outline>
</glyph>
<glyph name="uudeva" format="1">
  <advance width="1464"/>
  <unicode hex="090A"/>
  <outline>
    <contour>
      <point x="832" y="1076" type="line"/>
      <point x="869" y="1293" type="line"/>
      <point x="1712" y="1293" type="line"/>
      <point x="1675" y="1076" type="line"/>
    </contour>
    <contour>
      <point x="758" y="749" type="line"/>
      <point x="804" y="781"/>
      <point x="1013" y="842"/>
      <point x="1120" y="842" type="qcurve" smooth="yes"/>
      <point x="1289" y="842"/>
      <point x="1495" y="621"/>
      <point x="1464" y="437" type="qcurve" smooth="yes"/>
      <point x="1449" y="350"/>
      <point x="1366" y="172"/>
      <point x="1281" y="83" type="qcurve"/>
      <point x="1005" y="142" type="line"/>
      <point x="1060" y="204"/>
      <point x="1152" y="359"/>
      <point x="1165" y="437" type="qcurve" smooth="yes"/>
      <point x="1177" y="509"/>
      <point x="1107" y="590"/>
      <point x="1045" y="590" type="qcurve" smooth="yes"/>
      <point x="1003" y="590"/>
      <point x="891" y="545"/>
      <point x="836" y="505" type="qcurve"/>
    </contour>
    <component base="udeva" xOffset="2"/>
    <contour>
      <point x="655" y="1287" type="move" name="top"/>
    </contour>
  </outline>
</glyph>
<glyph name="rvocalicdeva" format="1">
  <advance width="1586"/>
  <unicode hex="090B"/>
  <outline>
    <contour>
      <point x="1157" y="1076" type="line"/>
      <point x="1194" y="1293" type="line"/>
      <point x="1834" y="1293" type="line"/>
      <point x="1798" y="1076" type="line"/>
    </contour>
    <contour>
      <point x="1473" y="746" type="line"/>
      <point x="1531" y="683"/>
      <point x="1590" y="486"/>
      <point x="1573" y="392" type="qcurve" smooth="yes"/>
      <point x="1549" y="248"/>
      <point x="1347" y="103"/>
      <point x="1198" y="103" type="qcurve" smooth="yes"/>
      <point x="1172" y="103"/>
      <point x="1107" y="106"/>
      <point x="1090" y="109" type="qcurve"/>
      <point x="1094" y="315" type="line"/>
      <point x="1116" y="313"/>
      <point x="1136" y="314"/>
      <point x="1165" y="314" type="qcurve" smooth="yes"/>
      <point x="1223" y="314"/>
      <point x="1297" y="371"/>
      <point x="1304" y="416" type="qcurve" smooth="yes"/>
      <point x="1312" y="462"/>
      <point x="1277" y="579"/>
      <point x="1230" y="631" type="qcurve"/>
    </contour>
    <contour>
      <point x="1533" y="667" type="qcurve" smooth="yes"/>
      <point x="1452" y="597"/>
      <point x="1145" y="476"/>
      <point x="922" y="476" type="qcurve"/>
      <point x="987" y="735" type="line"/>
      <point x="1047" y="735"/>
      <point x="1226" y="759"/>
      <point x="1288" y="793" type="qcurve"/>
      <point x="1215" y="719" type="line"/>
      <point x="1201" y="754"/>
      <point x="1186" y="807"/>
      <point x="1193" y="850" type="qcurve" smooth="yes"/>
      <point x="1203" y="907"/>
      <point x="1312" y="980"/>
      <point x="1401" y="980" type="qcurve" smooth="yes"/>
      <point x="1499" y="980"/>
      <point x="1639" y="882"/>
      <point x="1626" y="807" type="qcurve" smooth="yes"/>
      <point x="1618" y="761"/>
      <point x="1571" y="701"/>
    </contour>
    <contour>
      <point x="943" y="455" type="line"/>
      <point x="301" y="79" type="line"/>
      <point x="180" y="313" type="line"/>
      <point x="875" y="692" type="line"/>
    </contour>
    <contour>
      <point x="153" y="1076" type="line"/>
      <point x="189" y="1293" type="line"/>
      <point x="1372" y="1293" type="line"/>
      <point x="1336" y="1076" type="line"/>
    </contour>
    <contour>
      <point x="158" y="874" type="line"/>
      <point x="211" y="903"/>
      <point x="379" y="951"/>
      <point x="473" y="951" type="qcurve" smooth="yes"/>
      <point x="554" y="951"/>
      <point x="689" y="902"/>
      <point x="767" y="855" type="qcurve" smooth="yes"/>
      <point x="919" y="759" type="line"/>
      <point x="871" y="471" type="line"/>
      <point x="684" y="597" type="line" smooth="yes"/>
      <point x="599" y="651"/>
      <point x="500" y="688"/>
      <point x="440" y="688" type="qcurve" smooth="yes"/>
      <point x="377" y="688"/>
      <point x="232" y="649"/>
      <point x="173" y="619" type="qcurve"/>
    </contour>
    <contour>
      <point x="836" y="1135" type="line"/>
      <point x="1136" y="1135" type="line"/>
      <point x="944" y="0" type="line"/>
      <point x="644" y="0" type="line"/>
    </contour>
    <contour>
      <point x="1008" y="1274" type="move" name="mark0"/>
    </contour>
  </outline>
</glyph>
<glyph name="lvocalicdeva" format="1">
  <advance width="1480"/>
  <unicode hex="090C"/>
  <outline>
    <contour>
      <point x="1188" y="1103" type="line"/>
      <point x="1487" y="1103" type="line"/>
      <point x="1418" y="700" type="line"/>
      <point x="1119" y="700" type="line"/>
    </contour>
    <contour>
      <point x="153" y="1076" type="line"/>
      <point x="189" y="1293" type="line"/>
      <point x="1729" y="1293" type="line"/>
      <point x="1692" y="1076" type="line"/>
    </contour>
    <contour>
      <point x="916" y="636" type="qcurve"/>
      <point x="673" y="428" type="line"/>
      <point x="688" y="527"/>
      <point x="625" y="635"/>
      <point x="570" y="635" type="qcurve" smooth="yes"/>
      <point x="509" y="635"/>
      <point x="421" y="537"/>
      <point x="406" y="446" type="qcurve" smooth="yes"/>
      <point x="391" y="361"/>
      <point x="439" y="190"/>
      <point x="490" y="92" type="qcurve"/>
      <point x="238" y="9" type="line"/>
      <point x="179" y="95"/>
      <point x="108" y="361"/>
      <point x="130" y="488" type="qcurve" smooth="yes"/>
      <point x="164" y="690"/>
      <point x="402" y="899"/>
      <point x="564" y="899" type="qcurve" smooth="yes"/>
      <point x="723" y="899"/>
      <point x="900" y="726"/>
    </contour>
    <contour>
      <point x="1362" y="440" type="line"/>
      <point x="1178" y="348" type="line"/>
      <point x="1184" y="364"/>
      <point x="1199" y="420"/>
      <point x="1207" y="463" type="qcurve" smooth="yes"/>
      <point x="1221" y="554"/>
      <point x="1174" y="642"/>
      <point x="1119" y="642" type="qcurve" smooth="yes"/>
      <point x="1058" y="642"/>
      <point x="970" y="520"/>
      <point x="952" y="408" type="qcurve" smooth="yes"/>
      <point x="927" y="260" type="line"/>
      <point x="637" y="260" type="line"/>
      <point x="664" y="421" type="line" smooth="yes"/>
      <point x="699" y="631"/>
      <point x="957" y="898"/>
      <point x="1137" y="898" type="qcurve" smooth="yes"/>
      <point x="1343" y="898"/>
      <point x="1519" y="646"/>
      <point x="1486" y="454" type="qcurve" smooth="yes"/>
      <point x="1478" y="407"/>
      <point x="1445" y="310"/>
      <point x="1422" y="263" type="qcurve"/>
      <point x="1339" y="263" type="line" smooth="yes"/>
      <point x="1281" y="263"/>
      <point x="1205" y="208"/>
      <point x="1197" y="163" type="qcurve" smooth="yes"/>
      <point x="1190" y="122"/>
      <point x="1242" y="79"/>
      <point x="1284" y="79" type="qcurve" smooth="yes"/>
      <point x="1324" y="79"/>
      <point x="1419" y="100"/>
      <point x="1443" y="110" type="qcurve"/>
      <point x="1443" y="-72" type="line"/>
      <point x="1408" y="-88"/>
      <point x="1284" y="-111"/>
      <point x="1241" y="-111" type="qcurve" smooth="yes"/>
      <point x="1084" y="-111"/>
      <point x="926" y="46"/>
      <point x="948" y="173" type="qcurve" smooth="yes"/>
      <point x="967" y="289"/>
      <point x="1159" y="440"/>
      <point x="1311" y="440" type="qcurve" smooth="yes"/>
    </contour>
    <contour>
      <point x="1110" y="1265" type="move" name="mark0"/>
    </contour>
  </outline>
</glyph>
<glyph name="edeva" format="1">
  <advance width="1165"/>
  <unicode hex="090F"/>
  <outline>
    <contour>
      <point x="1183" y="1105" type="line"/>
      <point x="1130" y="790" type="line" smooth="yes"/>
      <point x="1108" y="662"/>
      <point x="960" y="454"/>
      <point x="829" y="404" type="qcurve"/>
      <point x="679" y="574" type="line"/>
      <point x="739" y="609"/>
      <point x="821" y="737"/>
      <point x="835" y="820" type="qcurve" smooth="yes"/>
      <point x="884" y="1105" type="line"/>
    </contour>
    <contour>
      <point x="153" y="1076" type="line"/>
      <point x="189" y="1293" type="line"/>
      <point x="1413" y="1293" type="line"/>
      <point x="1377" y="1076" type="line"/>
    </contour>
    <contour>
      <point x="315" y="1105" type="line"/>
      <point x="615" y="1105" type="line"/>
      <point x="548" y="712" type="line" smooth="yes"/>
      <point x="503" y="450"/>
      <point x="730" y="233"/>
      <point x="1000" y="233" type="qcurve"/>
      <point x="903" y="-5" type="line"/>
      <point x="538" y="-5"/>
      <point x="192" y="378"/>
      <point x="243" y="679" type="qcurve" smooth="yes"/>
    </contour>
    <contour>
      <point x="-38" y="2" type="move" name="x44"/>
    </contour>
  </outline>
</glyph>
<glyph name="kadeva" format="1">
  <advance width="1582"/>
  <unicode hex="0915"/>
  <outline>
    <contour>
      <point x="153" y="1076" type="line"/>
      <point x="189" y="1293" type="line"/>
      <point x="1830" y="1293" type="line"/>
      <point x="1794" y="1076" type="line"/>
    </contour>
    <contour>
      <point x="817" y="1103" type="line"/>
      <point x="1116" y="1103" type="line"/>
      <point x="929" y="0" type="line"/>
      <point x="629" y="0" type="line"/>
    </contour>
    <contour>
      <point x="712" y="201" type="line"/>
      <point x="674" y="174"/>
      <point x="544" y="144"/>
      <point x="462" y="144" type="qcurve" smooth="yes"/>
      <point x="278" y="144"/>
      <point x="72" y="375"/>
      <point x="104" y="564" type="qcurve" smooth="yes"/>
      <point x="135" y="744"/>
      <point x="387" y="938"/>
      <point x="556" y="938" type="qcurve" smooth="yes"/>
      <point x="652" y="938"/>
      <point x="793" y="909"/>
      <point x="852" y="866" type="qcurve"/>
      <point x="808" y="604" type="line"/>
      <point x="765" y="649"/>
      <point x="662" y="695"/>
      <point x="582" y="695" type="qcurve" smooth="yes"/>
      <point x="515" y="695"/>
      <point x="415" y="616"/>
      <point x="401" y="538" type="qcurve" smooth="yes"/>
      <point x="389" y="466"/>
      <point x="459" y="387"/>
      <point x="521" y="387" type="qcurve" smooth="yes"/>
      <point x="595" y="387"/>
      <point x="711" y="439"/>
      <point x="761" y="493" type="qcurve"/>
    </contour>
    <contour>
      <point x="1015" y="863" type="line"/>
      <point x="1058" y="877"/>
      <point x="1170" y="902"/>
      <point x="1248" y="902" type="qcurve" smooth="yes"/>
      <point x="1417" y="902"/>
      <point x="1623" y="681"/>
      <point x="1592" y="497" type="qcurve" smooth="yes"/>
      <point x="1577" y="410"/>
      <point x="1494" y="232"/>
      <point x="1410" y="143" type="qcurve"/>
      <point x="1134" y="202" type="line"/>
      <point x="1188" y="264"/>
      <point x="1281" y="419"/>
      <point x="1293" y="497" type="qcurve" smooth="yes"/>
      <point x="1306" y="569"/>
      <point x="1236" y="650"/>
      <point x="1174" y="650" type="qcurve" smooth="yes"/>
      <point x="1132" y="650"/>
      <point x="1019" y="605"/>
      <point x="964" y="565" type="qcurve"/>
    </contour>
    <contour>
      <point x="624" y="-6" type="move" name="btm"/>
    </contour>
    <contour>
      <point x="843" y="1287" type="move" name="top"/>
    </contour>
  </outline>
</glyph>
<glyph name="khadeva" format="1">
  <advance width="1788"/>
  <unicode hex="0916"/>
  <outline>
    <contour>
      <point x="1361" y="272" type="line"/>
      <point x="1321" y="256"/>
      <point x="1242" y="248"/>
      <point x="1183" y="248" type="qcurve" smooth="yes"/>
      <point x="1028" y="248"/>
      <point x="831" y="451"/>
      <point x="860" y="619" type="qcurve" smooth="yes"/>
      <point x="887" y="780"/>
      <point x="1123" y="968"/>
      <point x="1275" y="968" type="qcurve" smooth="yes"/>
      <point x="1346" y="968"/>
      <point x="1433" y="954"/>
      <point x="1478" y="944" type="qcurve"/>
      <point x="1438" y="710" type="line"/>
      <point x="1400" y="729"/>
      <point x="1340" y="742"/>
      <point x="1294" y="742" type="qcurve" smooth="yes"/>
      <point x="1239" y="742"/>
      <point x="1149" y="671"/>
      <point x="1139" y="612" type="qcurve" smooth="yes"/>
      <point x="1128" y="545"/>
      <point x="1206" y="480"/>
      <point x="1248" y="480" type="qcurve" smooth="yes"/>
      <point x="1300" y="480"/>
      <point x="1369" y="506"/>
      <point x="1406" y="533" type="qcurve"/>
    </contour>
    <contour>
      <point x="1039" y="1076" type="line"/>
      <point x="1076" y="1293" type="line"/>
      <point x="2036" y="1293" type="line"/>
      <point x="2000" y="1076" type="line"/>
    </contour>
    <contour>
      <point x="1495" y="1103" type="line"/>
      <point x="1795" y="1103" type="line"/>
      <point x="1608" y="0" type="line"/>
      <point x="1308" y="0" type="line"/>
    </contour>
    <component base="radeva" xOffset="-9"/>
    <contour>
      <point x="1521" y="1287" type="move" name="top"/>
    </contour>
  </outline>
</glyph>
<glyph name="gadeva" format="1">
  <advance width="1273"/>
  <unicode hex="0917"/>
  <outline>
    <contour>
      <point x="980" y="1103" type="line"/>
      <point x="1280" y="1103" type="line"/>
      <point x="1092" y="0" type="line"/>
      <point x="793" y="0" type="line"/>
    </contour>
    <contour>
      <point x="1484" y="1076" type="line"/>
      <point x="153" y="1076" type="line"/>
      <point x="189" y="1293" type="line"/>
      <point x="1521" y="1293" type="line"/>
    </contour>
    <contour>
      <point x="701" y="1095" type="line"/>
      <point x="597" y="478" type="line" smooth="yes"/>
      <point x="583" y="395"/>
      <point x="474" y="303"/>
      <point x="393" y="303" type="qcurve" smooth="yes"/>
      <point x="280" y="303"/>
      <point x="112" y="486"/>
      <point x="130" y="594" type="qcurve" smooth="yes"/>
      <point x="142" y="665"/>
      <point x="240" y="753"/>
      <point x="316" y="753" type="qcurve" smooth="yes"/>
      <point x="393" y="753" type="line"/>
      <point x="325" y="639" type="line"/>
      <point x="402" y="1095" type="line"/>
    </contour>
    <contour>
      <point x="1006" y="1287" type="move" name="top"/>
    </contour>
  </outline>
</glyph>
<glyph name="ghadeva" format="1">
  <advance width="1328"/>
  <unicode hex="0918"/>
  <outline>
    <contour>
      <point x="153" y="1076" type="line"/>
      <point x="189" y="1293" type="line"/>
      <point x="1576" y="1293" type="line"/>
      <point x="1540" y="1076" type="line"/>
    </contour>
    <contour>
      <point x="1034" y="1103" type="line"/>
      <point x="1334" y="1103" type="line"/>
      <point x="1147" y="0" type="line"/>
      <point x="847" y="0" type="line"/>
    </contour>
    <contour>
      <point x="711" y="680" type="line"/>
      <point x="625" y="680" type="line" smooth="yes"/>
      <point x="427" y="680"/>
      <point x="240" y="855"/>
      <point x="262" y="984" type="qcurve" smooth="yes"/>
      <point x="286" y="1122"/>
      <point x="512" y="1290"/>
      <point x="675" y="1290" type="qcurve" smooth="yes"/>
      <point x="816" y="1290" type="line"/>
      <point x="779" y="1076" type="line"/>
      <point x="726" y="1076" type="line" smooth="yes"/>
      <point x="665" y="1076"/>
      <point x="585" y="1010"/>
      <point x="576" y="958" type="qcurve" smooth="yes"/>
      <point x="567" y="905"/>
      <point x="627" y="846"/>
      <point x="696" y="846" type="qcurve" smooth="yes"/>
      <point x="739" y="846" type="line"/>
    </contour>
    <contour>
      <point x="937" y="181" type="line"/>
      <point x="887" y="157"/>
      <point x="671" y="118"/>
      <point x="577" y="118" type="qcurve" smooth="yes"/>
      <point x="350" y="118"/>
      <point x="141" y="336"/>
      <point x="171" y="507" type="qcurve" smooth="yes"/>
      <point x="198" y="653"/>
      <point x="494" y="848"/>
      <point x="636" y="848" type="qcurve" smooth="yes"/>
      <point x="836" y="848" type="line"/>
      <point x="817" y="614" type="line"/>
      <point x="668" y="614" type="line" smooth="yes"/>
      <point x="585" y="614"/>
      <point x="500" y="544"/>
      <point x="493" y="493" type="qcurve" smooth="yes"/>
      <point x="483" y="434"/>
      <point x="568" y="371"/>
      <point x="645" y="369" type="qcurve" smooth="yes"/>
      <point x="737" y="367"/>
      <point x="928" y="438"/>
      <point x="989" y="487" type="qcurve"/>
    </contour>
    <contour>
      <point x="1069" y="1287" type="move" name="top"/>
    </contour>
  </outline>
</glyph>
<glyph name="ngadeva" format="1">
  <advance width="1317"/>
  <unicode hex="0919"/>
  <outline>
    <contour>
      <point x="1197" y="1076" type="line"/>
      <point x="1233" y="1293" type="line"/>
      <point x="1565" y="1293" type="line"/>
      <point x="1529" y="1076" type="line"/>
    </contour>
    <contour>
      <point x="1340" y="555" type="line"/>
      <point x="1075" y="555" type="line"/>
      <point x="1110" y="763" type="line"/>
      <point x="1375" y="763" type="line"/>
    </contour>
    <component base="ddadeva" xOffset="-2"/>
    <contour>
      <point x="441" y="-20" type="move" name="btm"/>
    </contour>
    <contour>
      <point x="819" y="1287" type="move" name="top"/>
    </contour>
  </outline>
</glyph>
<glyph name="cadeva" format="1">
  <advance width="1346"/>
  <unicode hex="091A"/>
  <outline>
    <contour>
      <point x="118" y="645" type="line"/>
      <point x="158" y="879" type="line"/>
      <point x="907" y="879" type="line"/>
      <point x="868" y="645" type="line"/>
    </contour>
    <contour>
      <point x="153" y="1076" type="line"/>
      <point x="189" y="1293" type="line"/>
      <point x="1595" y="1293" type="line"/>
      <point x="1558" y="1076" type="line"/>
    </contour>
    <contour>
      <point x="1052" y="1103" type="line"/>
      <point x="1351" y="1103" type="line"/>
      <point x="1164" y="0" type="line"/>
      <point x="865" y="0" type="line"/>
    </contour>
    <contour>
      <point x="935" y="180" type="line"/>
      <point x="887" y="155"/>
      <point x="747" y="133"/>
      <point x="668" y="133" type="qcurve" smooth="yes"/>
      <point x="483" y="133"/>
      <point x="255" y="337"/>
      <point x="287" y="525" type="qcurve" smooth="yes"/>
      <point x="309" y="658"/>
      <point x="530" y="862"/>
      <point x="793" y="862" type="qcurve"/>
      <point x="776" y="643" type="line"/>
      <point x="687" y="643"/>
      <point x="607" y="564"/>
      <point x="598" y="511" type="qcurve" smooth="yes"/>
      <point x="586" y="445"/>
      <point x="667" y="379"/>
      <point x="726" y="377" type="qcurve" smooth="yes"/>
      <point x="788" y="375"/>
      <point x="937" y="430"/>
      <point x="984" y="473" type="qcurve"/>
    </contour>
    <contour>
      <point x="1079" y="1287" type="move" name="top"/>
    </contour>
  </outline>
</glyph>
<glyph name="chadeva" format="1">
  <advance width="1473"/>
  <unicode hex="091B"/>
  <outline>
    <contour>
      <point x="1684" y="1076" type="line"/>
      <point x="153" y="1076" type="line"/>
      <point x="189" y="1293" type="line"/>
      <point x="1721" y="1293" type="line"/>
    </contour>
    <contour>
      <point x="701" y="640" type="line"/>
      <point x="616" y="640" type="line" smooth="yes"/>
      <point x="424" y="640"/>
      <point x="243" y="835"/>
      <point x="267" y="974" type="qcurve" smooth="yes"/>
      <point x="293" y="1122"/>
      <point x="509" y="1290"/>
      <point x="672" y="1290" type="qcurve" smooth="yes"/>
      <point x="813" y="1290" type="line"/>
      <point x="776" y="1076" type="line"/>
      <point x="723" y="1076" type="line" smooth="yes"/>
      <point x="662" y="1076"/>
      <point x="591" y="1008"/>
      <point x="581" y="946" type="qcurve" smooth="yes"/>
      <point x="570" y="886"/>
      <point x="626" y="796"/>
      <point x="686" y="796" type="qcurve" smooth="yes"/>
      <point x="728" y="796" type="line"/>
    </contour>
    <contour>
      <point x="1478" y="520" type="qcurve" smooth="yes"/>
      <point x="1442" y="310"/>
      <point x="1031" y="-8"/>
      <point x="724" y="-11" type="qcurve" smooth="yes"/>
      <point x="425" y="-14"/>
      <point x="156" y="237"/>
      <point x="187" y="424" type="qcurve" smooth="yes"/>
      <point x="217" y="601"/>
      <point x="508" y="796"/>
      <point x="660" y="796" type="qcurve" smooth="yes"/>
      <point x="801" y="796" type="line"/>
      <point x="781" y="562" type="line"/>
      <point x="680" y="562" type="line" smooth="yes"/>
      <point x="616" y="562"/>
      <point x="525" y="479"/>
      <point x="514" y="411" type="qcurve" smooth="yes"/>
      <point x="500" y="334"/>
      <point x="628" y="232"/>
      <point x="749" y="234" type="qcurve" smooth="yes"/>
      <point x="930" y="237"/>
      <point x="1171" y="416"/>
      <point x="1191" y="529" type="qcurve" smooth="yes"/>
      <point x="1206" y="619"/>
      <point x="1146" y="696"/>
      <point x="1104" y="696" type="qcurve" smooth="yes"/>
      <point x="1065" y="696"/>
      <point x="996" y="676"/>
      <point x="954" y="655" type="qcurve"/>
      <point x="920" y="858" type="line"/>
      <point x="984" y="897"/>
      <point x="1119" y="933"/>
      <point x="1191" y="933" type="qcurve" smooth="yes"/>
      <point x="1354" y="933"/>
      <point x="1511" y="704"/>
    </contour>
    <contour>
      <point x="1180" y="1104" type="line"/>
      <point x="1479" y="1104" type="line"/>
      <point x="1416" y="733" type="line"/>
      <point x="1117" y="733" type="line"/>
    </contour>
    <contour>
      <point x="550" y="-21" type="move" name="btm"/>
    </contour>
    <contour>
      <point x="1108" y="1287" type="move" name="top"/>
    </contour>
  </outline>
</glyph>
<glyph name="jadeva" format="1">
  <advance width="1446"/>
  <unicode hex="091C"/>
  <outline>
    <contour>
      <point x="153" y="1076" type="line"/>
      <point x="189" y="1293" type="line"/>
      <point x="1694" y="1293" type="line"/>
      <point x="1658" y="1076" type="line"/>
    </contour>
    <contour>
      <point x="710" y="742" type="line"/>
      <point x="784" y="705"/>
      <point x="869" y="536"/>
      <point x="849" y="417" type="qcurve" smooth="yes"/>
      <point x="821" y="258"/>
      <point x="591" y="51"/>
      <point x="407" y="51" type="qcurve" smooth="yes"/>
      <point x="310" y="51"/>
      <point x="138" y="87"/>
      <point x="54" y="127" type="qcurve"/>
      <point x="137" y="351" type="line"/>
      <point x="200" y="323"/>
      <point x="314" y="296"/>
      <point x="367" y="296" type="qcurve" smooth="yes"/>
      <point x="434" y="296"/>
      <point x="540" y="380"/>
      <point x="555" y="463" type="qcurve" smooth="yes"/>
      <point x="566" y="536"/>
      <point x="440" y="653"/>
      <point x="325" y="653" type="qcurve" smooth="yes"/>
      <point x="273" y="653" type="line"/>
      <point x="312" y="883" type="line"/>
      <point x="1209" y="883" type="line"/>
      <point x="1169" y="649" type="line"/>
      <point x="696" y="649" type="line"/>
    </contour>
    <contour>
      <point x="1159" y="1103" type="line"/>
      <point x="1453" y="1103" type="line"/>
      <point x="1266" y="0" type="line"/>
      <point x="972" y="0" type="line"/>
    </contour>
    <contour>
      <point x="1174" y="1287" type="move" name="top"/>
    </contour>
  </outline>
</glyph>
<glyph name="jhadeva" format="1">
  <advance width="1675"/>
  <unicode hex="091D"/>
  <outline>
    <contour>
      <point x="974" y="519" type="line"/>
      <point x="1418" y="519" type="line"/>
      <point x="1379" y="283" type="line"/>
      <point x="831" y="283" type="line"/>
    </contour>
    <component base="ideva" xOffset="-46"/>
    <component base="aavowelsigndeva" xOffset="1038"/>
    <contour>
      <point x="1408" y="1287" type="move" name="top"/>
    </contour>
  </outline>
</glyph>
<glyph name="nyadeva" format="1">
  <advance width="1517"/>
  <unicode hex="091E"/>
  <outline>
    <contour>
      <point x="863" y="701" type="line"/>
      <point x="1263" y="701" type="line"/>
      <point x="1221" y="452" type="line"/>
      <point x="821" y="452" type="line"/>
    </contour>
    <contour>
      <point x="153" y="1076" type="line"/>
      <point x="189" y="1293" type="line"/>
      <point x="1765" y="1293" type="line"/>
      <point x="1729" y="1076" type="line"/>
    </contour>
    <contour>
      <point x="1224" y="1103" type="line"/>
      <point x="1524" y="1103" type="line"/>
      <point x="1337" y="0" type="line"/>
      <point x="1037" y="0" type="line"/>
    </contour>
    <contour>
      <point x="910" y="542" type="qcurve" smooth="yes"/>
      <point x="878" y="349"/>
      <point x="594" y="135"/>
      <point x="427" y="135" type="qcurve" smooth="yes"/>
      <point x="316" y="135"/>
      <point x="147" y="182"/>
      <point x="77" y="221" type="qcurve"/>
      <point x="164" y="455" type="line"/>
      <point x="242" y="422"/>
      <point x="344" y="389"/>
      <point x="410" y="389" type="qcurve" smooth="yes"/>
      <point x="482" y="389"/>
      <point x="601" y="475"/>
      <point x="615" y="557" type="qcurve" smooth="yes"/>
      <point x="627" y="633"/>
      <point x="543" y="721"/>
      <point x="470" y="721" type="qcurve" smooth="yes"/>
      <point x="407" y="721"/>
      <point x="319" y="699"/>
      <point x="276" y="681" type="qcurve"/>
      <point x="262" y="902" type="line"/>
      <point x="313" y="924"/>
      <point x="459" y="961"/>
      <point x="543" y="961" type="qcurve" smooth="yes"/>
      <point x="735" y="961"/>
      <point x="943" y="731"/>
    </contour>
    <contour>
      <point x="1248" y="1287" type="move" name="top"/>
    </contour>
  </outline>
</glyph>
<glyph name="ttadeva" format="1">
  <advance width="1076"/>
  <unicode hex="091F"/>
  <outline>
    <contour>
      <point x="1287" y="1076" type="line"/>
      <point x="153" y="1076" type="line"/>
      <point x="189" y="1293" type="line"/>
      <point x="1324" y="1293" type="line"/>
    </contour>
    <contour>
      <point x="389" y="25"/>
      <point x="112" y="270"/>
      <point x="151" y="485" type="qcurve" smooth="yes"/>
      <point x="187" y="688"/>
      <point x="488" y="902"/>
      <point x="716" y="902" type="qcurve" smooth="yes"/>
      <point x="840" y="902" type="line"/>
      <point x="741" y="856" type="line"/>
      <point x="781" y="1095" type="line"/>
      <point x="1081" y="1095" type="line"/>
      <point x="1008" y="663" type="line"/>
      <point x="727" y="663" type="line" smooth="yes"/>
      <point x="616" y="663"/>
      <point x="479" y="557"/>
      <point x="464" y="472" type="qcurve" smooth="yes"/>
      <point x="448" y="380"/>
      <point x="575" y="281"/>
      <point x="692" y="279" type="qcurve" smooth="yes"/>
      <point x="766" y="278"/>
      <point x="900" y="301"/>
      <point x="966" y="318" type="qcurve"/>
      <point x="956" y="71" type="line"/>
      <point x="890" y="49"/>
      <point x="741" y="25"/>
      <point x="646" y="25" type="qcurve" smooth="yes"/>
    </contour>
    <contour>
      <point x="456" y="19" type="move" name="btm"/>
    </contour>
    <contour>
      <point x="754" y="1287" type="move" name="top"/>
    </contour>
  </outline>
</glyph>
<glyph name="tthadeva" format="1">
  <advance width="1245"/>
  <unicode hex="0920"/>
  <outline>
    <contour>
      <point x="1275" y="1076" type="line"/>
      <point x="-30" y="1076" type="line"/>
      <point x="-30" y="1293" type="line"/>
      <point x="1275" y="1293" type="line"/>
    </contour>
    <contour>
      <point x="902" y="671" type="line"/>
      <point x="651.0" y="671.0" type="line" smooth="yes"/>
      <point x="505.0" y="671.0"/>
      <point x="358.0" y="558.0"/>
      <point x="358.0" y="469.0" type="qcurve" smooth="yes"/>
      <point x="358.0" y="368.0"/>
      <point x="494.0" y="258.0"/>
      <point x="594.0" y="258.0" type="qcurve" smooth="yes"/>
      <point x="708.0" y="258.0"/>
      <point x="853.0" y="373.0"/>
      <point x="853.0" y="473.0" type="qcurve" smooth="yes"/>
      <point x="853.0" y="556.0"/>
      <point x="762.0" y="685.0"/>
      <point x="694.0" y="698.0" type="qcurve"/>
      <point x="943" y="864" type="line"/>
      <point x="1042" y="801"/>
      <point x="1151.0" y="586.0"/>
      <point x="1151.0" y="459.0" type="qcurve" smooth="yes"/>
      <point x="1151.0" y="259.0"/>
      <point x="867.0" y="17.0"/>
      <point x="621.0" y="15.0" type="qcurve" smooth="yes"/>
      <point x="357.0" y="13.0"/>
      <point x="45.0" y="273.0"/>
      <point x="45.0" y="491.0" type="qcurve" smooth="yes"/>
      <point x="45.0" y="675.0"/>
      <point x="354.0" y="904.0"/>
      <point x="610.0" y="904.0" type="qcurve" smooth="yes"/>
      <point x="825.0" y="904.0" type="line"/>
      <point x="758.0" y="835.0" type="line"/>
      <point x="758.0" y="1105.0" type="line"/>
      <point x="1062.0" y="1105.0" type="line"/>
      <point x="1062" y="671" type="line"/>
    </contour>
    <contour>
      <point x="487" y="19" type="move" name="btm"/>
    </contour>
    <contour>
      <point x="667" y="1287" type="move" name="top"/>
    </contour>
  </outline>
</glyph>
<glyph name="ddadeva" format="1">
  <advance width="1118"/>
  <unicode hex="0921"/>
  <outline>
    <contour>
      <point x="829" y="1095" type="line"/>
      <point x="1123" y="1095" type="line"/>
      <point x="1063" y="738" type="line"/>
      <point x="603" y="738" type="line" smooth="yes"/>
      <point x="546" y="738"/>
      <point x="491" y="692"/>
      <point x="485" y="659" type="qcurve" smooth="yes"/>
      <point x="479" y="621"/>
      <point x="549" y="557"/>
      <point x="606" y="549" type="qcurve"/>
      <point x="396" y="549" type="line"/>
      <point x="474" y="586"/>
      <point x="686" y="643"/>
      <point x="774" y="643" type="qcurve" smooth="yes"/>
      <point x="949" y="643"/>
      <point x="1108" y="457"/>
      <point x="1084" y="319" type="qcurve" smooth="yes"/>
      <point x="1062" y="184"/>
      <point x="810" y="1"/>
      <point x="578" y="1" type="qcurve" smooth="yes"/>
      <point x="402" y="1"/>
      <point x="161" y="78"/>
      <point x="95" y="124" type="qcurve"/>
      <point x="195" y="353" type="line"/>
      <point x="288" y="295"/>
      <point x="500" y="230"/>
      <point x="589" y="230" type="qcurve" smooth="yes"/>
      <point x="675" y="230"/>
      <point x="788" y="278"/>
      <point x="797" y="329" type="qcurve" smooth="yes"/>
      <point x="802" y="363"/>
      <point x="754" y="408"/>
      <point x="708" y="408" type="qcurve" smooth="yes"/>
      <point x="661" y="408"/>
      <point x="536" y="382"/>
      <point x="478" y="353" type="qcurve"/>
      <point x="447" y="353" type="line"/>
      <point x="336" y="396"/>
      <point x="197" y="570"/>
      <point x="219" y="699" type="qcurve" smooth="yes"/>
      <point x="238" y="814"/>
      <point x="428" y="955"/>
      <point x="615" y="955" type="qcurve" smooth="yes"/>
      <point x="855" y="955" type="line"/>
      <point x="797" y="903" type="line"/>
    </contour>
    <contour>
      <point x="1330" y="1076" type="line"/>
      <point x="153" y="1076" type="line"/>
      <point x="189" y="1293" type="line"/>
      <point x="1366" y="1293" type="line"/>
    </contour>
    <contour>
      <point x="457" y="-1" type="move" name="btm"/>
    </contour>
    <contour>
      <point x="817" y="1287" type="move" name="top"/>
    </contour>
  </outline>
</glyph>
<glyph name="ddhadeva" format="1">
  <advance width="1119"/>
  <unicode hex="0922"/>
  <outline>
    <contour>
      <point x="1331" y="1076" type="line"/>
      <point x="153" y="1076" type="line"/>
      <point x="189" y="1293" type="line"/>
      <point x="1367" y="1293" type="line"/>
    </contour>
    <contour>
      <point x="824" y="1095" type="line"/>
      <point x="1124" y="1095" type="line"/>
      <point x="1056" y="692" type="line"/>
      <point x="740" y="692" type="line" smooth="yes"/>
      <point x="580" y="692"/>
      <point x="431" y="563"/>
      <point x="415" y="463" type="qcurve" smooth="yes"/>
      <point x="395" y="347"/>
      <point x="526" y="211"/>
      <point x="655" y="211" type="qcurve" smooth="yes"/>
      <point x="755" y="211"/>
      <point x="850" y="278"/>
      <point x="856" y="317" type="qcurve" smooth="yes"/>
      <point x="862" y="352"/>
      <point x="819" y="393"/>
      <point x="771" y="393" type="qcurve" smooth="yes"/>
      <point x="733" y="393"/>
      <point x="622" y="353"/>
      <point x="572" y="319" type="qcurve"/>
      <point x="507" y="493" type="line"/>
      <point x="565" y="538"/>
      <point x="740" y="607"/>
      <point x="834" y="607" type="qcurve" smooth="yes"/>
      <point x="996" y="607"/>
      <point x="1139" y="438"/>
      <point x="1117" y="311" type="qcurve" smooth="yes"/>
      <point x="1093" y="166"/>
      <point x="838" y="2"/>
      <point x="614" y="2" type="qcurve" smooth="yes"/>
      <point x="368" y="2"/>
      <point x="90" y="268"/>
      <point x="127" y="487" type="qcurve" smooth="yes"/>
      <point x="160" y="681"/>
      <point x="472" y="922"/>
      <point x="728" y="922" type="qcurve" smooth="yes"/>
      <point x="838" y="922" type="line"/>
      <point x="786" y="868" type="line"/>
    </contour>
    <contour>
      <point x="427" y="19" type="move" name="btm"/>
    </contour>
    <contour>
      <point x="795" y="1287" type="move" name="top"/>
    </contour>
  </outline>
</glyph>
<glyph name="nnadeva" format="1">
  <advance width="1594"/>
  <unicode hex="0923"/>
  <outline>
    <contour>
      <point x="788" y="1105" type="line"/>
      <point x="1087" y="1105" type="line"/>
      <point x="1025" y="739" type="line" smooth="yes"/>
      <point x="991" y="534"/>
      <point x="728" y="329"/>
      <point x="556" y="329" type="qcurve" smooth="yes"/>
      <point x="391" y="329"/>
      <point x="182" y="538"/>
      <point x="218" y="747" type="qcurve" smooth="yes"/>
      <point x="279" y="1105" type="line"/>
      <point x="578" y="1105" type="line"/>
      <point x="514" y="725" type="line" smooth="yes"/>
      <point x="502" y="655"/>
      <point x="544" y="581"/>
      <point x="593" y="581" type="qcurve" smooth="yes"/>
      <point x="645" y="581"/>
      <point x="711" y="651"/>
      <point x="724" y="725" type="qcurve" smooth="yes"/>
    </contour>
    <contour>
      <point x="189" y="1293" type="line"/>
      <point x="1842" y="1293" type="line"/>
      <point x="1806" y="1076" type="line"/>
      <point x="153" y="1076" type="line"/>
    </contour>
    <contour>
      <point x="1301" y="1103" type="line"/>
      <point x="1601" y="1103" type="line"/>
      <point x="1413" y="0" type="line"/>
      <point x="1114" y="0" type="line"/>
    </contour>
    <contour>
      <point x="1302" y="1287" type="move" name="top"/>
    </contour>
  </outline>
</glyph>
<glyph name="tadeva" format="1">
  <advance width="1176"/>
  <unicode hex="0924"/>
  <outline>
    <contour>
      <point x="912" y="909" type="line"/>
      <point x="870" y="658" type="line"/>
      <point x="703" y="658" type="line" smooth="yes"/>
      <point x="580" y="658"/>
      <point x="441" y="531"/>
      <point x="426" y="437" type="qcurve" smooth="yes"/>
      <point x="412" y="357"/>
      <point x="454" y="175"/>
      <point x="508" y="74" type="qcurve"/>
      <point x="248" y="-12" type="line"/>
      <point x="173" y="111"/>
      <point x="121" y="379"/>
      <point x="141" y="497" type="qcurve" smooth="yes"/>
      <point x="170" y="671"/>
      <point x="436" y="909"/>
      <point x="668" y="909" type="qcurve" smooth="yes"/>
    </contour>
    <contour>
      <point x="189" y="1293" type="line"/>
      <point x="1424" y="1293" type="line"/>
      <point x="1388" y="1076" type="line"/>
      <point x="153" y="1076" type="line"/>
    </contour>
    <contour>
      <point x="884" y="1103" type="line"/>
      <point x="1183" y="1103" type="line"/>
      <point x="996" y="0" type="line"/>
      <point x="696" y="0" type="line"/>
    </contour>
    <contour>
      <point x="907" y="1287" type="move" name="top"/>
    </contour>
  </outline>
</glyph>
<glyph name="thadeva" format="1">
  <advance width="1372"/>
  <unicode hex="0925"/>
  <outline>
    <contour>
      <point x="489" y="890" type="qcurve"/>
      <point x="261" y="867" type="line"/>
      <point x="249" y="899"/>
      <point x="243" y="974"/>
      <point x="252" y="1025" type="qcurve" smooth="yes"/>
      <point x="270" y="1128"/>
      <point x="463" y="1287"/>
      <point x="634" y="1287" type="qcurve" smooth="yes"/>
      <point x="797" y="1287"/>
      <point x="955" y="1089"/>
      <point x="930" y="936" type="qcurve" smooth="yes"/>
      <point x="898" y="753"/>
      <point x="590" y="528"/>
      <point x="364" y="537" type="qcurve"/>
      <point x="455" y="679" type="line"/>
      <point x="449" y="539"/>
      <point x="609" y="407"/>
      <point x="732" y="407" type="qcurve" smooth="yes"/>
      <point x="827" y="407"/>
      <point x="1022" y="491"/>
      <point x="1063" y="546" type="qcurve"/>
      <point x="1008" y="219" type="line"/>
      <point x="968" y="197"/>
      <point x="807" y="166"/>
      <point x="712" y="166" type="qcurve" smooth="yes"/>
      <point x="462" y="166"/>
      <point x="170" y="427"/>
      <point x="146" y="681" type="qcurve"/>
      <point x="157" y="715" type="line"/>
      <point x="456" y="733"/>
      <point x="653" y="865"/>
      <point x="667" y="947" type="qcurve" smooth="yes"/>
      <point x="677" y="1007"/>
      <point x="629" y="1066"/>
      <point x="589" y="1066" type="qcurve" smooth="yes"/>
      <point x="549" y="1066"/>
      <point x="494" y="1009"/>
      <point x="489" y="972" type="qcurve" smooth="yes"/>
      <point x="484" y="945"/>
      <point x="486" y="911"/>
    </contour>
    <contour>
      <point x="1080" y="1103" type="line"/>
      <point x="1379" y="1103" type="line"/>
      <point x="1192" y="0" type="line"/>
      <point x="892" y="0" type="line"/>
    </contour>
    <contour>
      <point x="1584" y="1076" type="line"/>
      <point x="1030" y="1076" type="line"/>
      <point x="1067" y="1293" type="line"/>
      <point x="1620" y="1293" type="line"/>
    </contour>
    <contour>
      <point x="1105" y="1287" type="move" name="top"/>
    </contour>
  </outline>
</glyph>
<glyph name="dadeva" format="1">
  <advance width="1086"/>
  <unicode hex="0926"/>
  <outline>
    <contour>
      <point x="1298" y="1076" type="line"/>
      <point x="153" y="1076" type="line"/>
      <point x="189" y="1293" type="line"/>
      <point x="1335" y="1293" type="line"/>
    </contour>
    <contour>
      <point x="601" y="219" type="line"/>
      <point x="854" y="287" type="line"/>
      <point x="972" y="-148" type="line"/>
      <point x="692" y="-205" type="line"/>
    </contour>
    <contour>
      <point x="136" y="517" type="qcurve" smooth="yes"/>
      <point x="165" y="694"/>
      <point x="444" y="898"/>
      <point x="710" y="898" type="qcurve" smooth="yes"/>
      <point x="802" y="898" type="line"/>
      <point x="753" y="863" type="line"/>
      <point x="792" y="1095" type="line"/>
      <point x="1091" y="1095" type="line"/>
      <point x="1018" y="665" type="line"/>
      <point x="734" y="665" type="line" smooth="yes"/>
      <point x="571" y="665"/>
      <point x="443" y="567"/>
      <point x="430" y="489" type="qcurve" smooth="yes"/>
      <point x="417" y="408"/>
      <point x="513" y="316"/>
      <point x="604" y="316" type="qcurve" smooth="yes"/>
      <point x="634" y="316"/>
      <point x="689" y="321"/>
      <point x="718" y="326" type="qcurve"/>
      <point x="593" y="245" type="line"/>
      <point x="589" y="287"/>
      <point x="586" y="327"/>
      <point x="592" y="360" type="qcurve" smooth="yes"/>
      <point x="603" y="427"/>
      <point x="722" y="521"/>
      <point x="822" y="521" type="qcurve" smooth="yes"/>
      <point x="936" y="521"/>
      <point x="1075" y="383"/>
      <point x="1061" y="302" type="qcurve" smooth="yes"/>
      <point x="1046" y="213"/>
      <point x="830" y="82"/>
      <point x="609" y="82" type="qcurve" smooth="yes"/>
      <point x="378" y="82"/>
      <point x="102" y="319"/>
    </contour>
    <contour>
      <point x="723" y="-177" type="move" name="btm"/>
    </contour>
    <contour>
      <point x="769" y="1287" type="move" name="top"/>
    </contour>
  </outline>
</glyph>
<glyph name="dhadeva" format="1">
  <advance width="1335"/>
  <unicode hex="0927"/>
  <outline>
    <contour>
      <point x="1042" y="1103" type="line"/>
      <point x="1342" y="1103" type="line"/>
      <point x="1154" y="0" type="line"/>
      <point x="855" y="0" type="line"/>
    </contour>
    <contour>
      <point x="578" y="118" type="qcurve" smooth="yes"/>
      <point x="351" y="118"/>
      <point x="141" y="336"/>
      <point x="171" y="507" type="qcurve" smooth="yes"/>
      <point x="198" y="653"/>
      <point x="494" y="848"/>
      <point x="636" y="848" type="qcurve" smooth="yes"/>
      <point x="843" y="848" type="line"/>
      <point x="823" y="614" type="line"/>
      <point x="668" y="614" type="line" smooth="yes"/>
      <point x="585" y="614"/>
      <point x="500" y="544"/>
      <point x="493" y="493" type="qcurve" smooth="yes"/>
      <point x="483" y="434"/>
      <point x="567" y="369"/>
      <point x="645" y="369" type="qcurve" smooth="yes"/>
      <point x="766" y="369"/>
      <point x="938" y="438"/>
      <point x="999" y="487" type="qcurve"/>
      <point x="947" y="181" type="line"/>
      <point x="897" y="157"/>
      <point x="701" y="118"/>
    </contour>
    <contour>
      <point x="1546" y="1076" type="line"/>
      <point x="987" y="1076" type="line"/>
      <point x="1023" y="1293" type="line"/>
      <point x="1583" y="1293" type="line"/>
    </contour>
    <contour>
      <point x="511" y="969" type="qcurve" smooth="yes"/>
      <point x="501" y="911"/>
      <point x="592" y="848"/>
      <point x="651" y="848" type="qcurve" smooth="yes"/>
      <point x="713" y="848" type="line"/>
      <point x="686" y="685" type="line"/>
      <point x="600" y="685" type="line" smooth="yes"/>
      <point x="405" y="685"/>
      <point x="194" y="871"/>
      <point x="219" y="1020" type="qcurve" smooth="yes"/>
      <point x="241" y="1153"/>
      <point x="452" y="1305"/>
      <point x="585" y="1305" type="qcurve" smooth="yes"/>
      <point x="684" y="1305"/>
      <point x="807" y="1281"/>
      <point x="857" y="1254" type="qcurve"/>
      <point x="789" y="1048" type="line"/>
      <point x="745" y="1066"/>
      <point x="679" y="1080"/>
      <point x="634" y="1080" type="qcurve" smooth="yes"/>
      <point x="590" y="1080"/>
      <point x="519" y="1021"/>
    </contour>
    <contour>
      <point x="1069" y="1287" type="move" name="top"/>
    </contour>
  </outline>
</glyph>
<glyph name="nadeva" format="1">
  <advance width="1184"/>
  <unicode hex="0928"/>
  <outline>
    <contour>
      <point x="867" y="844" type="line"/>
      <point x="823" y="588" type="line"/>
      <point x="424" y="588" type="line" smooth="yes"/>
      <point x="536" y="638" type="line"/>
      <point x="498" y="418" type="line" smooth="yes"/>
      <point x="487" y="350"/>
      <point x="407" y="265"/>
      <point x="341" y="265" type="qcurve" smooth="yes"/>
      <point x="236" y="265"/>
      <point x="116" y="509"/>
      <point x="139" y="638" type="qcurve" smooth="yes"/>
      <point x="155" y="735"/>
      <point x="282" y="844"/>
      <point x="399" y="844" type="qcurve" smooth="yes"/>
    </contour>
    <contour>
      <point x="189" y="1293" type="line"/>
      <point x="1432" y="1293" type="line"/>
      <point x="1396" y="1076" type="line"/>
      <point x="153" y="1076" type="line"/>
    </contour>
    <contour>
      <point x="891" y="1103" type="line"/>
      <point x="1191" y="1103" type="line"/>
      <point x="1004" y="0" type="line"/>
      <point x="704" y="0" type="line"/>
    </contour>
    <contour>
      <point x="917" y="1287" type="move" name="top"/>
    </contour>
  </outline>
</glyph>
<glyph name="nnnadeva" format="1">
  <advance width="1184"/>
  <unicode hex="0929"/>
  <outline>
    <component base="nadeva" xOffset="-21"/>
    <component base="nuktadeva" xOffset="1054"/>
    <contour>
      <point x="975" y="1279" type="move" name="top"/>
    </contour>
  </outline>
</glyph>
<glyph name="padeva" format="1">
  <advance width="1136"/>
  <unicode hex="092A"/>
  <outline>
    <contour>
      <point x="1347" y="1076" type="line"/>
      <point x="153" y="1076" type="line"/>
      <point x="189" y="1293" type="line"/>
      <point x="1384" y="1293" type="line"/>
    </contour>
    <contour>
      <point x="570" y="1104" type="line"/>
      <point x="509" y="745" type="line" smooth="yes"/>
      <point x="495" y="664"/>
      <point x="549" y="587"/>
      <point x="610" y="587" type="qcurve" smooth="yes"/>
      <point x="653" y="587"/>
      <point x="741" y="622"/>
      <point x="778" y="672" type="qcurve"/>
      <point x="728" y="370" type="line"/>
      <point x="688" y="360"/>
      <point x="628" y="351"/>
      <point x="573" y="351" type="qcurve" smooth="yes"/>
      <point x="386" y="351"/>
      <point x="183" y="589"/>
      <point x="224" y="824" type="qcurve" smooth="yes"/>
      <point x="271" y="1104" type="line"/>
    </contour>
    <contour>
      <point x="843" y="1103" type="line"/>
      <point x="1143" y="1103" type="line"/>
      <point x="955" y="0" type="line"/>
      <point x="656" y="0" type="line"/>
    </contour>
    <contour>
      <point x="868" y="1287" type="move" name="top"/>
    </contour>
  </outline>
</glyph>
<glyph name="phadeva" format="1">
  <advance width="1611"/>
  <unicode hex="092B"/>
  <outline>
    <contour>
      <point x="1213" y="1293" type="line"/>
      <point x="1860" y="1293" type="line"/>
      <point x="1823" y="1076" type="line"/>
      <point x="1176" y="1076" type="line"/>
    </contour>
    <contour>
      <point x="1042" y="863" type="line"/>
      <point x="1085" y="877"/>
      <point x="1198" y="902"/>
      <point x="1276" y="902" type="qcurve" smooth="yes"/>
      <point x="1445" y="902"/>
      <point x="1651" y="681"/>
      <point x="1619" y="497" type="qcurve" smooth="yes"/>
      <point x="1605" y="410"/>
      <point x="1522" y="232"/>
      <point x="1437" y="143" type="qcurve"/>
      <point x="1161" y="202" type="line"/>
      <point x="1215" y="264"/>
      <point x="1308" y="419"/>
      <point x="1321" y="497" type="qcurve" smooth="yes"/>
      <point x="1334" y="569"/>
      <point x="1264" y="650"/>
      <point x="1202" y="650" type="qcurve" smooth="yes"/>
      <point x="1159" y="650"/>
      <point x="1047" y="605"/>
      <point x="992" y="565" type="qcurve"/>
    </contour>
    <component base="padeva" xOffset="-2"/>
    <contour>
      <point x="670" y="-6" type="move" name="btm"/>
    </contour>
    <contour>
      <point x="888" y="1287" type="move" name="top"/>
    </contour>
  </outline>
</glyph>
<glyph name="badeva" format="1">
  <advance width="1158"/>
  <unicode hex="092C"/>
  <outline>
    <contour>
      <point x="738" y="371" type="line"/>
      <point x="617" y="292" type="line"/>
      <point x="422" y="819" type="line"/>
      <point x="541" y="894" type="line"/>
    </contour>
    <component base="vadeva" xOffset="-2"/>
    <contour>
      <point x="962" y="1291" type="move" name="top"/>
    </contour>
  </outline>
</glyph>
<glyph name="bhadeva" format="1">
  <advance width="1218"/>
  <unicode hex="092D"/>
  <outline>
    <contour>
      <point x="926" y="1103" type="line"/>
      <point x="1225" y="1103" type="line"/>
      <point x="1038" y="0" type="line"/>
      <point x="739" y="0" type="line"/>
    </contour>
    <contour>
      <point x="448" y="714" type="line"/>
      <point x="1068" y="714" type="line"/>
      <point x="1026" y="470" type="line"/>
      <point x="407" y="470" type="line"/>
    </contour>
    <contour>
      <point x="1430" y="1076" type="line"/>
      <point x="866" y="1076" type="line"/>
      <point x="902" y="1293" type="line"/>
      <point x="1467" y="1293" type="line"/>
    </contour>
    <contour>
      <point x="658" y="965" type="qcurve" smooth="yes"/>
      <point x="563" y="405" type="line" smooth="yes"/>
      <point x="553" y="346"/>
      <point x="470" y="276"/>
      <point x="404" y="276" type="qcurve" smooth="yes"/>
      <point x="287" y="276"/>
      <point x="109" y="454"/>
      <point x="127" y="559" type="qcurve" smooth="yes"/>
      <point x="139" y="629"/>
      <point x="244" y="714"/>
      <point x="311" y="714" type="qcurve" smooth="yes"/>
      <point x="365" y="714" type="line"/>
      <point x="296" y="600" type="line"/>
      <point x="355" y="944" type="line" smooth="yes"/>
      <point x="367" y="1020"/>
      <point x="326" y="1084"/>
      <point x="284" y="1084" type="qcurve" smooth="yes"/>
      <point x="250" y="1084"/>
      <point x="196" y="1066"/>
      <point x="157" y="1042" type="qcurve"/>
      <point x="167" y="1250" type="line"/>
      <point x="206" y="1280"/>
      <point x="329" y="1318"/>
      <point x="400" y="1318" type="qcurve" smooth="yes"/>
      <point x="554" y="1318"/>
      <point x="686" y="1130"/>
    </contour>
    <contour>
      <point x="952" y="1287" type="move" name="top"/>
    </contour>
  </outline>
</glyph>
<glyph name="madeva" format="1">
  <advance width="1252"/>
  <unicode hex="092E"/>
  <outline>
    <contour>
      <point x="959" y="1103" type="line"/>
      <point x="1259" y="1103" type="line"/>
      <point x="1072" y="0" type="line"/>
      <point x="772" y="0" type="line"/>
    </contour>
    <contour>
      <point x="1464" y="1076" type="line"/>
      <point x="153" y="1076" type="line"/>
      <point x="189" y="1293" type="line"/>
      <point x="1500" y="1293" type="line"/>
    </contour>
    <contour>
      <point x="509" y="714" type="line"/>
      <point x="1100" y="714" type="line"/>
      <point x="1059" y="470" type="line"/>
      <point x="468" y="470" type="line"/>
    </contour>
    <contour>
      <point x="690" y="1095" type="line"/>
      <point x="573" y="405" type="line" smooth="yes"/>
      <point x="562" y="346"/>
      <point x="472" y="276"/>
      <point x="406" y="276" type="qcurve" smooth="yes"/>
      <point x="283" y="276"/>
      <point x="117" y="440"/>
      <point x="137" y="559" type="qcurve" smooth="yes"/>
      <point x="149" y="629"/>
      <point x="254" y="714"/>
      <point x="321" y="714" type="qcurve" smooth="yes"/>
      <point x="375" y="714" type="line"/>
      <point x="306" y="600" type="line"/>
      <point x="390" y="1095" type="line"/>
    </contour>
    <contour>
      <point x="985" y="1287" type="move" name="top"/>
    </contour>
  </outline>
</glyph>
<glyph name="yadeva" format="1">
  <advance width="1251"/>
  <unicode hex="092F"/>
  <outline>
    <contour>
      <point x="189" y="1293" type="line"/>
      <point x="1499" y="1293" type="line"/>
      <point x="1463" y="1076" type="line"/>
      <point x="153" y="1076" type="line"/>
    </contour>
    <contour>
      <point x="326" y="1103" type="qcurve"/>
      <point x="680" y="1103" type="line"/>
      <point x="719" y="1069"/>
      <point x="762" y="945"/>
      <point x="751" y="871" type="qcurve" smooth="yes"/>
      <point x="728" y="737"/>
      <point x="505" y="567"/>
      <point x="364" y="567" type="qcurve"/>
      <point x="446" y="696" type="line"/>
      <point x="465" y="570"/>
      <point x="610" y="464"/>
      <point x="695" y="464" type="qcurve" smooth="yes"/>
      <point x="773" y="464"/>
      <point x="897" y="528"/>
      <point x="937" y="577" type="qcurve"/>
      <point x="884" y="260" type="line"/>
      <point x="840" y="242"/>
      <point x="740" y="225"/>
      <point x="661" y="224" type="qcurve" smooth="yes"/>
      <point x="459" y="222"/>
      <point x="162" y="472"/>
      <point x="132" y="697" type="qcurve"/>
      <point x="143" y="731" type="line"/>
      <point x="282" y="742"/>
      <point x="443" y="837"/>
      <point x="456" y="915" type="qcurve" smooth="yes"/>
      <point x="467" y="975"/>
      <point x="411" y="1076"/>
    </contour>
    <contour>
      <point x="958" y="1103" type="line"/>
      <point x="1258" y="1103" type="line"/>
      <point x="1071" y="0" type="line"/>
      <point x="771" y="0" type="line"/>
    </contour>
    <contour>
      <point x="984" y="1287" type="move" name="top"/>
    </contour>
  </outline>
</glyph>
<glyph name="radeva" format="1">
  <advance width="887"/>
  <unicode hex="0930"/>
  <outline>
    <contour>
      <point x="793" y="109" type="line"/>
      <point x="554" y="-46" type="line"/>
      <point x="63" y="698" type="line"/>
      <point x="296" y="861" type="line"/>
      <point x="441" y="706" type="line"/>
      <point x="434" y="663" type="line"/>
    </contour>
    <contour>
      <point x="416" y="709" type="line"/>
      <point x="479" y="709"/>
      <point x="552" y="776"/>
      <point x="566" y="859" type="qcurve" smooth="yes"/>
      <point x="611" y="1122" type="line"/>
      <point x="910" y="1122" type="line"/>
      <point x="866" y="864" type="line" smooth="yes"/>
      <point x="830" y="654"/>
      <point x="596" y="425"/>
      <point x="367" y="425" type="qcurve"/>
    </contour>
    <contour>
      <point x="153" y="1076" type="line"/>
      <point x="189" y="1293" type="line"/>
      <point x="1136" y="1293" type="line"/>
      <point x="1099" y="1076" type="line"/>
    </contour>
    <contour>
      <point x="428" y="45" type="move" name="btm"/>
    </contour>
    <contour>
      <point x="684" y="1287" type="move" name="top"/>
    </contour>
  </outline>
</glyph>
<glyph name="rradeva" format="1">
  <advance width="887"/>
  <unicode hex="0931"/>
  <outline>
    <component base="radeva" xOffset="-20"/>
    <component base="nuktadeva" xOffset="965"/>
    <contour>
      <point x="368" y="-5" type="move" name="btm"/>
    </contour>
    <contour>
      <point x="702" y="1279" type="move" name="top"/>
    </contour>
  </outline>
</glyph>
<glyph name="ladeva" format="1">
  <advance width="1605"/>
  <unicode hex="0932"/>
  <outline>
    <contour>
      <point x="1312" y="1103" type="line"/>
      <point x="1611" y="1103" type="line"/>
      <point x="1424" y="0" type="line"/>
      <point x="1125" y="0" type="line"/>
    </contour>
    <contour>
      <point x="153" y="1076" type="line"/>
      <point x="189" y="1293" type="line"/>
      <point x="1853" y="1293" type="line"/>
      <point x="1816" y="1076" type="line"/>
    </contour>
    <contour>
      <point x="936" y="636" type="qcurve"/>
      <point x="683" y="428" type="line"/>
      <point x="697" y="527"/>
      <point x="635" y="634"/>
      <point x="580" y="634" type="qcurve" smooth="yes"/>
      <point x="519" y="634"/>
      <point x="421" y="537"/>
      <point x="406" y="446" type="qcurve" smooth="yes"/>
      <point x="391" y="361"/>
      <point x="433" y="190"/>
      <point x="484" y="92" type="qcurve"/>
      <point x="230" y="9" type="line"/>
      <point x="171" y="95"/>
      <point x="103" y="361"/>
      <point x="125" y="488" type="qcurve" smooth="yes"/>
      <point x="160" y="690"/>
      <point x="398" y="910"/>
      <point x="567" y="910" type="qcurve" smooth="yes"/>
      <point x="736" y="910"/>
      <point x="916" y="736"/>
    </contour>
    <contour>
      <point x="1352" y="876" type="qcurve"/>
      <point x="1297" y="554" type="line"/>
      <point x="1285" y="582"/>
      <point x="1210" y="630"/>
      <point x="1153" y="630" type="qcurve" smooth="yes"/>
      <point x="1091" y="630"/>
      <point x="985" y="511"/>
      <point x="967" y="408" type="qcurve" smooth="yes"/>
      <point x="943" y="260" type="line"/>
      <point x="653" y="260" type="line"/>
      <point x="680" y="417" type="line" smooth="yes"/>
      <point x="715" y="627"/>
      <point x="1006" y="903"/>
      <point x="1171" y="903" type="qcurve" smooth="yes"/>
      <point x="1231" y="903"/>
      <point x="1322" y="887"/>
    </contour>
    <contour>
      <point x="1338" y="1287" type="move" name="top"/>
    </contour>
  </outline>
</glyph>
<glyph name="lladeva" format="1">
  <advance width="1633"/>
  <unicode hex="0933"/>
  <outline>
    <contour>
      <point x="1845" y="1076" type="line"/>
      <point x="153" y="1076" type="line"/>
      <point x="189" y="1293" type="line"/>
      <point x="1881" y="1293" type="line"/>
    </contour>
    <contour>
      <point x="1581" y="755" type="line"/>
      <point x="1282" y="761" type="line"/>
      <point x="1342" y="1114" type="line"/>
      <point x="1641" y="1114" type="line"/>
    </contour>
    <contour>
      <point x="704" y="473" type="qcurve" smooth="yes"/>
      <point x="725" y="591"/>
      <point x="658" y="691"/>
      <point x="584" y="691" type="qcurve" smooth="yes"/>
      <point x="522" y="691"/>
      <point x="421" y="585"/>
      <point x="401" y="472" type="qcurve" smooth="yes"/>
      <point x="382" y="362"/>
      <point x="451" y="257"/>
      <point x="513" y="257" type="qcurve" smooth="yes"/>
      <point x="581" y="257"/>
      <point x="686" y="362"/>
    </contour>
    <contour>
      <point x="989" y="612" type="qcurve"/>
      <point x="837" y="601" type="line"/>
      <point x="908" y="756"/>
      <point x="1147" y="922"/>
      <point x="1286" y="922" type="qcurve" smooth="yes"/>
      <point x="1498" y="922"/>
      <point x="1667" y="656"/>
      <point x="1635" y="474" type="qcurve" smooth="yes"/>
      <point x="1602" y="272"/>
      <point x="1352" y="25"/>
      <point x="1155" y="25" type="qcurve" smooth="yes"/>
      <point x="1031" y="25"/>
      <point x="834" y="152"/>
      <point x="796" y="285" type="qcurve"/>
      <point x="918" y="297" type="line"/>
      <point x="873" y="181"/>
      <point x="645" y="27"/>
      <point x="483" y="27" type="qcurve" smooth="yes"/>
      <point x="298" y="27"/>
      <point x="99" y="276"/>
      <point x="134" y="477" type="qcurve" smooth="yes"/>
      <point x="168" y="680"/>
      <point x="427" y="919"/>
      <point x="612" y="919" type="qcurve" smooth="yes"/>
      <point x="780" y="919"/>
      <point x="977" y="737"/>
    </contour>
    <contour>
      <point x="1080" y="482" type="qcurve" smooth="yes"/>
      <point x="1060" y="367"/>
      <point x="1127" y="262"/>
      <point x="1194" y="262" type="qcurve" smooth="yes"/>
      <point x="1259" y="262"/>
      <point x="1356" y="373"/>
      <point x="1375" y="481" type="qcurve" smooth="yes"/>
      <point x="1393" y="587"/>
      <point x="1329" y="691"/>
      <point x="1261" y="691" type="qcurve" smooth="yes"/>
      <point x="1200" y="691"/>
      <point x="1097" y="585"/>
    </contour>
    <contour>
      <point x="1022" y="-4" type="move" name="btm"/>
    </contour>
    <contour>
      <point x="1287" y="1287" type="move" name="top"/>
    </contour>
  </outline>
</glyph>
<glyph name="llladeva" format="1">
  <advance width="1633"/>
  <unicode hex="0934"/>
  <outline>
    <component base="lladeva" xOffset="-44"/>
    <component base="nuktadeva" xOffset="1086" yOffset="-130"/>
    <contour>
      <point x="976" y="25" type="move" name="btm"/>
    </contour>
    <contour>
      <point x="1274" y="1279" type="move" name="top"/>
    </contour>
  </outline>
</glyph>
<glyph name="vadeva" format="1">
  <advance width="1158"/>
  <unicode hex="0935"/>
  <outline>
    <contour>
      <point x="1370" y="1076" type="line"/>
      <point x="153" y="1076" type="line"/>
      <point x="189" y="1293" type="line"/>
      <point x="1407" y="1293" type="line"/>
    </contour>
    <contour>
      <point x="745" y="199" type="line"/>
      <point x="705" y="178"/>
      <point x="573" y="147"/>
      <point x="499" y="147" type="qcurve" smooth="yes"/>
      <point x="313" y="147"/>
      <point x="88" y="370"/>
      <point x="120" y="565" type="qcurve" smooth="yes"/>
      <point x="152" y="749"/>
      <point x="427" y="945"/>
      <point x="597" y="945" type="qcurve" smooth="yes"/>
      <point x="694" y="945"/>
      <point x="847" y="910"/>
      <point x="907" y="869" type="qcurve"/>
      <point x="867" y="628" type="line"/>
      <point x="821" y="667"/>
      <point x="700" y="713"/>
      <point x="609" y="713" type="qcurve" smooth="yes"/>
      <point x="534" y="713"/>
      <point x="429" y="624"/>
      <point x="416" y="542" type="qcurve" smooth="yes"/>
      <point x="402" y="461"/>
      <point x="490" y="382"/>
      <point x="566" y="382" type="qcurve" smooth="yes"/>
      <point x="631" y="382"/>
      <point x="753" y="431"/>
      <point x="790" y="464" type="qcurve"/>
    </contour>
    <contour>
      <point x="866" y="1103" type="line"/>
      <point x="1165" y="1103" type="line"/>
      <point x="978" y="0" type="line"/>
      <point x="679" y="0" type="line"/>
    </contour>
    <contour>
      <point x="889" y="1287" type="move" name="top"/>
    </contour>
  </outline>
</glyph>
<glyph name="shadeva" format="1">
  <advance width="1547"/>
  <unicode hex="0936"/>
  <outline>
    <contour>
      <point x="620" y="548" type="line"/>
      <point x="901" y="113" type="line"/>
      <point x="643" y="-20" type="line"/>
      <point x="385" y="416" type="line"/>
    </contour>
    <contour>
      <point x="1255" y="1103" type="line"/>
      <point x="1554" y="1103" type="line"/>
      <point x="1367" y="0" type="line"/>
      <point x="1068" y="0" type="line"/>
    </contour>
    <contour>
      <point x="784" y="907" type="qcurve" smooth="yes"/>
      <point x="797" y="984"/>
      <point x="734" y="1057"/>
      <point x="681" y="1057" type="qcurve" smooth="yes"/>
      <point x="627" y="1057"/>
      <point x="548" y="980"/>
      <point x="537" y="916" type="qcurve" smooth="yes"/>
      <point x="532" y="883"/>
      <point x="533" y="871"/>
      <point x="531" y="843" type="qcurve"/>
      <point x="270" y="818" type="line"/>
      <point x="266" y="862"/>
      <point x="265" y="921"/>
      <point x="275" y="980" type="qcurve" smooth="yes"/>
      <point x="297" y="1110"/>
      <point x="535" y="1309"/>
      <point x="713" y="1309" type="qcurve" smooth="yes"/>
      <point x="913" y="1309"/>
      <point x="1112" y="1080"/>
      <point x="1079" y="886" type="qcurve" smooth="yes"/>
      <point x="1036" y="634"/>
      <point x="559" y="273"/>
      <point x="347" y="273" type="qcurve" smooth="yes"/>
      <point x="256" y="273"/>
      <point x="161" y="377"/>
      <point x="177" y="476" type="qcurve" smooth="yes"/>
      <point x="193" y="570"/>
      <point x="340" y="719"/>
      <point x="426" y="719" type="qcurve" smooth="yes"/>
      <point x="496" y="719"/>
      <point x="586" y="642"/>
      <point x="617" y="571" type="qcurve"/>
      <point x="380" y="571" type="line"/>
      <point x="551" y="604"/>
      <point x="759" y="760"/>
    </contour>
    <contour>
      <point x="1196" y="1076" type="line"/>
      <point x="1232" y="1293" type="line"/>
      <point x="1796" y="1293" type="line"/>
      <point x="1759" y="1076" type="line"/>
    </contour>
    <contour>
      <point x="1280" y="1287" type="move" name="top"/>
    </contour>
  </outline>
</glyph>
<glyph name="ssadeva" format="1">
  <advance width="1136"/>
  <unicode hex="0937"/>
  <outline>
    <contour>
      <point x="821" y="591" type="line"/>
      <point x="700" y="512" type="line"/>
      <point x="462" y="1150" type="line"/>
      <point x="580" y="1225" type="line"/>
    </contour>
    <component base="padeva" xOffset="-2"/>
    <contour>
      <point x="933" y="1291" type="move" name="top"/>
    </contour>
  </outline>
</glyph>
<glyph name="sadeva" format="1">
  <advance width="1421"/>
  <unicode hex="0938"/>
  <outline>
    <contour>
      <point x="153" y="1076" type="line"/>
      <point x="189" y="1293" type="line"/>
      <point x="1670" y="1293" type="line"/>
      <point x="1633" y="1076" type="line"/>
    </contour>
    <contour>
      <point x="533" y="707" type="line"/>
      <point x="1098" y="707" type="line"/>
      <point x="1058" y="463" type="line"/>
      <point x="389" y="463" type="line"/>
    </contour>
    <contour>
      <point x="1129" y="1103" type="line"/>
      <point x="1428" y="1103" type="line"/>
      <point x="1241" y="0" type="line"/>
      <point x="942" y="0" type="line"/>
    </contour>
    <contour>
      <point x="733" y="93" type="line"/>
      <point x="479" y="-39" type="line"/>
      <point x="80" y="712" type="line"/>
      <point x="316" y="864" type="line"/>
      <point x="427" y="717" type="line"/>
      <point x="423" y="688" type="line"/>
    </contour>
    <contour>
      <point x="378" y="709" type="line"/>
      <point x="441" y="709"/>
      <point x="514" y="776"/>
      <point x="529" y="859" type="qcurve" smooth="yes"/>
      <point x="573" y="1122" type="line"/>
      <point x="873" y="1122" type="line"/>
      <point x="823" y="834" type="line" smooth="yes"/>
      <point x="788" y="624"/>
      <point x="558" y="425"/>
      <point x="330" y="425" type="qcurve"/>
    </contour>
    <contour>
      <point x="1153" y="1287" type="move" name="top"/>
    </contour>
  </outline>
</glyph>
<glyph name="hadeva" format="1">
  <advance width="1116"/>
  <unicode hex="0939"/>
  <outline>
    <contour>
      <point x="214" y="798"/>
      <point x="416" y="942"/>
      <point x="595" y="942" type="qcurve" smooth="yes"/>
      <point x="861" y="942" type="line"/>
      <point x="784" y="875" type="line"/>
      <point x="823" y="1106" type="line"/>
      <point x="1123" y="1106" type="line"/>
      <point x="1056" y="708" type="line"/>
      <point x="625" y="708" type="line" smooth="yes"/>
      <point x="556" y="708"/>
      <point x="490" y="664"/>
      <point x="483" y="625" type="qcurve" smooth="yes"/>
      <point x="476" y="584"/>
      <point x="542" y="527"/>
      <point x="599" y="527" type="qcurve"/>
      <point x="430" y="346" type="line"/>
      <point x="294" y="396"/>
      <point x="175" y="572"/>
      <point x="194" y="679" type="qcurve" smooth="yes"/>
    </contour>
    <contour>
      <point x="873" y="573"/>
      <point x="1075" y="370"/>
      <point x="1049" y="223" type="qcurve" smooth="yes"/>
      <point x="1041" y="177"/>
      <point x="1019" y="122"/>
      <point x="995" y="77" type="qcurve"/>
      <point x="725" y="104" type="line"/>
      <point x="738" y="136"/>
      <point x="750" y="166"/>
      <point x="754" y="193" type="qcurve" smooth="yes"/>
      <point x="765" y="259"/>
      <point x="700" y="341"/>
      <point x="631" y="338" type="qcurve" smooth="yes"/>
      <point x="555" y="335"/>
      <point x="452" y="234"/>
      <point x="439" y="157" type="qcurve" smooth="yes"/>
      <point x="422" y="53"/>
      <point x="617" y="-67"/>
      <point x="879" y="-67" type="qcurve"/>
      <point x="804" y="-297" type="line"/>
      <point x="436" y="-297"/>
      <point x="106" y="-40"/>
      <point x="144" y="178" type="qcurve" smooth="yes"/>
      <point x="172" y="351"/>
      <point x="463" y="573"/>
      <point x="661" y="573" type="qcurve" smooth="yes"/>
    </contour>
    <contour>
      <point x="1328" y="1076" type="line"/>
      <point x="153" y="1076" type="line"/>
      <point x="189" y="1293" type="line"/>
      <point x="1364" y="1293" type="line"/>
    </contour>
    <contour>
      <point x="847" y="1287" type="move" name="top"/>
    </contour>
  </outline>
</glyph>
<glyph name="oevowelsigndevaKSH" format="1">
  <advance width="0"/>
  <unicode hex="093A"/>
  <outline>
    <contour>
      <point x="81" y="1492" type="line"/>
      <point x="28" y="1175" type="line"/>
      <point x="-271" y="1175" type="line"/>
      <point x="-218" y="1492" type="line"/>
    </contour>
    <contour>
      <point x="-149" y="1278" type="move" name="_top"/>
    </contour>
  </outline>
</glyph>
<glyph name="nuktadeva" format="1">
  <advance width="0"/>
  <unicode hex="093C"/>
  <outline>
    <contour>
      <point x="-694" y="-119" type="line"/>
      <point x="-945" y="-119" type="line"/>
      <point x="-911" y="83" type="line"/>
      <point x="-661" y="83" type="line"/>
    </contour>
  </outline>
</glyph>
<glyph name="aavowelsigndeva" format="1">
  <advance width="607"/>
  <unicode hex="093E"/>
  <outline>
    <contour>
      <point x="314" y="1103" type="line"/>
      <point x="614" y="1103" type="line"/>
      <point x="427" y="0" type="line"/>
      <point x="127" y="0" type="line"/>
    </contour>
    <contour>
      <point x="819" y="1076" type="line"/>
      <point x="153" y="1076" type="line"/>
      <point x="189" y="1293" type="line"/>
      <point x="855" y="1293" type="line"/>
    </contour>
  </outline>
</glyph>
<glyph name="iivowelsigndeva" format="1">
  <advance width="616"/>
  <unicode hex="0940"/>
  <outline>
    <contour>
      <point x="115" y="1250" type="line"/>
      <point x="57" y="1401"/>
      <point x="-79" y="1547"/>
      <point x="-152" y="1547" type="qcurve" smooth="yes"/>
      <point x="-202" y="1547"/>
      <point x="-254" y="1490"/>
      <point x="-254" y="1440" type="qcurve" smooth="yes"/>
      <point x="-254" y="1391"/>
      <point x="-214" y="1308"/>
      <point x="-182" y="1263" type="qcurve"/>
      <point x="-493" y="1263" type="line"/>
      <point x="-518" y="1296"/>
      <point x="-558" y="1419"/>
      <point x="-558" y="1488" type="qcurve" smooth="yes"/>
      <point x="-558" y="1625"/>
      <point x="-370" y="1795"/>
      <point x="-202" y="1795" type="qcurve" smooth="yes"/>
      <point x="15" y="1795"/>
      <point x="318" y="1526"/>
      <point x="406" y="1250" type="qcurve"/>
    </contour>
    <component base="aavowelsigndeva"/>
  </outline>
</glyph>
<glyph name="uvowelsigndeva" format="1">
  <advance width="0"/>
  <unicode hex="0941"/>
  <outline>
    <contour>
      <point x="-643" y="-26" type="line"/>
      <point x="-597" y="4"/>
      <point x="-443" y="47"/>
      <point x="-355" y="47" type="qcurve" smooth="yes"/>
      <point x="-178" y="47"/>
      <point x="23" y="-137"/>
      <point x="23" y="-270" type="qcurve" smooth="yes"/>
      <point x="23" y="-409"/>
      <point x="-198" y="-586"/>
      <point x="-372" y="-586" type="qcurve" smooth="yes"/>
      <point x="-509" y="-586"/>
      <point x="-799" y="-475"/>
      <point x="-940" y="-352" type="qcurve"/>
      <point x="-855" y="-144" type="line"/>
      <point x="-704" y="-277"/>
      <point x="-486" y="-361"/>
      <point x="-403" y="-361" type="qcurve" smooth="yes"/>
      <point x="-324" y="-361"/>
      <point x="-241" y="-307"/>
      <point x="-241" y="-256" type="qcurve" smooth="yes"/>
      <point x="-241" y="-210"/>
      <point x="-312" y="-158"/>
      <point x="-374" y="-158" type="qcurve" smooth="yes"/>
      <point x="-430" y="-158"/>
      <point x="-526" y="-184"/>
      <point x="-575" y="-210" type="qcurve"/>
    </contour>
    <contour>
      <point x="-475.0" y="-6.0" type="move" name="_btm"/>
    </contour>
  </outline>
</glyph>
<glyph name="uuvowelsigndeva" format="1">
  <advance width="0.0"/>
  <unicode hex="0942"/>
  <outline>
    <contour>
      <point x="-270" y="-586" type="line"/>
      <point x="-312" y="-600"/>
      <point x="-395" y="-609"/>
      <point x="-438" y="-609" type="qcurve" smooth="yes"/>
      <point x="-616" y="-609"/>
      <point x="-809" y="-419"/>
      <point x="-784" y="-271" type="qcurve" smooth="yes"/>
      <point x="-761" y="-137"/>
      <point x="-532" y="37"/>
      <point x="-356" y="37" type="qcurve" smooth="yes"/>
      <point x="-202" y="37"/>
      <point x="65" y="-155"/>
      <point x="173" y="-384" type="qcurve"/>
      <point x="-6" y="-546" type="line"/>
      <point x="-113" y="-328"/>
      <point x="-293" y="-193"/>
      <point x="-378" y="-193" type="qcurve" smooth="yes"/>
      <point x="-442" y="-193"/>
      <point x="-521" y="-251"/>
      <point x="-529" y="-297" type="qcurve" smooth="yes"/>
      <point x="-538" y="-347"/>
      <point x="-463" y="-399"/>
      <point x="-408" y="-399" type="qcurve" smooth="yes"/>
      <point x="-357" y="-399"/>
      <point x="-302" y="-392"/>
      <point x="-258" y="-386" type="qcurve"/>
    </contour>
    <contour>
      <point x="-469" y="-6" type="move" name="_btm"/>
    </contour>
  </outline>
</glyph>
<glyph name="rvocalicvowelsigndeva" format="1">
  <advance width="0"/>
  <unicode hex="0943"/>
  <outline>
    <contour>
      <point x="-191" y="-525" type="line"/>
      <point x="-226" y="-535"/>
      <point x="-354" y="-551"/>
      <point x="-407" y="-551" type="qcurve" smooth="yes"/>
      <point x="-577" y="-551"/>
      <point x="-779" y="-375"/>
      <point x="-756" y="-238" type="qcurve" smooth="yes"/>
      <point x="-734" y="-106"/>
      <point x="-521" y="58"/>
      <point x="-332" y="58" type="qcurve" smooth="yes"/>
      <point x="-171" y="58" type="line"/>
      <point x="-201" y="-119" type="line"/>
      <point x="-313" y="-119" type="line" smooth="yes"/>
      <point x="-383" y="-119"/>
      <point x="-476" y="-190"/>
      <point x="-485" y="-244" type="qcurve" smooth="yes"/>
      <point x="-493" y="-299"/>
      <point x="-427" y="-364"/>
      <point x="-375" y="-364" type="qcurve" smooth="yes"/>
      <point x="-322" y="-364"/>
      <point x="-214" y="-349"/>
      <point x="-191" y="-341" type="qcurve"/>
    </contour>
    <contour>
      <point x="-362" y="12" type="move" name="_btm"/>
    </contour>
  </outline>
</glyph>
<glyph name="rrvocalicvowelsigndeva" format="1">
  <advance width="0"/>
  <unicode hex="0944"/>
  <outline>
    <contour>
      <point x="-226" y="-610" type="line"/>
      <point x="-264" y="-631"/>
      <point x="-364" y="-652"/>
      <point x="-410" y="-652" type="qcurve" smooth="yes"/>
      <point x="-535" y="-652"/>
      <point x="-650" y="-532"/>
      <point x="-634" y="-438" type="qcurve" smooth="yes"/>
      <point x="-622" y="-362"/>
      <point x="-490" y="-259"/>
      <point x="-380" y="-259" type="qcurve" smooth="yes"/>
      <point x="-331" y="-259" type="line"/>
      <point x="-353" y="-388" type="line"/>
      <point x="-359" y="-388" type="line" smooth="yes"/>
      <point x="-407" y="-388"/>
      <point x="-455" y="-423"/>
      <point x="-460" y="-453" type="qcurve" smooth="yes"/>
      <point x="-464" y="-480"/>
      <point x="-425" y="-514"/>
      <point x="-382" y="-514" type="qcurve" smooth="yes"/>
      <point x="-344" y="-514"/>
      <point x="-260" y="-494"/>
      <point x="-230" y="-480" type="qcurve"/>
    </contour>
    <contour>
      <point x="-203" y="-364" type="line"/>
      <point x="-233" y="-380"/>
      <point x="-340" y="-400"/>
      <point x="-391" y="-400" type="qcurve" smooth="yes"/>
      <point x="-542" y="-400"/>
      <point x="-673" y="-270"/>
      <point x="-655" y="-165" type="qcurve" smooth="yes"/>
      <point x="-638" y="-66"/>
      <point x="-473" y="58"/>
      <point x="-328" y="58" type="qcurve" smooth="yes"/>
      <point x="-170" y="58" type="line"/>
      <point x="-200" y="-119" type="line"/>
      <point x="-339" y="-119" type="line" smooth="yes"/>
      <point x="-399" y="-119"/>
      <point x="-445" y="-152"/>
      <point x="-449" y="-177" type="qcurve" smooth="yes"/>
      <point x="-454" y="-206"/>
      <point x="-407" y="-240"/>
      <point x="-358" y="-240" type="qcurve" smooth="yes"/>
      <point x="-323" y="-240"/>
      <point x="-242" y="-226"/>
      <point x="-213" y="-219" type="qcurve"/>
    </contour>
    <contour>
      <point x="-362" y="12" type="move" name="_btm"/>
    </contour>
  </outline>
</glyph>
<glyph name="ecandravowelsigndeva" format="1">
  <advance width="0.0"/>
  <unicode hex="0945"/>
  <outline>
    <contour>
      <point x="-269" y="1599" type="qcurve" smooth="yes"/>
      <point x="-173" y="1599"/>
      <point x="14" y="1651"/>
      <point x="99" y="1714" type="qcurve"/>
      <point x="104" y="1514" type="line"/>
      <point x="36" y="1448"/>
      <point x="-182" y="1379"/>
      <point x="-307" y="1379" type="qcurve" smooth="yes"/>
      <point x="-418" y="1379"/>
      <point x="-622" y="1448"/>
      <point x="-690" y="1515" type="qcurve"/>
      <point x="-617" y="1720" type="line"/>
      <point x="-547" y="1658"/>
      <point x="-366" y="1599"/>
    </contour>
    <contour>
      <point x="-147" y="1291" type="move" name="_top"/>
    </contour>
  </outline>
</glyph>
<glyph name="eshortvowelsigndeva" format="1">
  <advance width="0.0"/>
  <unicode hex="0946"/>
  <outline>
    <contour>
      <point x="-252" y="1221" type="line"/>
      <point x="-238" y="1305" type="line" smooth="yes"/>
      <point x="-230" y="1351"/>
      <point x="-258" y="1400"/>
      <point x="-302" y="1400" type="qcurve" smooth="yes"/>
      <point x="-337" y="1400"/>
      <point x="-451" y="1377"/>
      <point x="-510" y="1377" type="qcurve" smooth="yes"/>
      <point x="-575" y="1377"/>
      <point x="-707" y="1436"/>
      <point x="-755" y="1485" type="qcurve"/>
      <point x="-638" y="1677" type="line"/>
      <point x="-604" y="1646"/>
      <point x="-511" y="1613"/>
      <point x="-460" y="1613" type="qcurve" smooth="yes"/>
      <point x="-408" y="1613"/>
      <point x="-232" y="1660"/>
      <point x="-162" y="1660" type="qcurve" smooth="yes"/>
      <point x="-47" y="1660"/>
      <point x="69" y="1507"/>
      <point x="41" y="1343" type="qcurve" smooth="yes"/>
      <point x="21" y="1221" type="line"/>
    </contour>
    <contour>
      <point x="-147" y="1291" type="move" name="_top"/>
    </contour>
  </outline>
</glyph>
<glyph name="evowelsigndeva" format="1">
  <advance width="0"/>
  <unicode hex="0947"/>
  <outline>
    <contour>
      <point x="-268" y="1256" type="line"/>
      <point x="-568" y="1692" type="line"/>
      <point x="-283" y="1838" type="line"/>
      <point x="38" y="1256" type="line"/>
    </contour>
    <contour>
      <point x="-250" y="1287" type="move" name="_top"/>
    </contour>
  </outline>
</glyph>
<glyph name="aivowelsigndeva" format="1">
  <advance width="0"/>
  <unicode hex="0948"/>
  <outline>
    <contour>
      <point x="-663" y="1256" type="line"/>
      <point x="-1099" y="1536" type="line"/>
      <point x="-897" y="1732" type="line"/>
      <point x="-292" y="1256" type="line"/>
    </contour>
    <contour>
      <point x="-426" y="1256" type="line"/>
      <point x="-679" y="1839" type="line"/>
      <point x="-399" y="1904" type="line"/>
      <point x="-190" y="1256" type="line"/>
    </contour>
    <contour>
      <point x="-475.0" y="1287.0" type="move" name="_top"/>
    </contour>
  </outline>
</glyph>
<glyph name="viramadeva" format="1">
  <advance width="0"/>
  <unicode hex="094D"/>
  <outline>
    <contour>
      <point x="-501" y="-90" type="line"/>
      <point x="-3" y="-332" type="line"/>
      <point x="-133" y="-522" type="line"/>
      <point x="-628" y="-283" type="line"/>
    </contour>
    <contour>
      <point x="-362" y="12" type="move" name="_btm"/>
    </contour>
  </outline>
</glyph>
<glyph name="prishthaevowelsign" format="1">
  <advance width="587"/>
  <unicode hex="094E"/>
  <outline>
    <contour>
      <point x="312" y="1103" type="line"/>
      <point x="607" y="1103" type="line"/>
      <point x="420" y="0" type="line"/>
      <point x="125" y="0" type="line"/>
    </contour>
    <contour>
      <point x="799" y="1076" type="line"/>
      <point x="307" y="1076" type="line"/>
      <point x="344" y="1293" type="line"/>
      <point x="835" y="1293" type="line"/>
    </contour>
  </outline>
</glyph>
<glyph name="awvowelsigndevaKSH" format="1">
  <advance width="607"/>
  <unicode hex="094F"/>
  <outline>
    <contour>
      <point x="436" y="1213" type="line"/>
      <point x="481" y="1470" type="line" smooth="yes"/>
      <point x="488" y="1516"/>
      <point x="451" y="1560"/>
      <point x="423" y="1560" type="qcurve" smooth="yes"/>
      <point x="392" y="1560"/>
      <point x="306" y="1533"/>
      <point x="249" y="1533" type="qcurve" smooth="yes"/>
      <point x="170" y="1533"/>
      <point x="55" y="1594"/>
      <point x="10" y="1639" type="qcurve"/>
      <point x="103" y="1804" type="line"/>
      <point x="152" y="1764"/>
      <point x="251" y="1731"/>
      <point x="289" y="1731" type="qcurve" smooth="yes"/>
      <point x="335" y="1731"/>
      <point x="474" y="1778"/>
      <point x="522" y="1778" type="qcurve" smooth="yes"/>
      <point x="609" y="1778"/>
      <point x="707" y="1652"/>
      <point x="685" y="1518" type="qcurve" smooth="yes"/>
      <point x="632" y="1213" type="line"/>
    </contour>
    <contour>
      <point x="333" y="1186" type="line"/>
      <point x="286" y="1290" type="line" smooth="yes"/>
      <point x="271" y="1321"/>
      <point x="242" y="1352"/>
      <point x="218" y="1352" type="qcurve" smooth="yes"/>
      <point x="183" y="1352"/>
      <point x="98" y="1326"/>
      <point x="33" y="1326" type="qcurve" smooth="yes"/>
      <point x="-25" y="1326"/>
      <point x="-128" y="1372"/>
      <point x="-167" y="1406" type="qcurve"/>
      <point x="-81" y="1579" type="line"/>
      <point x="-46" y="1547"/>
      <point x="35" y="1515"/>
      <point x="79" y="1515" type="qcurve" smooth="yes"/>
      <point x="121" y="1515"/>
      <point x="255" y="1552"/>
      <point x="306" y="1552" type="qcurve" smooth="yes"/>
      <point x="390" y="1552"/>
      <point x="487" y="1435"/>
      <point x="521" y="1340" type="qcurve" smooth="yes"/>
      <point x="579" y="1186" type="line"/>
    </contour>
    <component base="aavowelsigndeva" xOffset="3" yOffset="2"/>
  </outline>
</glyph>
<glyph name="omdeva" format="1">
  <advance width="1820"/>
  <unicode hex="0950"/>
  <outline>
    <contour>
      <point x="1273" y="227" type="qcurve"/>
      <point x="1329" y="427" type="line"/>
      <point x="1360" y="423"/>
      <point x="1397" y="421"/>
      <point x="1430" y="421" type="qcurve" smooth="yes"/>
      <point x="1480" y="421"/>
      <point x="1561" y="518"/>
      <point x="1577" y="610" type="qcurve" smooth="yes"/>
      <point x="1592" y="702"/>
      <point x="1546" y="779"/>
      <point x="1499" y="779" type="qcurve" smooth="yes"/>
      <point x="1456" y="779"/>
      <point x="1380" y="694"/>
      <point x="1334" y="565" type="qcurve" smooth="yes"/>
      <point x="1276" y="399"/>
      <point x="1084" y="258"/>
      <point x="926" y="258" type="qcurve" smooth="yes"/>
      <point x="868" y="258"/>
      <point x="804" y="274"/>
      <point x="774" y="282" type="qcurve"/>
      <point x="812" y="508" type="line"/>
      <point x="850" y="493"/>
      <point x="886" y="479"/>
      <point x="937" y="479" type="qcurve" smooth="yes"/>
      <point x="987" y="479"/>
      <point x="1048" y="535"/>
      <point x="1082" y="626" type="qcurve" smooth="yes"/>
      <point x="1154" y="819"/>
      <point x="1371" y="1007"/>
      <point x="1522" y="1007" type="qcurve" smooth="yes"/>
      <point x="1693" y="1007"/>
      <point x="1865" y="770"/>
      <point x="1838" y="604" type="qcurve" smooth="yes"/>
      <point x="1806" y="419"/>
      <point x="1575" y="207"/>
      <point x="1409" y="207" type="qcurve" smooth="yes"/>
      <point x="1370" y="207"/>
      <point x="1315" y="215"/>
    </contour>
    <contour>
      <point x="298" y="573" type="qcurve"/>
      <point x="338" y="807" type="line"/>
      <point x="501" y="807"/>
      <point x="645" y="902"/>
      <point x="656" y="965" type="qcurve" smooth="yes"/>
      <point x="664" y="1010"/>
      <point x="611" y="1077"/>
      <point x="559" y="1077" type="qcurve" smooth="yes"/>
      <point x="513" y="1077"/>
      <point x="410" y="1044"/>
      <point x="346" y="1019" type="qcurve"/>
      <point x="341" y="1239" type="line"/>
      <point x="415" y="1274"/>
      <point x="556" y="1307"/>
      <point x="661" y="1307" type="qcurve" smooth="yes"/>
      <point x="816" y="1307"/>
      <point x="984" y="1130"/>
      <point x="960" y="987" type="qcurve" smooth="yes"/>
      <point x="928" y="803"/>
      <point x="585" y="573"/>
    </contour>
    <contour>
      <point x="563" y="786" type="line"/>
      <point x="709" y="786"/>
      <point x="932" y="612"/>
      <point x="902" y="433" type="qcurve" smooth="yes"/>
      <point x="871" y="251"/>
      <point x="622" y="47"/>
      <point x="460" y="47" type="qcurve" smooth="yes"/>
      <point x="343" y="47"/>
      <point x="174" y="90"/>
      <point x="98" y="137" type="qcurve"/>
      <point x="181" y="366" type="line"/>
      <point x="255" y="332"/>
      <point x="371" y="297"/>
      <point x="437" y="297" type="qcurve" smooth="yes"/>
      <point x="501" y="297"/>
      <point x="594" y="379"/>
      <point x="604" y="445" type="qcurve" smooth="yes"/>
      <point x="614" y="502"/>
      <point x="562" y="585"/>
      <point x="472" y="591" type="qcurve"/>
    </contour>
    <component base="candrabindudeva" xOffset="1756" yOffset="-308"/>
  </outline>
</glyph>
<glyph name="anudattadeva" format="1">
  <advance width="0"/>
  <unicode hex="0952"/>
  <outline>
    <contour>
      <point x="-965" y="-263" type="line"/>
      <point x="-931" y="-57" type="line"/>
      <point x="-183" y="-57" type="line"/>
      <point x="-218" y="-263" type="line"/>
    </contour>
    <contour>
      <point x="-362" y="12" type="move" name="_btm"/>
    </contour>
  </outline>
</glyph>
<glyph name="uni0953" format="1">
  <advance width="0"/>
  <unicode hex="0953"/>
  <outline>
    <contour>
      <point x="46" y="1420" type="line"/>
      <point x="-207" y="1420" type="line"/>
      <point x="-358" y="1801" type="line"/>
      <point x="-25" y="1801" type="line"/>
    </contour>
    <contour>
      <point x="8" y="-9" type="move" name="x4"/>
    </contour>
  </outline>
</glyph>
<glyph name="uni0954" format="1">
  <advance width="0"/>
  <unicode hex="0954"/>
  <outline>
    <contour>
      <point x="-15" y="1801" type="line"/>
      <point x="315" y="1801" type="line"/>
      <point x="38" y="1420" type="line"/>
      <point x="-215" y="1420" type="line"/>
    </contour>
    <contour>
      <point x="8" y="-9" type="move" name="x4"/>
    </contour>
  </outline>
</glyph>
<glyph name="candralongevowelsigndeva" format="1">
  <advance width="0"/>
  <unicode hex="0955"/>
  <outline>
    <component base="ecandravowelsigndeva" yScale="0.888837277889" xOffset="249" yOffset="394"/>
    <component base="anudattadeva" yScale="0.840526126324" xOffset="246" yOffset="1603"/>
    <contour>
      <point x="-149" y="1279" type="move" name="_top"/>
    </contour>
  </outline>
</glyph>
<glyph name="uevowelsigndevaKSH" format="1">
  <advance width="0"/>
  <unicode hex="0956"/>
  <outline>
    <contour>
      <point x="40" y="-200" type="line"/>
      <point x="-48" y="-268"/>
      <point x="-250" y="-336"/>
      <point x="-374" y="-336" type="qcurve" smooth="yes"/>
      <point x="-489" y="-336"/>
      <point x="-683" y="-272"/>
      <point x="-762" y="-206" type="qcurve"/>
      <point x="-686" y="-29" type="line"/>
      <point x="-611" y="-90"/>
      <point x="-429" y="-143"/>
      <point x="-344" y="-143" type="qcurve" smooth="yes"/>
      <point x="-245" y="-143"/>
      <point x="-59" y="-80"/>
      <point x="16" y="-25" type="qcurve"/>
    </contour>
    <contour>
      <point x="-362" y="12" type="move" name="_btm"/>
    </contour>
  </outline>
</glyph>
<glyph name="uuevowelsigndevaKSH" format="1">
  <advance width="0"/>
  <unicode hex="0957"/>
  <outline>
    <component base="uevowelsigndevaKSH" yScale="0.915369153023" xOffset="-83" yOffset="-9"/>
    <component base="uevowelsigndevaKSH" xScale="1.05154466629" yScale="0.889850735664" xOffset="-66" yOffset="-259"/>
    <contour>
      <point x="-364" y="0" type="move" name="_btm"/>
    </contour>
  </outline>
</glyph>
<glyph name="qadeva" format="1">
  <advance width="1582"/>
  <unicode hex="0958"/>
  <outline>
    <component base="kadeva" xOffset="-20"/>
    <component base="nuktadeva" xOffset="935"/>
    <contour>
      <point x="666" y="0" type="move" name="btm"/>
    </contour>
    <contour>
      <point x="882" y="1279" type="move" name="top"/>
    </contour>
  </outline>
</glyph>
<glyph name="khhadeva" format="1">
  <advance width="1788"/>
  <unicode hex="0959"/>
  <outline>
    <component base="khadeva" xOffset="-21"/>
    <component base="nuktadeva" xOffset="1014"/>
    <contour>
      <point x="1406" y="1279" type="move" name="top"/>
    </contour>
  </outline>
</glyph>
<glyph name="ghhadeva" format="1">
  <advance width="1273"/>
  <unicode hex="095A"/>
  <outline>
    <component base="gadeva" xOffset="-22"/>
    <component base="nuktadeva" xOffset="1063"/>
    <contour>
      <point x="1033" y="1279" type="move" name="top"/>
    </contour>
  </outline>
</glyph>
<glyph name="zadeva" format="1">
  <advance width="1446"/>
  <unicode hex="095B"/>
  <outline>
    <component base="jadeva" xOffset="-34"/>
    <component base="nuktadeva" xOffset="966" yOffset="-79"/>
    <contour>
      <point x="1308" y="1279" type="move" name="top"/>
    </contour>
  </outline>
</glyph>
<glyph name="dddhadeva" format="1">
  <advance width="1118"/>
  <unicode hex="095C"/>
  <outline>
    <component base="ddadeva" xOffset="-47"/>
    <component base="nuktadeva" xOffset="1318" yOffset="-150"/>
    <contour>
      <point x="432" y="-413" type="move" name="btm"/>
    </contour>
    <contour>
      <point x="927" y="1278" type="move" name="top"/>
    </contour>
  </outline>
</glyph>
<glyph name="rhadeva" format="1">
  <advance width="1119"/>
  <unicode hex="095D"/>
  <outline>
    <component base="ddhadeva" xOffset="-49"/>
    <component base="nuktadeva" xOffset="1326" yOffset="-160"/>
    <contour>
      <point x="445" y="-401" type="move" name="btm"/>
    </contour>
    <contour>
      <point x="902" y="1279" type="move" name="top"/>
    </contour>
  </outline>
</glyph>
<glyph name="fadeva" format="1">
  <advance width="1611"/>
  <unicode hex="095E"/>
  <outline>
    <component base="phadeva" xOffset="-21"/>
    <component base="nuktadeva" xOffset="1054"/>
    <contour>
      <point x="701" y="0" type="move" name="btm"/>
    </contour>
    <contour>
      <point x="918" y="1279" type="move" name="top"/>
    </contour>
  </outline>
</glyph>
<glyph name="yyadeva" format="1">
  <advance width="1251"/>
  <unicode hex="095F"/>
  <outline>
    <component base="yadeva" xOffset="-22"/>
    <component base="nuktadeva" xOffset="1093"/>
    <contour>
      <point x="1032" y="1279" type="move" name="top"/>
    </contour>
  </outline>
</glyph>
<glyph name="rrvocalicdeva" format="1">
  <advance width="1606"/>
  <unicode hex="0960"/>
  <outline>
    <contour>
      <point x="1157" y="1076" type="line"/>
      <point x="1194" y="1293" type="line"/>
      <point x="1854" y="1293" type="line"/>
      <point x="1817" y="1076" type="line"/>
    </contour>
    <contour>
      <point x="153" y="1076" type="line"/>
      <point x="189" y="1293" type="line"/>
      <point x="1372" y="1293" type="line"/>
      <point x="1336" y="1076" type="line"/>
    </contour>
    <contour>
      <point x="836" y="1135" type="line"/>
      <point x="1136" y="1135" type="line"/>
      <point x="944" y="0" type="line"/>
      <point x="644" y="0" type="line"/>
    </contour>
    <contour>
      <point x="1484" y="783" type="line"/>
      <point x="1617" y="475" type="line"/>
      <point x="1583" y="364" type="line"/>
      <point x="1468" y="335"/>
      <point x="1396" y="278"/>
      <point x="1391" y="249" type="qcurve" smooth="yes"/>
      <point x="1386" y="222"/>
      <point x="1416" y="192"/>
      <point x="1458" y="192" type="qcurve" smooth="yes"/>
      <point x="1485" y="192"/>
      <point x="1524" y="199"/>
      <point x="1548" y="205" type="qcurve"/>
      <point x="1543" y="28" type="line"/>
      <point x="1502" y="14"/>
      <point x="1420" y="-2"/>
      <point x="1373" y="-2" type="qcurve" smooth="yes"/>
      <point x="1232" y="-2"/>
      <point x="1097" y="143"/>
      <point x="1115" y="252" type="qcurve" smooth="yes"/>
      <point x="1128" y="326"/>
      <point x="1253" y="466"/>
      <point x="1408" y="521" type="qcurve"/>
      <point x="1326" y="446" type="line"/>
      <point x="1253" y="623" type="line"/>
    </contour>
    <contour>
      <point x="1533" y="667" type="qcurve" smooth="yes"/>
      <point x="1452" y="597"/>
      <point x="1145" y="476"/>
      <point x="922" y="476" type="qcurve"/>
      <point x="987" y="735" type="line"/>
      <point x="1047" y="735"/>
      <point x="1226" y="759"/>
      <point x="1288" y="793" type="qcurve"/>
      <point x="1215" y="719" type="line"/>
      <point x="1201" y="754"/>
      <point x="1186" y="807"/>
      <point x="1193" y="850" type="qcurve" smooth="yes"/>
      <point x="1203" y="907"/>
      <point x="1312" y="980"/>
      <point x="1401" y="980" type="qcurve" smooth="yes"/>
      <point x="1499" y="980"/>
      <point x="1639" y="882"/>
      <point x="1626" y="807" type="qcurve" smooth="yes"/>
      <point x="1618" y="761"/>
      <point x="1571" y="701"/>
    </contour>
    <contour>
      <point x="943" y="455" type="line"/>
      <point x="301" y="79" type="line"/>
      <point x="180" y="313" type="line"/>
      <point x="875" y="692" type="line"/>
    </contour>
    <contour>
      <point x="158" y="874" type="line"/>
      <point x="211" y="903"/>
      <point x="379" y="951"/>
      <point x="473" y="951" type="qcurve" smooth="yes"/>
      <point x="554" y="951"/>
      <point x="689" y="902"/>
      <point x="767" y="855" type="qcurve" smooth="yes"/>
      <point x="919" y="759" type="line"/>
      <point x="871" y="471" type="line"/>
      <point x="684" y="597" type="line" smooth="yes"/>
      <point x="599" y="651"/>
      <point x="500" y="688"/>
      <point x="440" y="688" type="qcurve" smooth="yes"/>
      <point x="377" y="688"/>
      <point x="232" y="649"/>
      <point x="173" y="619" type="qcurve"/>
    </contour>
  </outline>
</glyph>
<glyph name="llvocalicdeva" format="1">
  <advance width="1480"/>
  <unicode hex="0961"/>
  <outline>
    <contour>
      <point x="1188" y="1103" type="line"/>
      <point x="1487" y="1103" type="line"/>
      <point x="1418" y="700" type="line"/>
      <point x="1119" y="700" type="line"/>
    </contour>
    <contour>
      <point x="153" y="1076" type="line"/>
      <point x="189" y="1293" type="line"/>
      <point x="1729" y="1293" type="line"/>
      <point x="1692" y="1076" type="line"/>
    </contour>
    <contour>
      <point x="916" y="636" type="qcurve"/>
      <point x="673" y="428" type="line"/>
      <point x="688" y="527"/>
      <point x="625" y="635"/>
      <point x="570" y="635" type="qcurve" smooth="yes"/>
      <point x="509" y="635"/>
      <point x="421" y="537"/>
      <point x="406" y="446" type="qcurve" smooth="yes"/>
      <point x="391" y="361"/>
      <point x="439" y="190"/>
      <point x="490" y="92" type="qcurve"/>
      <point x="238" y="9" type="line"/>
      <point x="179" y="95"/>
      <point x="108" y="361"/>
      <point x="130" y="488" type="qcurve" smooth="yes"/>
      <point x="164" y="690"/>
      <point x="402" y="899"/>
      <point x="564" y="899" type="qcurve" smooth="yes"/>
      <point x="723" y="899"/>
      <point x="900" y="726"/>
    </contour>
    <contour>
      <point x="1320" y="263" type="line" smooth="yes"/>
      <point x="1244" y="263"/>
      <point x="1189" y="225"/>
      <point x="1184" y="196" type="qcurve" smooth="yes"/>
      <point x="1179" y="167"/>
      <point x="1222" y="134"/>
      <point x="1266" y="134" type="qcurve" smooth="yes"/>
      <point x="1300" y="134"/>
      <point x="1381" y="148"/>
      <point x="1412" y="155" type="qcurve"/>
      <point x="1421" y="10" type="line"/>
      <point x="1390" y="-6"/>
      <point x="1284" y="-26"/>
      <point x="1233" y="-26" type="qcurve" smooth="yes"/>
      <point x="1083" y="-26"/>
      <point x="952" y="112"/>
      <point x="969" y="217" type="qcurve" smooth="yes"/>
      <point x="985" y="306"/>
      <point x="1147" y="420"/>
      <point x="1283" y="420" type="qcurve" smooth="yes"/>
      <point x="1358" y="420" type="line"/>
      <point x="1178" y="348" type="line"/>
      <point x="1184" y="364"/>
      <point x="1199" y="420"/>
      <point x="1207" y="463" type="qcurve" smooth="yes"/>
      <point x="1221" y="554"/>
      <point x="1174" y="642"/>
      <point x="1119" y="642" type="qcurve" smooth="yes"/>
      <point x="1058" y="642"/>
      <point x="970" y="520"/>
      <point x="952" y="408" type="qcurve" smooth="yes"/>
      <point x="927" y="260" type="line"/>
      <point x="637" y="260" type="line"/>
      <point x="664" y="421" type="line" smooth="yes"/>
      <point x="699" y="631"/>
      <point x="957" y="898"/>
      <point x="1137" y="898" type="qcurve" smooth="yes"/>
      <point x="1343" y="898"/>
      <point x="1519" y="646"/>
      <point x="1486" y="454" type="qcurve" smooth="yes"/>
      <point x="1478" y="407"/>
      <point x="1445" y="310"/>
      <point x="1422" y="263" type="qcurve"/>
    </contour>
    <contour>
      <point x="1400" y="-228" type="line"/>
      <point x="1360" y="-249"/>
      <point x="1261" y="-270"/>
      <point x="1215" y="-270" type="qcurve" smooth="yes"/>
      <point x="1090" y="-270"/>
      <point x="974" y="-150"/>
      <point x="990" y="-56" type="qcurve" smooth="yes"/>
      <point x="1003" y="20"/>
      <point x="1136" y="123"/>
      <point x="1245" y="123" type="qcurve" smooth="yes"/>
      <point x="1304" y="123" type="line"/>
      <point x="1282" y="-6" type="line"/>
      <point x="1277" y="-6" type="line" smooth="yes"/>
      <point x="1228" y="-6"/>
      <point x="1180" y="-41"/>
      <point x="1175" y="-71" type="qcurve" smooth="yes"/>
      <point x="1170" y="-98"/>
      <point x="1206" y="-132"/>
      <point x="1242" y="-132" type="qcurve" smooth="yes"/>
      <point x="1281" y="-132"/>
      <point x="1365" y="-112"/>
      <point x="1395" y="-98" type="qcurve"/>
    </contour>
  </outline>
</glyph>
<glyph name="lvocalicvowelsigndeva" format="1">
  <advance width="0"/>
  <unicode hex="0962"/>
  <outline>
    <contour>
      <point x="46" y="-104" type="qcurve" smooth="yes"/>
      <point x="46" y="-134"/>
      <point x="35" y="-203"/>
      <point x="26" y="-227" type="qcurve"/>
      <point x="-16" y="-227" type="line" smooth="yes"/>
      <point x="-54" y="-227"/>
      <point x="-80" y="-246"/>
      <point x="-80" y="-262" type="qcurve" smooth="yes"/>
      <point x="-80" y="-282"/>
      <point x="-45" y="-299"/>
      <point x="-25" y="-299" type="qcurve" smooth="yes"/>
      <point x="-3" y="-299"/>
      <point x="39" y="-291"/>
      <point x="56" y="-287" type="qcurve"/>
      <point x="69" y="-372" type="line"/>
      <point x="52" y="-378"/>
      <point x="-2" y="-386"/>
      <point x="-28" y="-386" type="qcurve" smooth="yes"/>
      <point x="-114" y="-386"/>
      <point x="-213" y="-315"/>
      <point x="-213" y="-258" type="qcurve" smooth="yes"/>
      <point x="-213" y="-205"/>
      <point x="-119" y="-142"/>
      <point x="-64" y="-142" type="qcurve" smooth="yes"/>
      <point x="-25" y="-142" type="line"/>
      <point x="-113" y="-168" type="line"/>
      <point x="-112" y="-157"/>
      <point x="-109" y="-136"/>
      <point x="-109" y="-116" type="qcurve" smooth="yes"/>
      <point x="-109" y="-97"/>
      <point x="-143" y="-70"/>
      <point x="-167" y="-70" type="qcurve" smooth="yes"/>
      <point x="-200" y="-70"/>
      <point x="-238" y="-117"/>
      <point x="-238" y="-154" type="qcurve" smooth="yes"/>
      <point x="-238" y="-220" type="line"/>
      <point x="-431" y="-220" type="line"/>
      <point x="-431" y="-132" type="line" smooth="yes"/>
      <point x="-431" y="-73"/>
      <point x="-271" y="78"/>
      <point x="-168" y="78" type="qcurve" smooth="yes"/>
      <point x="-74" y="78"/>
      <point x="46" y="-32"/>
    </contour>
    <contour>
      <point x="-431" y="-156" type="line"/>
      <point x="-431" y="-126"/>
      <point x="-477" y="-74"/>
      <point x="-512" y="-74" type="qcurve" smooth="yes"/>
      <point x="-537" y="-74"/>
      <point x="-568" y="-105"/>
      <point x="-568" y="-131" type="qcurve" smooth="yes"/>
      <point x="-568" y="-166"/>
      <point x="-521" y="-245"/>
      <point x="-459" y="-301" type="qcurve"/>
      <point x="-597" y="-353" type="line"/>
      <point x="-659" y="-313"/>
      <point x="-738" y="-178"/>
      <point x="-738" y="-109" type="qcurve" smooth="yes"/>
      <point x="-738" y="-25"/>
      <point x="-626" y="78"/>
      <point x="-538" y="78" type="qcurve" smooth="yes"/>
      <point x="-411" y="78"/>
      <point x="-270" y="-71"/>
      <point x="-270" y="-137" type="qcurve"/>
    </contour>
    <contour>
      <point x="-370.0" y="12.0" type="move" name="_btm"/>
    </contour>
  </outline>
</glyph>
<glyph name="llvocalicvowelsigndeva" format="1">
  <advance width="0"/>
  <unicode hex="0963"/>
  <outline>
    <contour>
      <point x="-451" y="-156" type="line"/>
      <point x="-446" y="-126"/>
      <point x="-483" y="-74"/>
      <point x="-517" y="-74" type="qcurve" smooth="yes"/>
      <point x="-542" y="-74"/>
      <point x="-577" y="-105"/>
      <point x="-582" y="-131" type="qcurve" smooth="yes"/>
      <point x="-588" y="-166"/>
      <point x="-555" y="-245"/>
      <point x="-503" y="-301" type="qcurve"/>
      <point x="-648" y="-353" type="line"/>
      <point x="-702" y="-313"/>
      <point x="-757" y="-178"/>
      <point x="-746" y="-109" type="qcurve" smooth="yes"/>
      <point x="-731" y="-25"/>
      <point x="-604" y="78"/>
      <point x="-517" y="78" type="qcurve" smooth="yes"/>
      <point x="-392" y="78"/>
      <point x="-278" y="-71"/>
      <point x="-290" y="-137" type="qcurve"/>
    </contour>
    <contour>
      <point x="-49" y="-200" type="line" smooth="yes"/>
      <point x="-87" y="-200"/>
      <point x="-115" y="-216"/>
      <point x="-118" y="-232" type="qcurve" smooth="yes"/>
      <point x="-121" y="-249"/>
      <point x="-89" y="-264"/>
      <point x="-69" y="-264" type="qcurve" smooth="yes"/>
      <point x="-47" y="-264"/>
      <point x="-5" y="-256"/>
      <point x="13" y="-252" type="qcurve"/>
      <point x="11" y="-325" type="line"/>
      <point x="-7" y="-331"/>
      <point x="-61" y="-339"/>
      <point x="-87" y="-339" type="qcurve" smooth="yes"/>
      <point x="-171" y="-339"/>
      <point x="-254" y="-278"/>
      <point x="-246" y="-231" type="qcurve" smooth="yes"/>
      <point x="-238" y="-188"/>
      <point x="-151" y="-137"/>
      <point x="-87" y="-137" type="qcurve" smooth="yes"/>
      <point x="-48" y="-137" type="line"/>
      <point x="-140" y="-168" type="line"/>
      <point x="-137" y="-157"/>
      <point x="-130" y="-136"/>
      <point x="-127" y="-116" type="qcurve" smooth="yes"/>
      <point x="-124" y="-97"/>
      <point x="-153" y="-70"/>
      <point x="-176" y="-70" type="qcurve" smooth="yes"/>
      <point x="-209" y="-70"/>
      <point x="-254" y="-117"/>
      <point x="-260" y="-154" type="qcurve" smooth="yes"/>
      <point x="-272" y="-220" type="line"/>
      <point x="-462" y="-220" type="line"/>
      <point x="-447" y="-132" type="line" smooth="yes"/>
      <point x="-437" y="-73"/>
      <point x="-254" y="78"/>
      <point x="-153" y="78" type="qcurve" smooth="yes"/>
      <point x="-60" y="78"/>
      <point x="40" y="-32"/>
      <point x="28" y="-104" type="qcurve" smooth="yes"/>
      <point x="23" y="-134"/>
      <point x="5" y="-176"/>
      <point x="-8" y="-200" type="qcurve"/>
    </contour>
    <contour>
      <point x="6" y="-439" type="line"/>
      <point x="-12" y="-444"/>
      <point x="-68" y="-454"/>
      <point x="-96" y="-454" type="qcurve" smooth="yes"/>
      <point x="-167" y="-454"/>
      <point x="-228" y="-406"/>
      <point x="-221" y="-365" type="qcurve" smooth="yes"/>
      <point x="-215" y="-332"/>
      <point x="-137" y="-285"/>
      <point x="-82" y="-285" type="qcurve" smooth="yes"/>
      <point x="-33" y="-285" type="line"/>
      <point x="-52" y="-335" type="line"/>
      <point x="-55" y="-335" type="line" smooth="yes"/>
      <point x="-84" y="-335"/>
      <point x="-115" y="-349"/>
      <point x="-117" y="-363" type="qcurve" smooth="yes"/>
      <point x="-120" y="-378"/>
      <point x="-95" y="-393"/>
      <point x="-77" y="-393" type="qcurve" smooth="yes"/>
      <point x="-54" y="-393"/>
      <point x="-18" y="-386"/>
      <point x="0" y="-381" type="qcurve"/>
    </contour>
    <contour>
      <point x="-362" y="12" type="move" name="_btm"/>
    </contour>
  </outline>
</glyph>
<glyph name="dandadeva" format="1">
  <advance width="967"/>
  <unicode hex="0964"/>
  <outline>
    <contour>
      <point x="306" y="-167" type="line"/>
      <point x="572" y="1401" type="line"/>
      <point x="870" y="1401" type="line"/>
      <point x="604" y="-167" type="line"/>
    </contour>
  </outline>
</glyph>
<glyph name="zerodeva" format="1">
  <advance width="1140"/>
  <unicode hex="0966"/>
  <outline>
    <contour>
      <point x="975" y="1114"/>
      <point x="1210" y="850"/>
      <point x="1175" y="645" type="qcurve" smooth="yes"/>
      <point x="1142" y="451"/>
      <point x="822" y="189"/>
      <point x="602" y="189" type="qcurve" smooth="yes"/>
      <point x="380" y="189"/>
      <point x="141" y="448"/>
      <point x="174" y="647" type="qcurve" smooth="yes"/>
      <point x="209" y="849"/>
      <point x="529" y="1114"/>
      <point x="744" y="1114" type="qcurve" smooth="yes"/>
    </contour>
    <contour>
      <point x="727" y="420"/>
      <point x="861" y="546"/>
      <point x="879" y="652" type="qcurve" smooth="yes"/>
      <point x="896" y="754"/>
      <point x="803" y="883"/>
      <point x="715" y="883" type="qcurve" smooth="yes"/>
      <point x="624" y="883"/>
      <point x="491" y="753"/>
      <point x="473" y="648" type="qcurve" smooth="yes"/>
      <point x="456" y="546"/>
      <point x="553" y="420"/>
      <point x="634" y="420" type="qcurve" smooth="yes"/>
    </contour>
  </outline>
</glyph>
<glyph name="onedeva" format="1">
  <advance width="898"/>
  <unicode hex="0967"/>
  <outline>
    <contour>
      <point x="479" y="190" type="qcurve" smooth="yes"/>
      <point x="167" y="393" type="line"/>
      <point x="175" y="457" type="line"/>
      <point x="546" y="730" type="line" smooth="yes"/>
      <point x="619" y="783"/>
      <point x="728" y="894"/>
      <point x="739" y="959" type="qcurve" smooth="yes"/>
      <point x="747" y="1007"/>
      <point x="687" y="1080"/>
      <point x="626" y="1080" type="qcurve" smooth="yes"/>
      <point x="571" y="1080"/>
      <point x="494" y="1008"/>
      <point x="486" y="956" type="qcurve" smooth="yes"/>
      <point x="474" y="885"/>
      <point x="584" y="796"/>
      <point x="704" y="796" type="qcurve"/>
      <point x="609" y="604" type="line"/>
      <point x="426" y="604"/>
      <point x="179" y="806"/>
      <point x="206" y="962" type="qcurve" smooth="yes"/>
      <point x="230" y="1098"/>
      <point x="469" y="1298"/>
      <point x="664" y="1298" type="qcurve" smooth="yes"/>
      <point x="853" y="1298"/>
      <point x="1035" y="1093"/>
      <point x="1012" y="956" type="qcurve" smooth="yes"/>
      <point x="999" y="876"/>
      <point x="896" y="720"/>
      <point x="756" y="612" type="qcurve" smooth="yes"/>
      <point x="496" y="411" type="line"/>
      <point x="493" y="464" type="line"/>
      <point x="742" y="299" type="line" smooth="yes"/>
      <point x="797" y="263"/>
      <point x="833" y="163"/>
      <point x="821" y="87" type="qcurve" smooth="yes"/>
      <point x="810" y="22" type="line"/>
      <point x="510" y="22" type="line"/>
      <point x="518" y="70" type="line" smooth="yes"/>
      <point x="526" y="119"/>
      <point x="515" y="166"/>
    </contour>
  </outline>
</glyph>
<glyph name="twodeva" format="1">
  <advance width="947"/>
  <unicode hex="0968"/>
  <outline>
    <contour>
      <point x="605" y="548" type="line"/>
      <point x="887" y="113" type="line"/>
      <point x="628" y="-20" type="line"/>
      <point x="370" y="416" type="line"/>
    </contour>
    <contour>
      <point x="330" y="321" type="qcurve" smooth="yes"/>
      <point x="239" y="321"/>
      <point x="142" y="415"/>
      <point x="159" y="514" type="qcurve" smooth="yes"/>
      <point x="174" y="608"/>
      <point x="321" y="757"/>
      <point x="407" y="757" type="qcurve" smooth="yes"/>
      <point x="478" y="757"/>
      <point x="568" y="680"/>
      <point x="599" y="609" type="qcurve"/>
      <point x="329" y="591" type="line"/>
      <point x="459" y="599"/>
      <point x="705" y="757"/>
      <point x="726" y="876" type="qcurve" smooth="yes"/>
      <point x="739" y="955"/>
      <point x="638" y="1052"/>
      <point x="555" y="1052" type="qcurve" smooth="yes"/>
      <point x="490" y="1052"/>
      <point x="345" y="1019"/>
      <point x="276" y="993" type="qcurve"/>
      <point x="289" y="1223" type="line"/>
      <point x="347" y="1248"/>
      <point x="518" y="1284"/>
      <point x="594" y="1284" type="qcurve" smooth="yes"/>
      <point x="829" y="1284"/>
      <point x="1051" y="1043"/>
      <point x="1022" y="872" type="qcurve" smooth="yes"/>
      <point x="985" y="651"/>
      <point x="561" y="321"/>
    </contour>
  </outline>
</glyph>
<glyph name="threedeva" format="1">
  <advance width="957"/>
  <unicode hex="0969"/>
  <outline>
    <contour>
      <point x="380" y="868" type="line"/>
      <point x="441" y="868" type="line" smooth="yes"/>
      <point x="548" y="868"/>
      <point x="687" y="932"/>
      <point x="696" y="988" type="qcurve" smooth="yes"/>
      <point x="705" y="1040"/>
      <point x="639" y="1090"/>
      <point x="588" y="1090" type="qcurve" smooth="yes"/>
      <point x="541" y="1090"/>
      <point x="421" y="1057"/>
      <point x="348" y="1027" type="qcurve"/>
      <point x="353" y="1237" type="line"/>
      <point x="409" y="1262"/>
      <point x="571" y="1294"/>
      <point x="623" y="1294" type="qcurve" smooth="yes"/>
      <point x="838" y="1294"/>
      <point x="1016" y="1113"/>
      <point x="994" y="985" type="qcurve" smooth="yes"/>
      <point x="971" y="851"/>
      <point x="682" y="638"/>
      <point x="448" y="638" type="qcurve" smooth="yes"/>
      <point x="342" y="638" type="line"/>
    </contour>
    <contour>
      <point x="647" y="521" type="qcurve" smooth="yes"/>
      <point x="655" y="572"/>
      <point x="579" y="649"/>
      <point x="500" y="649" type="qcurve"/>
      <point x="541" y="853" type="line"/>
      <point x="720" y="863"/>
      <point x="969" y="666"/>
      <point x="943" y="506" type="qcurve" smooth="yes"/>
      <point x="917" y="357"/>
      <point x="626" y="178"/>
      <point x="485" y="178" type="qcurve" smooth="yes"/>
      <point x="378" y="178"/>
      <point x="266" y="222"/>
      <point x="205" y="257" type="qcurve"/>
      <point x="266" y="472" type="line"/>
      <point x="334" y="436"/>
      <point x="467" y="408"/>
      <point x="509" y="408" type="qcurve" smooth="yes"/>
      <point x="548" y="408"/>
      <point x="636" y="461"/>
    </contour>
    <contour>
      <point x="773" y="26" type="line"/>
      <point x="531" y="-82" type="line"/>
      <point x="336" y="237" type="line"/>
      <point x="465" y="179" type="line"/>
      <point x="373" y="179" type="line" smooth="yes"/>
      <point x="249" y="179"/>
      <point x="114" y="266"/>
      <point x="127" y="343" type="qcurve" smooth="yes"/>
      <point x="138" y="409"/>
      <point x="244" y="505"/>
      <point x="329" y="505" type="qcurve" smooth="yes"/>
      <point x="418" y="505"/>
      <point x="556" y="409"/>
      <point x="607" y="347" type="qcurve"/>
      <point x="599" y="305" type="line"/>
    </contour>
  </outline>
</glyph>
<glyph name="fourdeva" format="1">
  <advance width="1053"/>
  <unicode hex="096A"/>
  <outline>
    <contour>
      <point x="741" y="754" type="qcurve" smooth="yes"/>
      <point x="871" y="669"/>
      <point x="1005" y="474"/>
      <point x="988" y="370" type="qcurve" smooth="yes"/>
      <point x="964" y="230"/>
      <point x="714" y="68"/>
      <point x="556" y="68" type="qcurve" smooth="yes"/>
      <point x="400" y="68"/>
      <point x="196" y="244"/>
      <point x="219" y="380" type="qcurve" smooth="yes"/>
      <point x="238" y="495"/>
      <point x="438" y="682"/>
      <point x="576" y="752" type="qcurve" smooth="yes"/>
      <point x="784" y="857"/>
      <point x="900" y="988"/>
      <point x="913" y="1063" type="qcurve" smooth="yes"/>
      <point x="920" y="1107"/>
      <point x="922" y="1168"/>
      <point x="910" y="1228" type="qcurve"/>
      <point x="1197" y="1256" type="line"/>
      <point x="1210" y="1192"/>
      <point x="1216" y="1115"/>
      <point x="1207" y="1059" type="qcurve" smooth="yes"/>
      <point x="1177" y="886"/>
      <point x="884" y="643"/>
      <point x="690" y="549" type="qcurve" smooth="yes"/>
      <point x="590" y="500"/>
      <point x="508" y="424"/>
      <point x="501" y="383" type="qcurve" smooth="yes"/>
      <point x="493" y="335"/>
      <point x="550" y="285"/>
      <point x="591" y="285" type="qcurve" smooth="yes"/>
      <point x="636" y="285"/>
      <point x="706" y="335"/>
      <point x="713" y="377" type="qcurve" smooth="yes"/>
      <point x="720" y="417"/>
      <point x="665" y="486"/>
      <point x="547" y="560" type="qcurve" smooth="yes"/>
      <point x="430" y="634"/>
      <point x="203" y="894"/>
      <point x="232" y="1068" type="qcurve" smooth="yes"/>
      <point x="242" y="1131"/>
      <point x="280" y="1211"/>
      <point x="311" y="1263" type="qcurve"/>
      <point x="584" y="1218" type="line"/>
      <point x="558" y="1173"/>
      <point x="529" y="1098"/>
      <point x="522" y="1061" type="qcurve" smooth="yes"/>
      <point x="506" y="968"/>
      <point x="613" y="837"/>
    </contour>
  </outline>
</glyph>
<glyph name="fivedeva" format="1">
  <advance width="1026"/>
  <unicode hex="096B"/>
  <outline>
    <contour>
      <point x="611" y="575" type="qcurve" smooth="yes"/>
      <point x="632" y="575"/>
      <point x="676" y="580"/>
      <point x="721" y="585" type="qcurve"/>
      <point x="606" y="504" type="line"/>
      <point x="602" y="546"/>
      <point x="602" y="606"/>
      <point x="608" y="639" type="qcurve" smooth="yes"/>
      <point x="619" y="706"/>
      <point x="738" y="805"/>
      <point x="838" y="805" type="qcurve" smooth="yes"/>
      <point x="952" y="805"/>
      <point x="1074" y="682"/>
      <point x="1059" y="591" type="qcurve" smooth="yes"/>
      <point x="1043" y="502"/>
      <point x="814" y="341"/>
      <point x="602" y="341" type="qcurve" smooth="yes"/>
      <point x="378" y="341"/>
      <point x="130" y="569"/>
      <point x="163" y="763" type="qcurve" smooth="yes"/>
      <point x="190" y="925"/>
      <point x="459" y="1226"/>
      <point x="669" y="1309" type="qcurve"/>
      <point x="838" y="1140" type="line"/>
      <point x="651" y="1051"/>
      <point x="482" y="859"/>
      <point x="465" y="762" type="qcurve" smooth="yes"/>
      <point x="450" y="675"/>
      <point x="543" y="575"/>
    </contour>
    <contour>
      <point x="623" y="478" type="line"/>
      <point x="877" y="546" type="line"/>
      <point x="1047" y="82" type="line"/>
      <point x="774" y="5" type="line"/>
    </contour>
  </outline>
</glyph>
<glyph name="sixdeva" format="1">
  <advance width="987"/>
  <unicode hex="096C"/>
  <outline>
    <contour>
      <point x="622" y="877" type="qcurve"/>
      <point x="582" y="670" type="line"/>
      <point x="379" y="670"/>
      <point x="111" y="843"/>
      <point x="111" y="993" type="qcurve" smooth="yes"/>
      <point x="111" y="1121"/>
      <point x="313" y="1294"/>
      <point x="541" y="1294" type="qcurve" smooth="yes"/>
      <point x="608" y="1294"/>
      <point x="776" y="1268"/>
      <point x="841" y="1243" type="qcurve"/>
      <point x="804" y="1034" type="line"/>
      <point x="746" y="1055"/>
      <point x="626" y="1082"/>
      <point x="566" y="1082" type="qcurve" smooth="yes"/>
      <point x="491" y="1082"/>
      <point x="415" y="1023"/>
      <point x="415" y="978" type="qcurve" smooth="yes"/>
      <point x="415" y="920"/>
      <point x="539" y="867"/>
    </contour>
    <contour>
      <point x="572.0" y="141.0" type="qcurve" smooth="yes"/>
      <point x="352.0" y="141.0"/>
      <point x="98.0" y="328.0"/>
      <point x="98.0" y="500.0" type="qcurve" smooth="yes"/>
      <point x="98.0" y="661.0"/>
      <point x="395.0" y="880.0"/>
      <point x="656.0" y="880.0" type="qcurve" smooth="yes"/>
      <point x="760.0" y="880.0" type="line"/>
      <point x="760.0" y="650.0" type="line"/>
      <point x="665.0" y="650.0" type="line" smooth="yes"/>
      <point x="527.0" y="650.0"/>
      <point x="402" y="552"/>
      <point x="402.0" y="495.0" type="qcurve" smooth="yes"/>
      <point x="402" y="439"/>
      <point x="471" y="375"/>
      <point x="523" y="375" type="qcurve" smooth="yes"/>
      <point x="534" y="375"/>
      <point x="594" y="378"/>
      <point x="631" y="385" type="qcurve"/>
      <point x="528.0" y="274.0" type="line"/>
      <point x="517.0" y="316.0"/>
      <point x="507.0" y="366.0"/>
      <point x="507.0" y="399.0" type="qcurve" smooth="yes"/>
      <point x="507.0" y="468.0"/>
      <point x="599.0" y="558.0"/>
      <point x="703.0" y="558.0" type="qcurve" smooth="yes"/>
      <point x="797.0" y="558.0"/>
      <point x="953.0" y="443.0"/>
      <point x="953.0" y="361.0" type="qcurve" smooth="yes"/>
      <point x="953.0" y="272.0"/>
      <point x="747.0" y="141.0"/>
    </contour>
    <contour>
      <point x="550" y="248" type="line"/>
      <point x="796" y="316" type="line"/>
      <point x="971" y="25" type="line"/>
      <point x="707" y="-52" type="line"/>
    </contour>
  </outline>
</glyph>
<glyph name="sevendeva" format="1">
  <advance width="1172"/>
  <unicode hex="096D"/>
  <outline>
    <contour>
      <point x="928" y="384" type="line"/>
      <point x="741" y="384"/>
      <point x="518" y="584"/>
      <point x="544" y="733" type="qcurve" smooth="yes"/>
      <point x="567" y="871"/>
      <point x="777" y="1043"/>
      <point x="920" y="1043" type="qcurve" smooth="yes"/>
      <point x="1084" y="1043"/>
      <point x="1263" y="827"/>
      <point x="1234" y="660" type="qcurve" smooth="yes"/>
      <point x="1197" y="434"/>
      <point x="860" y="111"/>
      <point x="626" y="111" type="qcurve" smooth="yes"/>
      <point x="399" y="111"/>
      <point x="131" y="428"/>
      <point x="178" y="708" type="qcurve" smooth="yes"/>
      <point x="203" y="854"/>
      <point x="347" y="1166"/>
      <point x="433" y="1278" type="qcurve"/>
      <point x="721" y="1234" type="line"/>
      <point x="639" y="1125"/>
      <point x="487" y="816"/>
      <point x="468" y="702" type="qcurve" smooth="yes"/>
      <point x="432" y="494"/>
      <point x="558" y="334"/>
      <point x="672" y="334" type="qcurve" smooth="yes"/>
      <point x="780" y="334"/>
      <point x="944" y="518"/>
      <point x="969" y="671" type="qcurve" smooth="yes"/>
      <point x="983" y="751"/>
      <point x="940" y="829"/>
      <point x="895" y="829" type="qcurve" smooth="yes"/>
      <point x="860" y="829"/>
      <point x="805" y="778"/>
      <point x="796" y="727" type="qcurve" smooth="yes"/>
      <point x="785" y="664"/>
      <point x="908" y="578"/>
      <point x="1057" y="568" type="qcurve"/>
    </contour>
  </outline>
</glyph>
<glyph name="eightdeva" format="1">
  <advance width="959"/>
  <unicode hex="096E"/>
  <outline>
    <contour>
      <point x="843" y="1284" type="line"/>
      <point x="1043" y="1113" type="line"/>
      <point x="629" y="768" type="line" smooth="yes"/>
      <point x="545" y="697"/>
      <point x="463" y="580"/>
      <point x="452" y="519" type="qcurve" smooth="yes"/>
      <point x="438" y="434"/>
      <point x="539" y="346"/>
      <point x="614" y="347" type="qcurve" smooth="yes"/>
      <point x="711" y="348"/>
      <point x="809" y="369"/>
      <point x="908" y="398" type="qcurve"/>
      <point x="910" y="174" type="line"/>
      <point x="831" y="147"/>
      <point x="657" y="112"/>
      <point x="558" y="112" type="qcurve" smooth="yes"/>
      <point x="338" y="112"/>
      <point x="101" y="342"/>
      <point x="133" y="531" type="qcurve" smooth="yes"/>
      <point x="150" y="629"/>
      <point x="292" y="841"/>
      <point x="410" y="936" type="qcurve" smooth="yes"/>
    </contour>
  </outline>
</glyph>
<glyph name="ninedeva" format="1">
  <advance width="966"/>
  <unicode hex="096F"/>
  <outline>
    <contour>
      <point x="554" y="565" type="qcurve"/>
      <point x="469" y="763" type="line"/>
      <point x="594" y="763"/>
      <point x="741" y="854"/>
      <point x="757" y="935" type="qcurve" smooth="yes"/>
      <point x="769" y="996"/>
      <point x="703" y="1072"/>
      <point x="647" y="1072" type="qcurve" smooth="yes"/>
      <point x="591" y="1072"/>
      <point x="504" y="995"/>
      <point x="494" y="936" type="qcurve" smooth="yes"/>
      <point x="486" y="883"/>
      <point x="511" y="814"/>
      <point x="547" y="770" type="qcurve" smooth="yes"/>
      <point x="807" y="444" type="line" smooth="yes"/>
      <point x="871" y="363"/>
      <point x="914" y="221"/>
      <point x="898" y="130" type="qcurve" smooth="yes"/>
      <point x="882" y="32" type="line"/>
      <point x="583" y="32" type="line"/>
      <point x="598" y="117" type="line" smooth="yes"/>
      <point x="608" y="176"/>
      <point x="588" y="247"/>
      <point x="547" y="299" type="qcurve" smooth="yes"/>
      <point x="327" y="573" type="line" smooth="yes"/>
      <point x="249" y="671"/>
      <point x="181" y="844"/>
      <point x="198" y="944" type="qcurve" smooth="yes"/>
      <point x="223" y="1091"/>
      <point x="472" y="1300"/>
      <point x="659" y="1300" type="qcurve" smooth="yes"/>
      <point x="863" y="1300"/>
      <point x="1068" y="1083"/>
      <point x="1041" y="928" type="qcurve" smooth="yes"/>
      <point x="1015" y="767"/>
      <point x="749" y="565"/>
    </contour>
  </outline>
</glyph>
<glyph name="abbreviationsigndeva" format="1">
  <advance width="799"/>
  <unicode hex="0970"/>
  <outline>
    <contour>
      <point x="296" y="327"/>
      <point x="114" y="525"/>
      <point x="139" y="667" type="qcurve" smooth="yes"/>
      <point x="163" y="810"/>
      <point x="395" y="998"/>
      <point x="555" y="998" type="qcurve" smooth="yes"/>
      <point x="709" y="998"/>
      <point x="890" y="803"/>
      <point x="866" y="659" type="qcurve" smooth="yes"/>
      <point x="841" y="514"/>
      <point x="601" y="327"/>
      <point x="448" y="327" type="qcurve" smooth="yes"/>
    </contour>
    <contour>
      <point x="471" y="810"/>
      <point x="377" y="728"/>
      <point x="366" y="664" type="qcurve" smooth="yes"/>
      <point x="356" y="597"/>
      <point x="423" y="516"/>
      <point x="478" y="516" type="qcurve" smooth="yes"/>
      <point x="533" y="516"/>
      <point x="627" y="596"/>
      <point x="639" y="663" type="qcurve" smooth="yes"/>
      <point x="650" y="728"/>
      <point x="586" y="810"/>
      <point x="526" y="810" type="qcurve" smooth="yes"/>
    </contour>
  </outline>
</glyph>
<glyph name="awdevaKSH" format="1">
  <advance width="2104"/>
  <unicode hex="0975"/>
  <outline>
    <contour>
      <point x="1933" y="1213" type="line"/>
      <point x="1977" y="1470" type="line" smooth="yes"/>
      <point x="1984" y="1516"/>
      <point x="1947" y="1560"/>
      <point x="1919" y="1560" type="qcurve" smooth="yes"/>
      <point x="1888" y="1560"/>
      <point x="1803" y="1533"/>
      <point x="1745" y="1533" type="qcurve" smooth="yes"/>
      <point x="1667" y="1533"/>
      <point x="1551" y="1594"/>
      <point x="1506" y="1639" type="qcurve"/>
      <point x="1600" y="1804" type="line"/>
      <point x="1648" y="1764"/>
      <point x="1747" y="1731"/>
      <point x="1785" y="1731" type="qcurve" smooth="yes"/>
      <point x="1831" y="1731"/>
      <point x="1970" y="1778"/>
      <point x="2018" y="1778" type="qcurve" smooth="yes"/>
      <point x="2105" y="1778"/>
      <point x="2203" y="1652"/>
      <point x="2181" y="1518" type="qcurve" smooth="yes"/>
      <point x="2129" y="1213" type="line"/>
    </contour>
    <contour>
      <point x="1829" y="1186" type="line"/>
      <point x="1782" y="1290" type="line" smooth="yes"/>
      <point x="1767" y="1321"/>
      <point x="1739" y="1352"/>
      <point x="1714" y="1352" type="qcurve" smooth="yes"/>
      <point x="1679" y="1352"/>
      <point x="1594" y="1326"/>
      <point x="1530" y="1326" type="qcurve" smooth="yes"/>
      <point x="1472" y="1326"/>
      <point x="1368" y="1372"/>
      <point x="1329" y="1406" type="qcurve"/>
      <point x="1415" y="1579" type="line"/>
      <point x="1450" y="1547"/>
      <point x="1532" y="1515"/>
      <point x="1575" y="1515" type="qcurve" smooth="yes"/>
      <point x="1617" y="1515"/>
      <point x="1751" y="1552"/>
      <point x="1803" y="1552" type="qcurve" smooth="yes"/>
      <point x="1886" y="1552"/>
      <point x="1983" y="1435"/>
      <point x="2017" y="1340" type="qcurve" smooth="yes"/>
      <point x="2075" y="1186" type="line"/>
    </contour>
    <component base="aadeva" xOffset="-1"/>
  </outline>
</glyph>
